<svg width="1081" height="1080" viewBox="0 0 1081 1080" fill="none" xmlns="http://www.w3.org/2000/svg">
<g clip-path="url(#clip0_428_50)">
<mask id="mask0_428_50" style="mask-type:luminance" maskUnits="userSpaceOnUse" x="0" y="0" width="1081" height="1080">
<path d="M1080.03 0H0.0283203V1080H1080.03V0Z" fill="white"/>
</mask>
<g mask="url(#mask0_428_50)">
<path d="M469.268 444.685C488.792 440.478 522.725 407.535 542.248 403.327C551.835 401.262 562.81 399.472 570.646 405.37C575.637 409.127 578.256 415.513 578.299 421.761C578.343 428.009 576.04 434.101 572.701 439.383C567.626 447.41 560.279 453.7 552.988 459.787C511.34 494.556 493.81 530.536 448.506 560.386" fill="white"/>
<path d="M469.268 444.685C488.792 440.478 522.725 407.535 542.248 403.327C551.835 401.262 562.81 399.472 570.646 405.37C575.637 409.127 578.256 415.513 578.299 421.761C578.343 428.009 576.04 434.101 572.701 439.383C567.626 447.41 560.279 453.7 552.988 459.787C511.34 494.556 493.81 530.536 448.506 560.386" stroke="#421669" stroke-width="18" stroke-linecap="round" stroke-linejoin="round"/>
<path d="M432.848 588.919C432.253 617.619 431.657 646.321 431.062 675.019C430.877 683.977 430.465 693.612 425.005 700.717C420.141 707.044 412 710.15 404.04 710.729C396.081 711.306 388.146 709.67 380.318 708.119C356.243 703.349 332.028 699.293 307.714 695.958C277.607 691.831 248.93 686.074 219.386 682.049C205.769 680.194 197.095 666.795 200.765 653.551C208.21 626.69 212.224 598.879 212.641 571.007" fill="white"/>
<path d="M432.848 588.919C432.253 617.619 431.657 646.321 431.062 675.019C430.877 683.977 430.465 693.612 425.005 700.717C420.141 707.044 412 710.15 404.04 710.729C396.081 711.306 388.146 709.67 380.318 708.119C356.243 703.349 332.028 699.293 307.714 695.958C277.607 691.831 248.93 686.074 219.386 682.049C205.769 680.194 197.095 666.795 200.765 653.551C208.21 626.69 212.224 598.879 212.641 571.007" stroke="#421669" stroke-width="18" stroke-linecap="round" stroke-linejoin="round"/>
<path d="M411.365 189.213C406.287 185.527 400.342 183.051 394.109 182.253C379.52 180.363 364.126 187.638 356.362 200.129C355.692 201.211 355.095 202.301 354.536 203.394L354.7 202.891C331.493 191.002 301.64 203.348 285.915 224.148C280.315 231.552 276.12 239.734 272.878 248.386L270.074 241.78C256.5 235.5 239.756 241.112 229.154 251.599C218.515 262.081 212.78 276.493 208.038 290.636C180.074 374.393 177.229 466.301 199.621 551.661C201.742 559.831 206.824 566.675 213.575 571.056L212.652 570.997C212.237 598.89 208.19 626.7 200.749 653.565C199.745 657.139 199.667 660.735 200.356 664.113C190.179 659.821 184.379 648.445 187.48 637.214C194.921 610.35 198.967 582.538 199.383 554.644L200.306 554.703C193.555 550.323 188.473 543.479 186.352 535.308C163.96 449.948 166.805 358.04 194.769 274.283C199.511 260.14 205.246 245.728 215.885 235.246C226.487 224.759 243.231 219.147 256.806 225.427L259.609 232.033C262.851 223.381 267.046 215.199 272.647 207.795C288.372 186.995 318.225 174.649 341.431 186.538L341.267 187.041C341.826 185.948 342.423 184.858 343.093 183.776C350.857 171.285 366.251 164.009 380.84 165.899C394.11 167.617 406.143 176.931 411.365 189.213Z" fill="#421669"/>
<path d="M411.365 189.213C406.287 185.527 400.342 183.051 394.109 182.253C379.52 180.363 364.126 187.638 356.362 200.129C355.692 201.211 355.095 202.301 354.536 203.394L354.7 202.891C331.493 191.002 301.64 203.348 285.915 224.148C280.315 231.552 276.12 239.734 272.878 248.386L270.074 241.78C256.5 235.5 239.756 241.112 229.154 251.599C218.515 262.081 212.78 276.493 208.038 290.636C180.074 374.393 177.229 466.301 199.621 551.661C201.742 559.831 206.824 566.675 213.575 571.056L212.652 570.997C212.237 598.89 208.19 626.7 200.749 653.565C199.745 657.139 199.667 660.735 200.356 664.113C190.179 659.821 184.379 648.445 187.48 637.214C194.921 610.35 198.967 582.538 199.383 554.644L200.306 554.703C193.555 550.323 188.473 543.479 186.352 535.308C163.96 449.948 166.805 358.04 194.769 274.283C199.511 260.14 205.246 245.728 215.885 235.246C226.487 224.759 243.231 219.147 256.806 225.427L259.609 232.033C262.851 223.381 267.046 215.199 272.647 207.795C288.372 186.995 318.225 174.649 341.431 186.538L341.267 187.041C341.826 185.948 342.423 184.858 343.093 183.776C350.857 171.285 366.251 164.009 380.84 165.899C394.11 167.617 406.143 176.931 411.365 189.213Z" stroke="#421669" stroke-width="18" stroke-linecap="round" stroke-linejoin="round"/>
<path d="M445.478 568.481C442.797 583.931 429.542 595.203 413.84 595.642C375.834 596.76 336.708 591.471 299.621 585.824C275.552 582.173 251.253 579.357 227.069 576.125C213.746 574.308 203.031 564.614 199.589 551.673C177.239 466.276 180.083 374.422 208.039 290.617C212.802 276.457 218.513 262.109 229.112 251.632C239.789 241.091 256.531 235.47 270.033 241.737L277.164 238.477C279.618 233.442 282.545 228.67 285.946 224.163C301.54 203.482 331.128 191.193 354.239 202.678C354.617 201.788 355.138 200.914 355.657 200.038C363.463 187.553 378.803 180.286 393.406 182.165C408.002 184.114 421.018 195.047 425.348 209.081L429.423 209.076C432.245 206.01 435.919 203.676 440.608 202.592C448.745 200.651 457.159 203.6 463.377 209.109C472.147 216.885 477.988 228.074 479.788 239.628C491.25 314.24 467.501 442.093 445.478 568.481Z" fill="white"/>
<path d="M445.478 568.481C442.797 583.931 429.542 595.203 413.84 595.642C375.834 596.76 336.708 591.471 299.621 585.824C275.552 582.173 251.253 579.357 227.069 576.125C213.746 574.308 203.031 564.614 199.589 551.673C177.239 466.276 180.083 374.422 208.039 290.617C212.802 276.457 218.513 262.109 229.112 251.632C239.789 241.091 256.531 235.47 270.033 241.737L277.164 238.477C279.618 233.442 282.545 228.67 285.946 224.163C301.54 203.482 331.128 191.193 354.239 202.678C354.617 201.788 355.138 200.914 355.657 200.038C363.463 187.553 378.803 180.286 393.406 182.165C408.002 184.114 421.018 195.047 425.348 209.081L429.423 209.076C432.245 206.01 435.919 203.676 440.608 202.592C448.745 200.651 457.159 203.6 463.377 209.109C472.147 216.885 477.988 228.074 479.788 239.628C491.25 314.24 467.501 442.093 445.478 568.481Z" stroke="#421669" stroke-width="18" stroke-linecap="round" stroke-linejoin="round"/>
<path d="M463.377 209.115C457.137 203.572 448.727 200.654 440.601 202.56C424.263 206.392 420.288 224.747 418.42 240.199C406.999 334.641 397.38 429.302 389.568 524.111" stroke="#421669" stroke-width="18" stroke-linecap="round" stroke-linejoin="round"/>
<path d="M263.652 510.76C254.217 440.191 253.754 368.428 262.277 297.744C265.399 271.854 270.193 244.961 285.92 224.161C301.648 203.36 331.489 191.003 354.697 202.897" stroke="#421669" stroke-width="18" stroke-linecap="round" stroke-linejoin="round"/>
<path d="M317.217 518.581C313.628 463.989 321.382 409.358 329.116 355.197C335.045 313.664 340.976 272.131 346.906 230.597C348.414 220.035 350.044 209.128 355.68 200.069C363.449 187.582 378.827 180.292 393.412 182.185C407.996 184.076 421.006 195.048 425.332 209.105" stroke="#421669" stroke-width="18" stroke-linecap="round" stroke-linejoin="round"/>
<path d="M461.362 207.458C455.399 203.011 447.895 200.856 440.587 202.547C433.583 204.159 428.86 208.495 425.565 214.096C425.987 211.836 426.159 210.183 426.004 209.165C424.084 202.984 420.541 197.413 415.842 192.949C418.741 189.722 422.487 187.29 427.318 186.195C435.466 184.295 443.855 187.211 450.112 192.766C454.74 196.85 458.525 201.887 461.362 207.458Z" fill="#421669"/>
<path d="M461.362 207.458C455.399 203.011 447.895 200.856 440.587 202.547C433.583 204.159 428.86 208.495 425.565 214.096C425.987 211.836 426.159 210.183 426.004 209.165C424.084 202.984 420.541 197.413 415.842 192.949C418.741 189.722 422.487 187.29 427.318 186.195C435.466 184.295 443.855 187.211 450.112 192.766C454.74 196.85 458.525 201.887 461.362 207.458Z" stroke="#421669" stroke-width="18" stroke-linecap="round" stroke-linejoin="round"/>
<path d="M188.615 495.386C235.195 502.577 277.769 517.188 320.238 518.192C343.471 518.755 366.536 522.01 389.581 524.038C410.821 525.914 432.021 526.747 453.388 523.474" stroke="#421669" stroke-width="18" stroke-linecap="round" stroke-linejoin="round"/>
<path d="M211.402 396.682C216.668 395.104 222.443 395.287 227.598 397.192" stroke="#421669" stroke-width="18" stroke-linecap="round" stroke-linejoin="round"/>
<path d="M235.687 284.422C239.313 284.664 242.941 284.907 246.568 285.149" stroke="#421669" stroke-width="18" stroke-linecap="round" stroke-linejoin="round"/>
<path d="M282.658 366.75C287.291 363.951 293.493 363.993 298.09 366.851" stroke="#421669" stroke-width="18" stroke-linecap="round" stroke-linejoin="round"/>
<path d="M351.616 361.775C358.089 358.672 366.546 360.456 371.213 365.91" stroke="#421669" stroke-width="18" stroke-linecap="round" stroke-linejoin="round"/>
<path d="M372.523 240.63C377.969 239.02 384.211 240.459 388.401 244.293" stroke="#421669" stroke-width="18" stroke-linecap="round" stroke-linejoin="round"/>
<path d="M300.492 248.924C304.237 246.289 309.182 246.481 313.069 249.413" stroke="#421669" stroke-width="18" stroke-linecap="round" stroke-linejoin="round"/>
<path d="M430.751 375.371C435.407 372.933 441.814 374.705 444.556 379.188" stroke="#421669" stroke-width="18" stroke-linecap="round" stroke-linejoin="round"/>
<path d="M438.025 263.143C443.09 262.204 448.342 262.287 453.375 263.384" stroke="#421669" stroke-width="18" stroke-linecap="round" stroke-linejoin="round"/>
<path d="M271.841 658.291C302.277 663.472 332.714 668.655 363.15 673.836" stroke="#421669" stroke-width="18" stroke-linecap="round" stroke-linejoin="round"/>
<path d="M387.444 676.648C388.736 676.639 390.028 676.632 391.32 676.621" stroke="#421669" stroke-width="18" stroke-linecap="round" stroke-linejoin="round"/>
<path d="M238.324 546.986L243.309 547.505" stroke="#421669" stroke-width="18" stroke-linecap="round" stroke-linejoin="round"/>
<path d="M272.461 551.766C300.257 555.027 328.053 558.289 355.849 561.55" stroke="#421669" stroke-width="18" stroke-linecap="round" stroke-linejoin="round"/>
</g>
<path d="M619.428 477.906C571.388 480.338 524.092 495.946 484.836 523.648C467.809 535.675 452.202 549.865 439.703 566.553C412.204 603.377 401.46 651.145 405.042 696.955C408.15 736.279 421.258 774.318 439.906 809.25C442.879 814.79 447.541 819.047 453.014 821.547C449.568 822.425 446.055 823.17 442.474 823.778C430.447 825.94 418.285 819.994 412.475 809.252C393.827 774.32 380.719 736.28 377.611 696.957C374.03 651.147 384.84 603.378 412.34 566.554C424.772 549.865 440.38 535.676 457.407 523.65C504.162 490.61 562.335 474.866 619.428 477.906Z" fill="#421669"/>
<path d="M619.428 477.906C571.388 480.338 524.092 495.946 484.836 523.648C467.809 535.675 452.202 549.865 439.703 566.553C412.204 603.377 401.46 651.145 405.042 696.955C408.15 736.279 421.258 774.318 439.906 809.25C442.879 814.79 447.541 819.047 453.014 821.547C449.568 822.425 446.055 823.17 442.474 823.778C430.447 825.94 418.285 819.994 412.475 809.252C393.827 774.32 380.719 736.28 377.611 696.957C374.03 651.147 384.84 603.378 412.34 566.554C424.772 549.865 440.38 535.676 457.407 523.65C504.162 490.61 562.335 474.866 619.428 477.906Z" stroke="#421669" stroke-width="18" stroke-linecap="round" stroke-linejoin="round"/>
<path d="M1080.03 725.741C1047.26 714.255 1010.16 723.241 980.165 740.741C950.098 758.173 925.437 783.374 899.897 806.886C874.289 830.468 846.655 853.171 813.615 863.98C786.656 872.764 757.67 873.169 729.427 870.939C658.212 865.4 588.281 843.575 526.458 807.764C527.336 806.211 528.282 804.657 529.161 803.171C539.566 798.239 550.106 792.765 561.39 787.022C584.295 775.537 607.132 764.052 629.97 752.564C669.361 732.767 708.887 712.97 750.44 698.308C791.993 683.646 836.52 674.458 880.572 676.282C931.99 671.755 1058.07 679.12 1080.03 725.741Z" fill="white"/>
<path d="M1080.03 725.741C1047.26 714.255 1010.16 723.241 980.165 740.741C950.098 758.173 925.437 783.374 899.897 806.886C874.289 830.468 846.655 853.171 813.615 863.98C786.656 872.764 757.67 873.169 729.427 870.939C658.212 865.4 588.281 843.575 526.458 807.764C527.336 806.211 528.282 804.657 529.161 803.171C539.566 798.239 550.106 792.765 561.39 787.022C584.295 775.537 607.132 764.052 629.97 752.564C669.361 732.767 708.887 712.97 750.44 698.308C791.993 683.646 836.52 674.458 880.572 676.282C931.99 671.755 1058.07 679.12 1080.03 725.741Z" stroke="#421669" stroke-width="18" stroke-linecap="round" stroke-linejoin="round"/>
<path d="M1080.03 725.74C1079.96 725.74 1079.83 725.673 1079.76 725.673V725.266C1079.89 725.401 1079.96 725.604 1080.03 725.74Z" fill="white"/>
<path d="M1080.03 725.74C1079.96 725.74 1079.83 725.673 1079.76 725.673V725.266C1079.89 725.401 1079.96 725.604 1080.03 725.74Z" stroke="#421669" stroke-width="18" stroke-linecap="round" stroke-linejoin="round"/>
<path d="M469.902 823.782C457.844 825.923 445.66 820.019 439.886 809.219C421.232 774.328 408.128 736.313 405.038 696.963C401.44 651.141 412.219 603.403 439.714 566.572C452.179 549.874 467.793 535.678 484.816 523.658C553.032 475.497 645.63 464.023 723.539 494.074C801.448 524.127 862.355 594.813 880.559 676.308C836.537 674.487 791.968 683.636 750.416 698.286C708.863 712.936 669.366 732.778 629.999 752.565C607.132 764.058 584.265 775.553 561.398 787.046C529.02 803.321 502.878 817.927 469.902 823.782Z" fill="white"/>
<path d="M469.902 823.782C457.844 825.923 445.66 820.019 439.886 809.219C421.232 774.328 408.128 736.313 405.038 696.963C401.44 651.141 412.219 603.403 439.714 566.572C452.179 549.874 467.793 535.678 484.816 523.658C553.032 475.497 645.63 464.023 723.539 494.074C801.448 524.127 862.355 594.813 880.559 676.308C836.537 674.487 791.968 683.636 750.416 698.286C708.863 712.936 669.366 732.778 629.999 752.565C607.132 764.058 584.265 775.553 561.398 787.046C529.02 803.321 502.878 817.927 469.902 823.782Z" stroke="#421669" stroke-width="18" stroke-linecap="round" stroke-linejoin="round"/>
<path d="M1079.76 725.672C1079.83 737.766 1072.87 749.253 1063.14 756.414C1053.21 763.846 1040.77 767.157 1028.41 768.17C1005.64 769.994 982.396 764.116 963.207 751.751C968.681 747.832 974.356 744.116 980.166 740.738C1010.1 723.307 1047.06 714.32 1079.76 725.672Z" fill="#421669"/>
<path d="M1079.76 725.672C1079.83 737.766 1072.87 749.253 1063.14 756.414C1053.21 763.846 1040.77 767.157 1028.41 768.17C1005.64 769.994 982.396 764.116 963.207 751.751C968.681 747.832 974.356 744.116 980.166 740.738C1010.1 723.307 1047.06 714.32 1079.76 725.672Z" stroke="#421669" stroke-width="18" stroke-linecap="round" stroke-linejoin="round"/>
<path d="M1007.35 685.912C976.835 691.014 947.628 703.774 923.152 722.7C900.725 740.041 882.542 762.158 862.35 782.056C842.157 801.954 818.859 820.21 791.289 826.812C760.271 834.242 727.889 826.107 697.039 818.007C656.539 807.373 616.04 796.739 575.539 786.103" stroke="#421669" stroke-width="18" stroke-linecap="round" stroke-linejoin="round" stroke-dasharray="3.74 22.44"/>
<path d="M551.985 490.275C526.859 534.362 523.643 580.644 532.95 630.527C542.257 680.41 563.052 727.302 583.679 773.665" stroke="#421669" stroke-width="18" stroke-linecap="round" stroke-linejoin="round"/>
<path d="M594.177 475.487C593.641 456.708 572.436 439.628 547.071 447.619C521.641 455.631 516.609 480.647 521.946 498.501" fill="#421669"/>
<path d="M594.177 475.487C593.641 456.708 572.436 439.628 547.071 447.619C521.641 455.631 516.609 480.647 521.946 498.501" stroke="#421669" stroke-width="18" stroke-linecap="round" stroke-linejoin="round"/>
<path d="M636.803 517.074C688.444 511.286 742.371 533.026 775.559 573.011" stroke="#421669" stroke-width="18" stroke-linecap="round" stroke-linejoin="round"/>
<path d="M793.701 600.029C794.98 602.769 796.261 605.511 797.539 608.251" stroke="#421669" stroke-width="18" stroke-linecap="round" stroke-linejoin="round"/>
</g>
<defs>
<clipPath id="clip0_428_50">
<rect width="1080" height="1080" fill="white" transform="translate(0.0283203)"/>
</clipPath>
</defs>
</svg>
