<svg width="1080" height="1080" viewBox="0 0 1080 1080" fill="none" xmlns="http://www.w3.org/2000/svg">
<g clip-path="url(#clip0_430_151)">
<mask id="mask0_430_151" style="mask-type:luminance" maskUnits="userSpaceOnUse" x="0" y="0" width="1080" height="1080">
<path d="M1080 0H0V1080H1080V0Z" fill="white"/>
</mask>
<g mask="url(#mask0_430_151)">
<path d="M430.941 359.064C382.901 361.496 335.605 377.104 296.349 404.806C279.322 416.833 263.715 431.023 251.216 447.711C223.717 484.535 212.973 532.303 216.555 578.113C219.663 617.437 232.771 655.476 251.419 690.408C254.392 695.948 259.054 700.205 264.527 702.705C261.081 703.583 257.568 704.328 253.987 704.936C241.96 707.098 229.798 701.152 223.988 690.41C205.34 655.478 192.232 617.438 189.124 578.115C185.543 532.305 196.353 484.536 223.853 447.712C236.285 431.023 251.893 416.834 268.92 404.808C315.675 371.768 373.848 356.024 430.941 359.064Z" fill="#421669"/>
<path d="M430.941 359.064C382.901 361.496 335.605 377.104 296.349 404.806C279.322 416.833 263.715 431.023 251.216 447.711C223.717 484.535 212.973 532.303 216.555 578.113C219.663 617.437 232.771 655.476 251.419 690.408C254.392 695.948 259.054 700.205 264.527 702.705C261.081 703.583 257.568 704.328 253.987 704.936C241.96 707.098 229.798 701.152 223.988 690.41C205.34 655.478 192.232 617.438 189.124 578.115C185.543 532.305 196.353 484.536 223.853 447.712C236.285 431.023 251.893 416.834 268.92 404.808C315.675 371.768 373.848 356.024 430.941 359.064Z" stroke="#421669" stroke-width="18" stroke-linecap="round" stroke-linejoin="round"/>
<path d="M891.541 606.899C858.772 595.413 821.677 604.399 791.678 621.899C761.611 639.331 736.95 664.532 711.41 688.044C685.802 711.626 658.168 734.329 625.128 745.138C598.169 753.922 569.183 754.327 540.94 752.097C469.725 746.558 399.794 724.733 337.971 688.922C338.849 687.369 339.795 685.815 340.674 684.329C351.079 679.397 361.619 673.923 372.903 668.18C395.808 656.695 418.645 645.21 441.483 633.722C480.874 613.925 520.4 594.128 561.953 579.466C603.506 564.804 648.033 555.616 692.085 557.44C743.503 552.913 869.582 560.278 891.541 606.899Z" fill="white"/>
<path d="M891.541 606.899C858.772 595.413 821.677 604.399 791.678 621.899C761.611 639.331 736.95 664.532 711.41 688.044C685.802 711.626 658.168 734.329 625.128 745.138C598.169 753.922 569.183 754.327 540.94 752.097C469.725 746.558 399.794 724.733 337.971 688.922C338.849 687.369 339.795 685.815 340.674 684.329C351.079 679.397 361.619 673.923 372.903 668.18C395.808 656.695 418.645 645.21 441.483 633.722C480.874 613.925 520.4 594.128 561.953 579.466C603.506 564.804 648.033 555.616 692.085 557.44C743.503 552.913 869.582 560.278 891.541 606.899Z" stroke="#421669" stroke-width="18" stroke-linecap="round" stroke-linejoin="round"/>
<path d="M891.541 606.898C891.473 606.898 891.338 606.831 891.271 606.831V606.424C891.405 606.559 891.473 606.762 891.541 606.898Z" fill="white"/>
<path d="M891.541 606.898C891.473 606.898 891.338 606.831 891.271 606.831V606.424C891.405 606.559 891.473 606.762 891.541 606.898Z" stroke="#421669" stroke-width="18" stroke-linecap="round" stroke-linejoin="round"/>
<path d="M281.415 704.94C269.357 707.081 257.173 701.177 251.399 690.377C232.745 655.486 219.641 617.471 216.551 578.121C212.953 532.299 223.732 484.561 251.227 447.73C263.692 431.032 279.306 416.836 296.329 404.816C364.545 356.655 457.143 345.181 535.052 375.232C612.961 405.285 673.868 475.971 692.072 557.466C648.05 555.645 603.481 564.794 561.929 579.444C520.376 594.094 480.879 613.936 441.512 633.723C418.645 645.216 395.778 656.711 372.911 668.204C340.533 684.479 314.391 699.085 281.415 704.94Z" fill="white"/>
<path d="M281.415 704.94C269.357 707.081 257.173 701.177 251.399 690.377C232.745 655.486 219.641 617.471 216.551 578.121C212.953 532.299 223.732 484.561 251.227 447.73C263.692 431.032 279.306 416.836 296.329 404.816C364.545 356.655 457.143 345.181 535.052 375.232C612.961 405.285 673.868 475.971 692.072 557.466C648.05 555.645 603.481 564.794 561.929 579.444C520.376 594.094 480.879 613.936 441.512 633.723C418.645 645.216 395.778 656.711 372.911 668.204C340.533 684.479 314.391 699.085 281.415 704.94Z" stroke="#421669" stroke-width="18" stroke-linecap="round" stroke-linejoin="round"/>
<path d="M891.272 606.83C891.338 618.924 884.379 630.411 874.651 637.572C864.718 645.004 852.287 648.315 839.921 649.328C817.152 651.152 793.909 645.274 774.72 632.909C780.194 628.99 785.869 625.274 791.679 621.896C821.611 604.465 858.569 595.478 891.272 606.83Z" fill="#421669"/>
<path d="M891.272 606.83C891.338 618.924 884.379 630.411 874.651 637.572C864.718 645.004 852.287 648.315 839.921 649.328C817.152 651.152 793.909 645.274 774.72 632.909C780.194 628.99 785.869 625.274 791.679 621.896C821.611 604.465 858.569 595.478 891.272 606.83Z" stroke="#421669" stroke-width="18" stroke-linecap="round" stroke-linejoin="round"/>
<path d="M818.865 567.07C788.348 572.172 759.141 584.932 734.665 603.858C712.238 621.199 694.055 643.316 673.863 663.214C653.67 683.112 630.372 701.368 602.802 707.97C571.784 715.4 539.402 707.265 508.552 699.165C468.052 688.531 427.553 677.897 387.052 667.261" stroke="#421669" stroke-width="18" stroke-linecap="round" stroke-linejoin="round" stroke-dasharray="3.74 22.44"/>
<path d="M363.498 371.433C338.372 415.52 335.156 461.802 344.463 511.685C353.77 561.568 374.565 608.46 395.192 654.823" stroke="#421669" stroke-width="18" stroke-linecap="round" stroke-linejoin="round"/>
<path d="M405.69 356.645C405.154 337.866 383.949 320.786 358.584 328.777C333.154 336.789 328.122 361.805 333.459 379.659" fill="#421669"/>
<path d="M405.69 356.645C405.154 337.866 383.949 320.786 358.584 328.777C333.154 336.789 328.122 361.805 333.459 379.659" stroke="#421669" stroke-width="18" stroke-linecap="round" stroke-linejoin="round"/>
<path d="M448.316 398.232C499.957 392.444 553.884 414.184 587.072 454.169" stroke="#421669" stroke-width="18" stroke-linecap="round" stroke-linejoin="round"/>
<path d="M605.214 481.187C606.493 483.927 607.774 486.669 609.052 489.409" stroke="#421669" stroke-width="18" stroke-linecap="round" stroke-linejoin="round"/>
</g>
</g>
<defs>
<clipPath id="clip0_430_151">
<rect width="1080" height="1080" fill="white"/>
</clipPath>
</defs>
</svg>
