<svg width="1080" height="1080" viewBox="0 0 1080 1080" fill="none" xmlns="http://www.w3.org/2000/svg">
<g clip-path="url(#clip0_430_50)">
<mask id="mask0_430_50" style="mask-type:luminance" maskUnits="userSpaceOnUse" x="0" y="0" width="1080" height="1080">
<path d="M1080 0H0V1080H1080V0Z" fill="white"/>
</mask>
<g mask="url(#mask0_430_50)">
<path d="M469.24 444.685C488.764 440.479 522.696 407.535 542.22 403.328C551.807 401.262 562.782 399.472 570.617 405.37C575.609 409.127 578.228 415.513 578.271 421.761C578.314 428.009 576.012 434.101 572.673 439.383C567.598 447.411 560.251 453.701 552.96 459.787C511.312 494.556 493.781 530.536 448.478 560.386" fill="white"/>
<path d="M469.24 444.685C488.764 440.479 522.696 407.535 542.22 403.328C551.807 401.262 562.782 399.472 570.617 405.37C575.609 409.127 578.228 415.513 578.271 421.761C578.314 428.009 576.012 434.101 572.673 439.383C567.598 447.411 560.251 453.701 552.96 459.787C511.312 494.556 493.781 530.536 448.478 560.386" stroke="#421669" stroke-width="18" stroke-linecap="round" stroke-linejoin="round"/>
<path d="M432.82 588.919C432.225 617.619 431.629 646.321 431.034 675.019C430.848 683.977 430.436 693.612 424.976 700.717C420.113 707.044 411.971 710.15 404.012 710.729C396.052 711.306 388.118 709.67 380.289 708.119C356.215 703.349 332 699.293 307.685 695.958C277.579 691.831 248.902 686.074 219.358 682.049C205.741 680.194 197.067 666.795 200.737 653.551C208.182 626.69 212.195 598.879 212.613 571.007" fill="white"/>
<path d="M432.82 588.919C432.225 617.619 431.629 646.321 431.034 675.019C430.848 683.977 430.436 693.612 424.976 700.717C420.113 707.044 411.971 710.15 404.012 710.729C396.052 711.306 388.118 709.67 380.289 708.119C356.215 703.349 332 699.293 307.685 695.958C277.579 691.831 248.902 686.074 219.358 682.049C205.741 680.194 197.067 666.795 200.737 653.551C208.182 626.69 212.195 598.879 212.613 571.007" stroke="#421669" stroke-width="18" stroke-linecap="round" stroke-linejoin="round"/>
<path d="M411.336 189.213C406.259 185.527 400.313 183.051 394.08 182.253C379.492 180.363 364.098 187.638 356.333 200.129C355.664 201.211 355.067 202.301 354.507 203.394L354.671 202.891C331.465 191.002 301.612 203.348 285.887 224.148C280.286 231.552 276.092 239.734 272.85 248.386L270.046 241.78C256.471 235.5 239.727 241.112 229.125 251.599C218.487 262.081 212.751 276.493 208.009 290.636C180.045 374.393 177.2 466.301 199.592 551.661C201.713 559.831 206.796 566.675 213.547 571.056L212.624 570.997C212.209 598.89 208.161 626.7 200.72 653.565C199.717 657.139 199.639 660.735 200.328 664.113C190.151 659.821 184.351 648.445 187.451 637.214C194.892 610.35 198.939 582.538 199.355 554.644L200.278 554.703C193.527 550.323 188.445 543.479 186.323 535.308C163.931 449.948 166.776 358.04 194.74 274.283C199.482 260.14 205.218 245.728 215.856 235.246C226.458 224.759 243.203 219.147 256.777 225.427L259.581 232.033C262.823 223.381 267.017 215.199 272.618 207.795C288.344 186.995 318.197 174.649 341.402 186.538L341.238 187.041C341.798 185.948 342.395 184.858 343.064 183.776C350.829 171.285 366.223 164.009 380.812 165.899C394.082 167.617 406.114 176.931 411.336 189.213Z" fill="#421669"/>
<path d="M411.336 189.213C406.259 185.527 400.313 183.051 394.08 182.253C379.492 180.363 364.098 187.638 356.333 200.129C355.664 201.211 355.067 202.301 354.507 203.394L354.671 202.891C331.465 191.002 301.612 203.348 285.887 224.148C280.286 231.552 276.092 239.734 272.85 248.386L270.046 241.78C256.471 235.5 239.727 241.112 229.125 251.599C218.487 262.081 212.751 276.493 208.009 290.636C180.045 374.393 177.2 466.301 199.592 551.661C201.713 559.831 206.796 566.675 213.547 571.056L212.624 570.997C212.209 598.89 208.161 626.7 200.72 653.565C199.717 657.139 199.639 660.735 200.328 664.113C190.151 659.821 184.351 648.445 187.451 637.214C194.892 610.35 198.939 582.538 199.355 554.644L200.278 554.703C193.527 550.323 188.445 543.479 186.323 535.308C163.931 449.948 166.776 358.04 194.74 274.283C199.482 260.14 205.218 245.728 215.856 235.246C226.458 224.759 243.203 219.147 256.777 225.427L259.581 232.033C262.823 223.381 267.017 215.199 272.618 207.795C288.344 186.995 318.197 174.649 341.402 186.538L341.238 187.041C341.798 185.948 342.395 184.858 343.064 183.776C350.829 171.285 366.223 164.009 380.812 165.899C394.082 167.617 406.114 176.931 411.336 189.213Z" stroke="#421669" stroke-width="18" stroke-linecap="round" stroke-linejoin="round"/>
<path d="M445.449 568.481C442.769 583.931 429.513 595.203 413.811 595.642C375.805 596.76 336.68 591.471 299.593 585.824C275.524 582.173 251.225 579.357 227.04 576.125C213.718 574.308 203.003 564.614 199.561 551.673C177.211 466.276 180.054 374.422 208.01 290.617C212.773 276.457 218.485 262.109 229.084 251.632C239.761 241.091 256.503 235.47 270.004 241.737L277.135 238.477C279.59 233.442 282.517 228.67 285.918 224.163C301.511 203.482 331.1 191.193 354.211 202.678C354.589 201.788 355.11 200.914 355.629 200.038C363.435 187.553 378.775 180.286 393.378 182.165C407.973 184.114 420.989 195.047 425.319 209.081L429.395 209.076C432.216 206.01 435.891 203.676 440.579 202.592C448.717 200.651 457.131 203.6 463.349 209.109C472.119 216.885 477.959 228.074 479.76 239.628C491.222 314.24 467.473 442.093 445.449 568.481Z" fill="white"/>
<path d="M445.449 568.481C442.769 583.931 429.513 595.203 413.811 595.642C375.805 596.76 336.68 591.471 299.593 585.824C275.524 582.173 251.225 579.357 227.04 576.125C213.718 574.308 203.003 564.614 199.561 551.673C177.211 466.276 180.054 374.422 208.01 290.617C212.773 276.457 218.485 262.109 229.084 251.632C239.761 241.091 256.503 235.47 270.004 241.737L277.135 238.477C279.59 233.442 282.517 228.67 285.918 224.163C301.511 203.482 331.1 191.193 354.211 202.678C354.589 201.788 355.11 200.914 355.629 200.038C363.435 187.553 378.775 180.286 393.378 182.165C407.973 184.114 420.989 195.047 425.319 209.081L429.395 209.076C432.216 206.01 435.891 203.676 440.579 202.592C448.717 200.651 457.131 203.6 463.349 209.109C472.119 216.885 477.959 228.074 479.76 239.628C491.222 314.24 467.473 442.093 445.449 568.481Z" stroke="#421669" stroke-width="18" stroke-linecap="round" stroke-linejoin="round"/>
<path d="M463.349 209.115C457.108 203.572 448.698 200.654 440.572 202.56C424.235 206.392 420.26 224.747 418.391 240.199C406.971 334.641 397.351 429.302 389.539 524.111" stroke="#421669" stroke-width="18" stroke-linecap="round" stroke-linejoin="round"/>
<path d="M263.624 510.76C254.189 440.191 253.726 368.428 262.249 297.744C265.37 271.854 270.164 244.961 285.892 224.161C301.619 203.36 331.46 191.003 354.669 202.897" stroke="#421669" stroke-width="18" stroke-linecap="round" stroke-linejoin="round"/>
<path d="M317.189 518.581C313.6 463.989 321.354 409.358 329.087 355.197C335.017 313.664 340.948 272.131 346.878 230.597C348.386 220.035 350.016 209.128 355.652 200.069C363.42 187.582 378.799 180.292 393.383 182.185C407.968 184.076 420.978 195.048 425.303 209.105" stroke="#421669" stroke-width="18" stroke-linecap="round" stroke-linejoin="round"/>
<path d="M461.334 207.458C455.37 203.011 447.867 200.856 440.559 202.547C433.555 204.159 428.832 208.495 425.537 214.096C425.958 211.836 426.13 210.183 425.976 209.165C424.056 202.984 420.513 197.413 415.814 192.949C418.712 189.722 422.458 187.29 427.29 186.195C435.437 184.295 443.826 187.211 450.084 192.766C454.712 196.85 458.496 201.887 461.334 207.458Z" fill="#421669"/>
<path d="M461.334 207.458C455.37 203.011 447.867 200.856 440.559 202.547C433.555 204.159 428.832 208.495 425.537 214.096C425.958 211.836 426.13 210.183 425.976 209.165C424.056 202.984 420.513 197.413 415.814 192.949C418.712 189.722 422.458 187.29 427.29 186.195C435.437 184.295 443.826 187.211 450.084 192.766C454.712 196.85 458.496 201.887 461.334 207.458Z" stroke="#421669" stroke-width="18" stroke-linecap="round" stroke-linejoin="round"/>
<path d="M188.586 495.386C235.166 502.577 277.741 517.188 320.209 518.192C343.443 518.754 366.508 522.009 389.553 524.038C410.793 525.914 431.992 526.747 453.359 523.474" stroke="#421669" stroke-width="18" stroke-linecap="round" stroke-linejoin="round"/>
<path d="M211.374 396.681C216.639 395.104 222.414 395.287 227.57 397.191" stroke="#421669" stroke-width="18" stroke-linecap="round" stroke-linejoin="round"/>
<path d="M235.658 284.422C239.285 284.664 242.913 284.907 246.54 285.149" stroke="#421669" stroke-width="18" stroke-linecap="round" stroke-linejoin="round"/>
<path d="M282.629 366.75C287.263 363.951 293.465 363.993 298.062 366.851" stroke="#421669" stroke-width="18" stroke-linecap="round" stroke-linejoin="round"/>
<path d="M351.587 361.775C358.061 358.672 366.517 360.456 371.185 365.91" stroke="#421669" stroke-width="18" stroke-linecap="round" stroke-linejoin="round"/>
<path d="M372.495 240.63C377.941 239.02 384.182 240.459 388.373 244.293" stroke="#421669" stroke-width="18" stroke-linecap="round" stroke-linejoin="round"/>
<path d="M300.464 248.924C304.209 246.289 309.153 246.481 313.041 249.413" stroke="#421669" stroke-width="18" stroke-linecap="round" stroke-linejoin="round"/>
<path d="M430.723 375.371C435.378 372.933 441.785 374.705 444.528 379.188" stroke="#421669" stroke-width="18" stroke-linecap="round" stroke-linejoin="round"/>
<path d="M437.997 263.143C443.061 262.204 448.314 262.287 453.346 263.384" stroke="#421669" stroke-width="18" stroke-linecap="round" stroke-linejoin="round"/>
<path d="M271.812 658.291C302.249 663.473 332.685 668.656 363.122 673.836" stroke="#421669" stroke-width="18" stroke-linecap="round" stroke-linejoin="round"/>
<path d="M387.416 676.648C388.708 676.639 389.999 676.631 391.291 676.621" stroke="#421669" stroke-width="18" stroke-linecap="round" stroke-linejoin="round"/>
<path d="M238.295 546.985L243.28 547.504" stroke="#421669" stroke-width="18" stroke-linecap="round" stroke-linejoin="round"/>
<path d="M272.433 551.767C300.229 555.028 328.025 558.29 355.82 561.55" stroke="#421669" stroke-width="18" stroke-linecap="round" stroke-linejoin="round"/>
<path d="M610.434 763.02C591.452 756.814 561.112 720.535 542.128 714.328C532.808 711.281 522.079 708.362 513.674 713.417C508.32 716.637 505.055 722.718 504.365 728.928C503.674 735.138 505.333 741.436 508.107 747.036C512.325 755.545 518.979 762.561 525.601 769.371C563.424 808.265 577.133 845.869 619.102 880.249" fill="white"/>
<path d="M610.434 763.02C591.452 756.814 561.112 720.535 542.128 714.328C532.808 711.281 522.079 708.362 513.674 713.417C508.32 716.637 505.055 722.718 504.365 728.928C503.674 735.138 505.333 741.436 508.107 747.036C512.325 755.545 518.979 762.561 525.601 769.371C563.424 808.265 577.133 845.869 619.102 880.249" stroke="#421669" stroke-width="18" stroke-linecap="round" stroke-linejoin="round"/>
<path d="M631.723 910.25C629.343 938.856 626.961 967.464 624.581 996.071C623.838 1005 623.251 1014.63 627.947 1022.26C632.128 1029.06 639.905 1032.99 647.761 1034.39C655.618 1035.79 663.678 1034.98 671.625 1034.25C696.065 1032 720.571 1030.47 745.099 1029.67C775.471 1028.68 804.591 1025.93 834.394 1024.98C848.129 1024.55 858.144 1012.12 855.866 998.567C851.243 971.08 850.13 943.002 852.601 915.238" fill="white"/>
<path d="M631.723 910.25C629.343 938.856 626.961 967.464 624.581 996.071C623.838 1005 623.251 1014.63 627.947 1022.26C632.128 1029.06 639.905 1032.99 647.761 1034.39C655.618 1035.79 663.678 1034.98 671.625 1034.25C696.065 1032 720.571 1030.47 745.099 1029.67C775.471 1028.68 804.591 1025.93 834.394 1024.98C848.129 1024.55 858.144 1012.12 855.866 998.567C851.243 971.08 850.13 943.002 852.601 915.238" stroke="#421669" stroke-width="18" stroke-linecap="round" stroke-linejoin="round"/>
<path d="M694.484 514.918C699.916 511.777 706.086 509.931 712.368 509.783C727.074 509.414 741.631 518.244 748.06 531.472C748.615 532.617 749.095 533.763 749.539 534.908L749.427 534.391C773.741 524.969 802.155 540.34 815.64 562.657C820.445 570.601 823.769 579.173 826.097 588.115L829.571 581.834C843.722 576.994 859.796 584.309 869.255 595.837C878.751 607.365 882.963 622.294 886.214 636.852C905.355 723.055 898.667 814.762 867.555 897.344C864.599 905.251 858.836 911.532 851.668 915.189L852.591 915.227C850.116 943.013 851.261 971.094 855.88 998.585C856.508 1002.24 856.213 1005.83 855.178 1009.12C865.746 1005.9 872.693 995.186 870.772 983.695C866.153 956.205 865.007 928.123 867.483 900.337L866.558 900.3C873.726 896.642 879.491 890.36 882.447 882.453C913.557 799.871 920.246 708.164 901.106 621.961C897.853 607.403 893.641 592.475 884.146 580.947C874.687 569.419 858.614 562.103 844.462 566.943L840.989 573.224C838.661 564.282 835.336 555.71 830.532 547.766C817.045 525.449 788.63 510.078 764.319 519.5L764.429 520.017C763.987 518.872 763.505 517.726 762.952 516.581C756.523 503.353 741.964 494.522 727.258 494.891C713.881 495.225 700.95 503.242 694.484 514.918Z" fill="#421669"/>
<path d="M694.484 514.918C699.916 511.777 706.086 509.931 712.368 509.783C727.074 509.414 741.631 518.244 748.06 531.472C748.615 532.617 749.095 533.763 749.539 534.908L749.427 534.391C773.741 524.969 802.155 540.34 815.64 562.657C820.445 570.601 823.769 579.173 826.097 588.115L829.571 581.834C843.722 576.994 859.796 584.309 869.255 595.837C878.751 607.365 882.963 622.294 886.214 636.852C905.355 723.055 898.667 814.762 867.555 897.344C864.599 905.251 858.836 911.532 851.668 915.189L852.591 915.227C850.116 943.013 851.261 971.094 855.88 998.585C856.508 1002.24 856.213 1005.83 855.178 1009.12C865.746 1005.9 872.693 995.186 870.772 983.695C866.153 956.205 865.007 928.123 867.483 900.337L866.558 900.3C873.726 896.642 879.491 890.36 882.447 882.453C913.557 799.871 920.246 708.164 901.106 621.961C897.853 607.403 893.641 592.475 884.146 580.947C874.687 569.419 858.614 562.103 844.462 566.943L840.989 573.224C838.661 564.282 835.336 555.71 830.532 547.766C817.045 525.449 788.63 510.078 764.319 519.5L764.429 520.017C763.987 518.872 763.505 517.726 762.952 516.581C756.523 503.353 741.964 494.522 727.258 494.891C713.881 495.225 700.95 503.242 694.484 514.918Z" stroke="#421669" stroke-width="18" stroke-linecap="round" stroke-linejoin="round"/>
<path d="M621.279 888.615C622.344 904.258 634.362 916.844 649.933 918.906C687.62 923.954 727.082 922.746 764.553 920.968C788.872 919.831 813.332 919.546 837.72 918.835C851.16 918.408 862.822 909.876 867.586 897.36C898.659 814.737 905.342 723.082 886.216 636.832C882.945 622.255 878.75 607.394 869.293 595.875C859.764 584.284 843.695 576.961 829.617 581.796L822.861 577.814C820.941 572.552 818.525 567.504 815.609 562.669C802.241 540.484 774.084 525.197 749.908 534.227C749.624 533.303 749.196 532.379 748.77 531.454C742.299 518.228 727.795 509.41 713.076 509.766C698.357 510.194 684.279 519.721 678.519 533.232L674.465 532.804C671.975 529.463 668.564 526.761 664.012 525.197C656.12 522.424 647.446 524.486 640.691 529.321C631.163 536.147 624.194 546.671 621.207 557.977C602.08 631.002 612.462 760.626 621.279 888.615Z" fill="white"/>
<path d="M621.279 888.615C622.344 904.258 634.362 916.844 649.933 918.906C687.62 923.954 727.082 922.746 764.553 920.968C788.872 919.831 813.332 919.546 837.72 918.835C851.16 918.408 862.822 909.876 867.586 897.36C898.659 814.737 905.342 723.082 886.216 636.832C882.945 622.255 878.75 607.394 869.293 595.875C859.764 584.284 843.695 576.961 829.617 581.796L822.861 577.814C820.941 572.552 818.525 567.504 815.609 562.669C802.241 540.484 774.084 525.197 749.908 534.227C749.624 533.303 749.196 532.379 748.77 531.454C742.299 518.228 727.795 509.41 713.076 509.766C698.357 510.194 684.279 519.721 678.519 533.232L674.465 532.804C671.975 529.463 668.564 526.761 664.012 525.197C656.12 522.424 647.446 524.486 640.691 529.321C631.163 536.147 624.194 546.671 621.207 557.977C602.08 631.002 612.462 760.626 621.279 888.615Z" stroke="#421669" stroke-width="18" stroke-linecap="round" stroke-linejoin="round"/>
<path d="M640.69 529.327C647.47 524.46 656.136 522.429 664.022 525.166C679.875 530.67 681.927 549.337 682.186 564.899C683.764 660.016 683.53 755.163 681.482 850.271" stroke="#421669" stroke-width="18" stroke-linecap="round" stroke-linejoin="round"/>
<path d="M808.103 850.033C824.795 780.821 832.687 709.492 831.531 638.304C831.107 612.231 829.124 584.986 815.634 562.669C802.146 540.352 773.745 524.971 749.429 534.397" stroke="#421669" stroke-width="18" stroke-linecap="round" stroke-linejoin="round"/>
<path d="M754.016 852.265C763.24 798.338 761.185 743.199 759.101 688.529C757.504 646.604 755.907 604.68 754.31 562.755C753.904 552.094 753.412 541.077 748.745 531.483C742.31 518.258 727.77 509.415 713.068 509.787C698.366 510.158 684.289 519.724 678.532 533.257" stroke="#421669" stroke-width="18" stroke-linecap="round" stroke-linejoin="round"/>
<path d="M642.866 527.887C649.258 524.081 656.944 522.715 664.038 525.154C670.837 527.482 675.086 532.284 677.783 538.196C677.597 535.905 677.596 534.243 677.856 533.246C680.405 527.297 684.507 522.123 689.642 518.17C687.093 514.66 683.62 511.853 678.928 510.264C671.02 507.53 662.376 509.562 655.577 514.439C650.551 518.023 646.264 522.64 642.866 527.887Z" fill="#421669"/>
<path d="M642.866 527.887C649.258 524.081 656.944 522.715 664.038 525.154C670.837 527.482 675.086 532.284 677.783 538.196C677.597 535.905 677.596 534.243 677.856 533.246C680.405 527.297 684.507 522.123 689.642 518.17C687.093 514.66 683.62 511.853 678.928 510.264C671.02 507.53 662.376 509.562 655.577 514.439C650.551 518.023 646.264 522.64 642.866 527.887Z" stroke="#421669" stroke-width="18" stroke-linecap="round" stroke-linejoin="round"/>
<path d="M618.073 843.03C638.986 848.499 660.158 849.867 681.478 850.199C704.608 850.568 727.886 849.718 751.053 851.565C793.398 854.965 837.257 844.84 884.331 842.511" stroke="#421669" stroke-width="18" stroke-linecap="round" stroke-linejoin="round"/>
<path d="M871.887 741.978C866.814 739.865 861.048 739.448 855.723 740.807" stroke="#421669" stroke-width="18" stroke-linecap="round" stroke-linejoin="round"/>
<path d="M859.357 627.806C855.724 627.671 852.09 627.537 848.459 627.402" stroke="#421669" stroke-width="18" stroke-linecap="round" stroke-linejoin="round"/>
<path d="M804.114 704.828C799.795 701.564 793.622 700.964 788.754 703.331" stroke="#421669" stroke-width="18" stroke-linecap="round" stroke-linejoin="round"/>
<path d="M736.041 692.739C729.924 688.981 721.328 689.881 716.121 694.822" stroke="#421669" stroke-width="18" stroke-linecap="round" stroke-linejoin="round"/>
<path d="M727.792 570.08C722.542 567.915 716.183 568.7 711.618 572.079" stroke="#421669" stroke-width="18" stroke-linecap="round" stroke-linejoin="round"/>
<path d="M798.576 585.79C795.124 582.781 790.184 582.462 786.014 584.975" stroke="#421669" stroke-width="18" stroke-linecap="round" stroke-linejoin="round"/>
<path d="M655.923 698.068C651.545 695.162 644.989 696.259 641.797 700.434" stroke="#421669" stroke-width="18" stroke-linecap="round" stroke-linejoin="round"/>
<path d="M660.309 585.688C655.37 584.23 650.136 583.768 645.017 584.338" stroke="#421669" stroke-width="18" stroke-linecap="round" stroke-linejoin="round"/>
<path d="M784.681 995.923C753.872 997.924 723.063 999.926 692.253 1001.93" stroke="#421669" stroke-width="18" stroke-linecap="round" stroke-linejoin="round"/>
<path d="M667.799 1002.21C666.515 1002.07 665.232 1001.93 663.947 1001.78" stroke="#421669" stroke-width="18" stroke-linecap="round" stroke-linejoin="round"/>
<path d="M829.544 888.686H824.532" stroke="#421669" stroke-width="18" stroke-linecap="round" stroke-linejoin="round"/>
<path d="M795.095 889.907C767.112 890.271 739.127 890.636 711.143 891.002" stroke="#421669" stroke-width="18" stroke-linecap="round" stroke-linejoin="round"/>
</g>
</g>
<defs>
<clipPath id="clip0_430_50">
<rect width="1080" height="1080" fill="white"/>
</clipPath>
</defs>
</svg>
