<svg width="1080" height="1080" viewBox="0 0 1080 1080" fill="none" xmlns="http://www.w3.org/2000/svg">
<g clip-path="url(#clip0_430_183)">
<mask id="mask0_430_183" style="mask-type:luminance" maskUnits="userSpaceOnUse" x="0" y="0" width="1080" height="1080">
<path d="M1080 0H0V1080H1080V0Z" fill="white"/>
</mask>
<g mask="url(#mask0_430_183)">
<path d="M794.43 803.58C767.728 834.396 761.294 843.222 735.34 865.137C717.389 880.246 690.763 878.974 674.308 862.144C550.595 735.59 493.152 675.23 369.365 548.601C360.164 539.177 356.873 525.19 361.884 512.998C363.754 508.585 365.7 504.172 367.942 500.058C374.599 498.637 381.181 495.645 386.791 492.13C408.782 478.442 425.311 456.452 433.24 431.77C434.735 431.246 436.23 430.573 437.651 429.825C441.84 427.581 446.254 425.487 450.742 423.468C463.83 417.634 479.163 420.326 489.186 430.573C612.375 556.603 669.444 616.516 792.632 742.697C809.014 759.45 809.688 785.928 794.43 803.58Z" fill="#421669"/>
<path d="M794.43 803.58C767.728 834.396 761.294 843.222 735.34 865.137C717.389 880.246 690.763 878.974 674.308 862.144C550.595 735.59 493.152 675.23 369.365 548.601C360.164 539.177 356.873 525.19 361.884 512.998C363.754 508.585 365.7 504.172 367.942 500.058C374.599 498.637 381.181 495.645 386.791 492.13C408.782 478.442 425.311 456.452 433.24 431.77C434.735 431.246 436.23 430.573 437.651 429.825C441.84 427.581 446.254 425.487 450.742 423.468C463.83 417.634 479.163 420.326 489.186 430.573C612.375 556.603 669.444 616.516 792.632 742.697C809.014 759.45 809.688 785.928 794.43 803.58Z" stroke="#421669" stroke-width="18" stroke-linecap="round" stroke-linejoin="round"/>
<path d="M798.121 776.821C771.419 807.636 764.986 816.463 739.032 838.378C721.081 853.487 694.454 852.215 677.999 835.385C554.286 708.832 496.843 648.47 373.056 521.842C363.856 512.418 360.565 498.431 365.576 486.238C367.446 481.826 369.391 477.413 371.634 473.299C378.291 471.878 384.873 468.885 390.483 465.371C412.473 451.683 429.003 429.693 436.931 405.01C438.427 404.487 439.923 403.814 441.344 403.066C445.533 400.821 449.946 398.728 454.433 396.709C467.522 390.875 482.855 393.567 492.878 403.814C616.067 529.844 673.136 589.757 796.325 715.937C812.706 732.692 813.379 759.169 798.121 776.821Z" fill="white"/>
<path d="M798.121 776.821C771.419 807.636 764.986 816.463 739.032 838.378C721.081 853.487 694.454 852.215 677.999 835.385C554.286 708.832 496.843 648.47 373.056 521.842C363.856 512.418 360.565 498.431 365.576 486.238C367.446 481.826 369.391 477.413 371.634 473.299C378.291 471.878 384.873 468.885 390.483 465.371C412.473 451.683 429.003 429.693 436.931 405.01C438.427 404.487 439.923 403.814 441.344 403.066C445.533 400.821 449.946 398.728 454.433 396.709C467.522 390.875 482.855 393.567 492.878 403.814C616.067 529.844 673.136 589.757 796.325 715.937C812.706 732.692 813.379 759.169 798.121 776.821Z" stroke="#421669" stroke-width="18" stroke-linecap="round" stroke-linejoin="round"/>
<path d="M436.924 404.958C428.966 429.652 412.465 451.653 390.463 465.345C384.846 468.856 378.292 471.899 371.622 473.303C371.856 472.601 372.207 472.016 372.558 471.314C379.814 457.505 377.005 440.769 365.887 430.002C300.117 367.158 267.33 337.414 201.56 274.686L235.382 240.865C301.737 304.061 334.757 334.273 401.113 397.586C410.826 406.714 424.752 409.522 436.924 404.958Z" fill="#421669"/>
<path d="M436.924 404.958C428.966 429.652 412.465 451.653 390.463 465.345C384.846 468.856 378.292 471.899 371.622 473.303C371.856 472.601 372.207 472.016 372.558 471.314C379.814 457.505 377.005 440.769 365.887 430.002C300.117 367.158 267.33 337.414 201.56 274.686L235.382 240.865C301.737 304.061 334.757 334.273 401.113 397.586C410.826 406.714 424.752 409.522 436.924 404.958Z" stroke="#421669" stroke-width="18" stroke-linecap="round" stroke-linejoin="round"/>
<path d="M240.665 210.751C240.747 210.846 240.828 210.941 240.91 211.036C247.263 218.384 246.841 229.407 239.973 236.275L197.925 278.322C190.3 285.947 177.808 285.482 170.765 277.317C170.683 277.222 170.601 277.127 170.52 277.032C164.178 269.68 164.587 258.675 171.453 251.809L213.501 209.762C221.122 202.142 233.615 202.597 240.665 210.751Z" fill="white"/>
<path d="M240.665 210.751C240.747 210.846 240.828 210.941 240.91 211.036C247.263 218.384 246.841 229.407 239.973 236.275L197.925 278.322C190.3 285.947 177.808 285.482 170.765 277.317C170.683 277.222 170.601 277.127 170.52 277.032C164.178 269.68 164.587 258.675 171.453 251.809L213.501 209.762C221.122 202.142 233.615 202.597 240.665 210.751Z" stroke="#421669" stroke-width="18" stroke-linecap="round" stroke-linejoin="round"/>
<path d="M503.603 593.861C525.005 614.748 546.407 635.633 567.809 656.521" stroke="#421669" stroke-width="18" stroke-linecap="round" stroke-linejoin="round"/>
<path d="M597.133 692.639C600.103 694.61 603.073 696.58 606.043 698.549" stroke="#421669" stroke-width="18" stroke-linecap="round" stroke-linejoin="round"/>
</g>
</g>
<defs>
<clipPath id="clip0_430_183">
<rect width="1080" height="1080" fill="white"/>
</clipPath>
</defs>
</svg>
