<?xml version="1.0" encoding="UTF-8"?>
<svg xmlns="http://www.w3.org/2000/svg" xmlns:xlink="http://www.w3.org/1999/xlink" width="26px" height="26px" viewBox="0 0 26 26" version="1.1">
<g id="surface1">
<path style=" stroke:none;fill-rule:nonzero;fill:rgb(0%,0%,0%);fill-opacity:1;" d="M 8.851562 5.628906 C 8.917969 5.628906 8.984375 5.628906 9.054688 5.628906 C 9.125 5.628906 9.199219 5.628906 9.273438 5.628906 C 9.351562 5.628906 9.425781 5.628906 9.503906 5.625 C 9.757812 5.625 10.011719 5.625 10.265625 5.625 C 10.351562 5.625 10.4375 5.625 10.527344 5.625 C 10.9375 5.621094 11.347656 5.621094 11.757812 5.621094 C 12.230469 5.621094 12.707031 5.621094 13.179688 5.617188 C 13.546875 5.617188 13.910156 5.617188 14.277344 5.617188 C 14.496094 5.617188 14.714844 5.613281 14.933594 5.613281 C 15.140625 5.613281 15.34375 5.613281 15.550781 5.613281 C 15.625 5.613281 15.699219 5.613281 15.777344 5.613281 C 16.355469 5.605469 16.84375 5.683594 17.316406 6.042969 C 17.355469 6.074219 17.398438 6.101562 17.4375 6.132812 C 17.933594 6.558594 18.257812 7.273438 18.597656 7.824219 C 18.878906 8.28125 19.164062 8.738281 19.449219 9.191406 C 19.492188 9.257812 19.492188 9.257812 19.535156 9.328125 C 19.609375 9.449219 19.6875 9.570312 19.761719 9.691406 C 19.796875 9.742188 19.796875 9.742188 19.832031 9.796875 C 19.941406 9.96875 20.035156 10.101562 20.210938 10.207031 C 20.363281 10.230469 20.363281 10.230469 20.539062 10.226562 C 20.605469 10.226562 20.671875 10.226562 20.738281 10.226562 C 20.792969 10.226562 20.792969 10.226562 20.847656 10.226562 C 20.957031 10.226562 21.070312 10.226562 21.179688 10.226562 C 21.5 10.230469 21.816406 10.230469 22.132812 10.230469 C 22.328125 10.230469 22.519531 10.230469 22.714844 10.230469 C 22.824219 10.230469 22.933594 10.230469 23.042969 10.230469 C 23.464844 10.230469 23.890625 10.25 24.21875 10.550781 C 24.472656 10.828125 24.550781 11.054688 24.542969 11.429688 C 24.507812 11.78125 24.386719 12.046875 24.125 12.289062 C 23.722656 12.605469 23.269531 12.601562 22.777344 12.601562 C 22.714844 12.601562 22.714844 12.601562 22.652344 12.601562 C 22.519531 12.601562 22.386719 12.601562 22.257812 12.601562 C 22.164062 12.601562 22.070312 12.601562 21.976562 12.601562 C 21.785156 12.601562 21.589844 12.601562 21.398438 12.601562 C 21.148438 12.601562 20.902344 12.605469 20.65625 12.605469 C 20.464844 12.605469 20.273438 12.605469 20.082031 12.605469 C 19.988281 12.605469 19.898438 12.605469 19.808594 12.605469 C 19.679688 12.605469 19.550781 12.605469 19.421875 12.605469 C 19.386719 12.605469 19.351562 12.605469 19.3125 12.605469 C 18.808594 12.605469 18.441406 12.496094 18.078125 12.136719 C 17.945312 11.972656 17.828125 11.800781 17.714844 11.621094 C 17.667969 11.546875 17.667969 11.546875 17.621094 11.472656 C 17.519531 11.320312 17.421875 11.164062 17.324219 11.011719 C 17.222656 10.855469 17.121094 10.699219 17.023438 10.546875 C 16.960938 10.449219 16.898438 10.351562 16.835938 10.257812 C 16.792969 10.191406 16.792969 10.191406 16.75 10.125 C 16.714844 10.066406 16.714844 10.066406 16.675781 10.007812 C 16.605469 9.902344 16.53125 9.800781 16.453125 9.699219 C 16.324219 9.71875 16.265625 9.730469 16.179688 9.835938 C 16.160156 9.871094 16.136719 9.910156 16.117188 9.949219 C 16.089844 9.988281 16.066406 10.03125 16.042969 10.078125 C 16.015625 10.125 15.988281 10.171875 15.960938 10.21875 C 15.902344 10.324219 15.84375 10.425781 15.785156 10.527344 C 15.753906 10.582031 15.722656 10.636719 15.6875 10.695312 C 15.535156 10.960938 15.378906 11.226562 15.226562 11.488281 C 15.132812 11.644531 15.042969 11.800781 14.953125 11.953125 C 14.816406 12.1875 14.679688 12.417969 14.542969 12.652344 C 14.460938 12.789062 14.382812 12.925781 14.300781 13.058594 C 14.265625 13.125 14.226562 13.191406 14.1875 13.253906 C 14.132812 13.347656 14.078125 13.4375 14.027344 13.527344 C 13.996094 13.578125 13.964844 13.628906 13.933594 13.683594 C 13.859375 13.8125 13.859375 13.8125 13.8125 13.964844 C 13.964844 14.074219 14.121094 14.179688 14.273438 14.289062 C 14.316406 14.316406 14.355469 14.347656 14.398438 14.378906 C 14.726562 14.609375 15.058594 14.828125 15.390625 15.050781 C 15.691406 15.25 15.992188 15.453125 16.292969 15.65625 C 16.363281 15.703125 16.429688 15.75 16.5 15.796875 C 18.027344 16.824219 18.027344 16.824219 18.179688 17.519531 C 18.257812 18.191406 18.160156 18.796875 17.738281 19.339844 C 17.402344 19.65625 17.035156 19.820312 16.601562 19.953125 C 16.542969 19.972656 16.488281 19.992188 16.429688 20.011719 C 16.257812 20.066406 16.085938 20.121094 15.914062 20.171875 C 15.785156 20.214844 15.652344 20.253906 15.523438 20.296875 C 14.800781 20.523438 14.078125 20.75 13.355469 20.972656 C 13.304688 20.988281 13.253906 21.003906 13.203125 21.019531 C 12.878906 21.121094 12.550781 21.222656 12.226562 21.320312 C 12.183594 21.335938 12.140625 21.347656 12.097656 21.359375 C 11.980469 21.398438 11.859375 21.433594 11.742188 21.46875 C 11.707031 21.480469 11.671875 21.492188 11.636719 21.503906 C 11.191406 21.640625 10.84375 21.691406 10.410156 21.480469 C 10.109375 21.296875 9.992188 21.027344 9.910156 20.691406 C 9.898438 20.382812 9.960938 20.09375 10.15625 19.84375 C 10.289062 19.722656 10.4375 19.644531 10.59375 19.5625 C 10.628906 19.546875 10.660156 19.527344 10.695312 19.511719 C 11.050781 19.328125 11.414062 19.167969 11.777344 19.007812 C 11.976562 18.921875 12.175781 18.832031 12.375 18.746094 C 12.414062 18.726562 12.453125 18.710938 12.492188 18.691406 C 12.886719 18.519531 13.277344 18.339844 13.667969 18.15625 C 13.730469 18.128906 13.789062 18.101562 13.851562 18.074219 C 14.101562 17.972656 14.101562 17.972656 14.320312 17.824219 C 14.292969 17.808594 14.265625 17.792969 14.234375 17.777344 C 13.550781 17.40625 12.867188 17.027344 12.1875 16.640625 C 11.917969 16.488281 11.648438 16.335938 11.378906 16.183594 C 11.28125 16.128906 11.179688 16.070312 11.082031 16.015625 C 11.039062 15.992188 11 15.96875 10.957031 15.945312 C 10.925781 15.929688 10.898438 15.910156 10.867188 15.894531 C 10.640625 16.144531 10.429688 16.402344 10.230469 16.675781 C 10.007812 16.972656 9.785156 17.265625 9.554688 17.558594 C 9.304688 17.878906 9.054688 18.207031 8.8125 18.535156 C 8.539062 18.902344 8.261719 19.261719 7.980469 19.621094 C 7.695312 19.988281 7.414062 20.355469 7.132812 20.722656 C 7.023438 20.867188 6.914062 21.007812 6.804688 21.148438 C 6.5 21.546875 6.195312 21.945312 5.890625 22.34375 C 5.542969 22.800781 5.195312 23.253906 4.84375 23.710938 C 4.761719 23.8125 4.683594 23.917969 4.601562 24.023438 C 4.5 24.160156 4.394531 24.296875 4.289062 24.433594 C 4.234375 24.5 4.183594 24.570312 4.128906 24.640625 C 4.035156 24.757812 3.941406 24.878906 3.851562 25 C 3.820312 25.039062 3.792969 25.074219 3.761719 25.113281 C 3.148438 25.90625 3.148438 25.90625 2.792969 26 C 2.476562 26.039062 2.199219 26.027344 1.917969 25.867188 C 1.679688 25.679688 1.511719 25.429688 1.453125 25.128906 C 1.410156 24.628906 1.671875 24.269531 1.929688 23.867188 C 1.957031 23.824219 1.988281 23.777344 2.015625 23.730469 C 2.179688 23.484375 2.339844 23.234375 2.503906 22.988281 C 2.667969 22.734375 2.828125 22.480469 2.984375 22.222656 C 3.175781 21.902344 3.378906 21.585938 3.582031 21.269531 C 3.753906 21.007812 3.925781 20.742188 4.09375 20.476562 C 4.515625 19.8125 4.949219 19.152344 5.378906 18.492188 C 5.542969 18.242188 5.707031 17.988281 5.871094 17.738281 C 5.902344 17.691406 5.933594 17.644531 5.964844 17.59375 C 6.027344 17.5 6.089844 17.402344 6.152344 17.308594 C 6.246094 17.160156 6.34375 17.015625 6.441406 16.867188 C 6.742188 16.402344 7.046875 15.9375 7.351562 15.46875 C 7.378906 15.425781 7.40625 15.386719 7.433594 15.34375 C 7.558594 15.148438 7.6875 14.949219 7.816406 14.753906 C 7.839844 14.714844 7.863281 14.679688 7.886719 14.640625 C 7.933594 14.570312 7.980469 14.496094 8.023438 14.425781 C 8.132812 14.253906 8.246094 14.089844 8.371094 13.933594 C 8.722656 13.476562 8.789062 13.105469 8.820312 12.535156 C 8.855469 11.90625 9.179688 11.394531 9.496094 10.867188 C 9.523438 10.820312 9.550781 10.777344 9.578125 10.730469 C 9.839844 10.289062 10.105469 9.847656 10.371094 9.410156 C 10.464844 9.253906 10.558594 9.097656 10.652344 8.941406 C 10.691406 8.882812 10.726562 8.824219 10.761719 8.761719 C 10.8125 8.679688 10.863281 8.59375 10.914062 8.511719 C 10.941406 8.464844 10.972656 8.417969 11.003906 8.367188 C 11.074219 8.214844 11.101562 8.085938 11.121094 7.921875 C 10.820312 7.914062 10.523438 7.910156 10.222656 7.90625 C 10.121094 7.90625 10.019531 7.90625 9.917969 7.902344 C 9.773438 7.898438 9.625 7.898438 9.480469 7.898438 C 9.433594 7.894531 9.390625 7.894531 9.34375 7.894531 C 9.121094 7.894531 9.019531 7.894531 8.839844 8.035156 C 8.789062 8.105469 8.789062 8.105469 8.734375 8.175781 C 8.703125 8.210938 8.671875 8.25 8.640625 8.289062 C 8.613281 8.324219 8.585938 8.363281 8.558594 8.398438 C 8.507812 8.464844 8.507812 8.464844 8.460938 8.527344 C 8.425781 8.574219 8.390625 8.617188 8.355469 8.664062 C 8.320312 8.710938 8.285156 8.757812 8.25 8.808594 C 7.988281 9.152344 7.730469 9.503906 7.472656 9.851562 C 7.183594 10.25 6.878906 10.636719 6.574219 11.023438 C 6.507812 11.109375 6.445312 11.195312 6.382812 11.28125 C 6.109375 11.640625 5.785156 11.9375 5.332031 12.035156 C 5.03125 12.070312 4.816406 12.003906 4.570312 11.832031 C 4.328125 11.601562 4.210938 11.410156 4.191406 11.074219 C 4.199219 10.519531 4.546875 10.097656 4.878906 9.683594 C 5.050781 9.46875 5.210938 9.25 5.371094 9.03125 C 5.398438 8.992188 5.429688 8.949219 5.460938 8.910156 C 5.582031 8.742188 5.703125 8.578125 5.828125 8.410156 C 6.171875 7.9375 6.523438 7.464844 6.878906 7 C 6.910156 6.953125 6.945312 6.910156 6.976562 6.867188 C 7.480469 6.203125 7.960938 5.632812 8.851562 5.628906 Z M 8.851562 5.628906 "/>
<path style=" stroke:none;fill-rule:nonzero;fill:rgb(0%,0%,0%);fill-opacity:1;" d="M 18.632812 0.351562 C 18.804688 0.476562 18.953125 0.605469 19.09375 0.761719 C 19.117188 0.785156 19.144531 0.8125 19.167969 0.835938 C 19.578125 1.277344 19.746094 1.84375 19.765625 2.4375 C 19.738281 3.199219 19.4375 3.789062 18.890625 4.316406 C 18.335938 4.828125 17.644531 4.914062 16.921875 4.882812 C 16.347656 4.839844 15.8125 4.511719 15.421875 4.105469 C 14.9375 3.519531 14.777344 2.875 14.820312 2.132812 C 14.882812 1.460938 15.246094 0.886719 15.75 0.457031 C 16.597656 -0.144531 17.75 -0.207031 18.632812 0.351562 Z M 18.632812 0.351562 "/>
</g>
</svg>
