<svg width="1080" height="1080" viewBox="0 0 1080 1080" fill="none" xmlns="http://www.w3.org/2000/svg">
<g clip-path="url(#clip0_437_1141)">
<mask id="mask0_437_1141" style="mask-type:luminance" maskUnits="userSpaceOnUse" x="0" y="0" width="1080" height="1080">
<path d="M1080 0H0V1080H1080V0Z" fill="white"/>
</mask>
<g mask="url(#mask0_437_1141)">
<path d="M469.565 405.96C488.548 399.754 518.887 363.474 537.87 357.267C547.191 354.22 557.922 351.303 566.326 356.358C571.68 359.578 574.946 365.658 575.636 371.868C576.326 378.078 574.667 384.376 571.893 389.975C567.676 398.485 561.02 405.502 554.399 412.311C516.575 451.206 502.865 488.808 460.896 523.189" fill="white"/>
<path d="M469.565 405.96C488.548 399.754 518.887 363.474 537.87 357.267C547.191 354.22 557.922 351.303 566.326 356.358C571.68 359.578 574.946 365.658 575.636 371.868C576.326 378.078 574.667 384.376 571.893 389.975C567.676 398.485 561.02 405.502 554.399 412.311C516.575 451.206 502.865 488.808 460.896 523.189" stroke="black" stroke-width="18" stroke-linecap="round" stroke-linejoin="round"/>
<path d="M448.277 553.19C450.657 581.797 453.037 610.406 455.417 639.012C456.16 647.941 456.748 657.567 452.053 665.199C447.871 671.996 440.095 675.928 432.238 677.328C424.381 678.726 416.32 677.921 408.373 677.189C383.934 674.937 359.429 673.411 334.9 672.612C304.528 671.625 275.409 668.868 245.607 667.924C231.871 667.49 221.856 655.061 224.135 641.508C228.758 614.02 229.87 585.943 227.399 558.178" fill="white"/>
<path d="M448.277 553.19C450.657 581.797 453.037 610.406 455.417 639.012C456.16 647.941 456.748 657.567 452.053 665.199C447.871 671.996 440.095 675.928 432.238 677.328C424.381 678.726 416.32 677.921 408.373 677.189C383.934 674.937 359.429 673.411 334.9 672.612C304.528 671.625 275.409 668.868 245.607 667.924C231.871 667.49 221.856 655.061 224.135 641.508C228.758 614.02 229.87 585.943 227.399 558.178" stroke="black" stroke-width="18" stroke-linecap="round" stroke-linejoin="round"/>
<path d="M385.517 157.858C380.085 154.717 373.915 152.87 367.633 152.722C352.927 152.353 338.369 161.183 331.94 174.411C331.386 175.556 330.905 176.702 330.462 177.847L330.573 177.33C306.26 167.908 277.846 183.279 264.36 205.596C259.556 213.54 256.231 222.112 253.903 231.054L250.43 224.773C236.278 219.933 220.205 227.249 210.746 238.777C201.25 250.305 197.038 265.233 193.786 279.791C174.646 365.994 181.334 457.702 212.445 540.284C215.401 548.191 221.165 554.472 228.333 558.13L227.409 558.167C229.885 585.953 228.739 614.033 224.12 641.524C223.492 645.182 223.787 648.767 224.822 652.056C214.255 648.841 207.308 638.126 209.229 626.635C213.848 599.145 214.993 571.063 212.518 543.276L213.442 543.239C206.274 539.582 200.51 533.301 197.554 525.393C166.443 442.811 159.755 351.103 178.895 264.9C182.147 250.342 186.359 235.414 195.855 223.886C205.314 212.358 221.387 205.042 235.539 209.882L239.012 216.163C241.34 207.221 244.665 198.649 249.469 190.705C262.956 168.388 291.37 153.017 315.682 162.439L315.571 162.956C316.014 161.811 316.495 160.665 317.049 159.52C323.478 146.292 338.036 137.461 352.742 137.83C366.119 138.164 379.051 146.182 385.517 157.858Z" fill="black"/>
<path d="M385.517 157.858C380.085 154.717 373.915 152.87 367.633 152.722C352.927 152.353 338.369 161.183 331.94 174.411C331.386 175.556 330.905 176.702 330.462 177.847L330.573 177.33C306.26 167.908 277.846 183.279 264.36 205.596C259.556 213.54 256.231 222.112 253.903 231.054L250.43 224.773C236.278 219.933 220.205 227.249 210.746 238.777C201.25 250.305 197.038 265.233 193.786 279.791C174.646 365.994 181.334 457.702 212.445 540.284C215.401 548.191 221.165 554.472 228.333 558.13L227.409 558.167C229.885 585.953 228.739 614.033 224.12 641.524C223.492 645.182 223.787 648.767 224.822 652.056C214.255 648.841 207.308 638.126 209.229 626.635C213.848 599.145 214.993 571.063 212.518 543.276L213.442 543.239C206.274 539.582 200.51 533.301 197.554 525.393C166.443 442.811 159.755 351.103 178.895 264.9C182.147 250.342 186.359 235.414 195.855 223.886C205.314 212.358 221.387 205.042 235.539 209.882L239.012 216.163C241.34 207.221 244.665 198.649 249.469 190.705C262.956 168.388 291.37 153.017 315.682 162.439L315.571 162.956C316.014 161.811 316.495 160.665 317.049 159.52C323.478 146.292 338.036 137.461 352.742 137.83C366.119 138.164 379.051 146.182 385.517 157.858Z" stroke="black" stroke-width="18" stroke-linecap="round" stroke-linejoin="round"/>
<path d="M458.722 531.554C457.656 547.198 445.639 559.783 430.067 561.845C392.381 566.893 352.918 565.684 315.446 563.908C291.128 562.769 266.668 562.485 242.279 561.774C228.84 561.347 217.179 552.815 212.415 540.3C181.342 457.676 174.658 366.022 193.785 279.772C197.056 265.195 201.251 250.333 210.708 238.814C220.236 227.224 236.306 219.9 250.384 224.735L257.139 220.754C259.059 215.492 261.476 210.443 264.392 205.608C277.76 183.423 305.917 168.136 330.093 177.166C330.377 176.242 330.804 175.318 331.23 174.393C337.701 161.167 352.206 152.351 366.925 152.707C381.644 153.134 395.722 162.661 401.482 176.171L405.535 175.744C408.024 172.402 411.437 169.7 415.988 168.136C423.881 165.363 432.555 167.425 439.31 172.26C448.838 179.086 455.806 189.61 458.793 200.916C477.92 273.94 467.539 403.565 458.722 531.554Z" fill="white"/>
<path d="M458.722 531.554C457.656 547.198 445.639 559.783 430.067 561.845C392.381 566.893 352.918 565.684 315.446 563.908C291.128 562.769 266.668 562.485 242.279 561.774C228.84 561.347 217.179 552.815 212.415 540.3C181.342 457.676 174.658 366.022 193.785 279.772C197.056 265.195 201.251 250.333 210.708 238.814C220.236 227.224 236.306 219.9 250.384 224.735L257.139 220.754C259.059 215.492 261.476 210.443 264.392 205.608C277.76 183.423 305.917 168.136 330.093 177.166C330.377 176.242 330.804 175.318 331.23 174.393C337.701 161.167 352.206 152.351 366.925 152.707C381.644 153.134 395.722 162.661 401.482 176.171L405.535 175.744C408.024 172.402 411.437 169.7 415.988 168.136C423.881 165.363 432.555 167.425 439.31 172.26C448.838 179.086 455.806 189.61 458.793 200.916C477.92 273.94 467.539 403.565 458.722 531.554Z" stroke="black" stroke-width="18" stroke-linecap="round" stroke-linejoin="round"/>
<path d="M439.311 172.267C432.53 167.4 423.863 165.368 415.978 168.105C400.125 173.609 398.072 192.277 397.814 207.839C396.235 302.956 396.47 398.104 398.518 493.212" stroke="black" stroke-width="18" stroke-linecap="round" stroke-linejoin="round"/>
<path d="M271.897 492.972C255.205 423.76 247.313 352.431 248.47 281.244C248.894 255.17 250.877 227.925 264.366 205.608C277.855 183.29 306.256 167.91 330.571 177.336" stroke="black" stroke-width="18" stroke-linecap="round" stroke-linejoin="round"/>
<path d="M325.984 495.204C316.761 441.277 318.816 386.137 320.899 331.467C322.496 289.543 324.094 247.619 325.691 205.694C326.097 195.033 326.589 184.016 331.256 174.422C337.69 161.197 352.231 152.354 366.933 152.726C381.635 153.097 395.711 162.663 401.469 176.196" stroke="black" stroke-width="18" stroke-linecap="round" stroke-linejoin="round"/>
<path d="M437.135 170.827C430.743 167.021 423.057 165.655 415.963 168.094C409.164 170.422 404.915 175.224 402.218 181.136C402.403 178.845 402.403 177.183 402.144 176.186C399.594 170.237 395.493 165.063 390.357 161.11C392.906 157.6 396.38 154.793 401.072 153.204C408.979 150.47 417.625 152.502 424.424 157.379C429.45 160.962 433.736 165.58 437.135 170.827Z" fill="black"/>
<path d="M437.135 170.827C430.743 167.021 423.057 165.655 415.963 168.094C409.164 170.422 404.915 175.224 402.218 181.136C402.403 178.845 402.403 177.183 402.144 176.186C399.594 170.237 395.493 165.063 390.357 161.11C392.906 157.6 396.38 154.793 401.072 153.204C408.979 150.47 417.625 152.502 424.424 157.379C429.45 160.962 433.736 165.58 437.135 170.827Z" stroke="black" stroke-width="18" stroke-linecap="round" stroke-linejoin="round"/>
<path d="M195.671 485.452C242.745 487.78 286.604 497.904 328.948 494.505C352.115 492.658 375.393 493.507 398.524 493.138C419.844 492.805 441.016 491.438 461.929 485.97" stroke="black" stroke-width="18" stroke-linecap="round" stroke-linejoin="round"/>
<path d="M208.114 384.918C213.188 382.804 218.951 382.388 224.276 383.748" stroke="black" stroke-width="18" stroke-linecap="round" stroke-linejoin="round"/>
<path d="M220.643 270.747C224.275 270.612 227.909 270.478 231.541 270.343" stroke="black" stroke-width="18" stroke-linecap="round" stroke-linejoin="round"/>
<path d="M275.887 347.768C280.206 344.505 286.379 343.904 291.247 346.271" stroke="black" stroke-width="18" stroke-linecap="round" stroke-linejoin="round"/>
<path d="M343.959 335.679C350.076 331.922 358.672 332.821 363.879 337.762" stroke="black" stroke-width="18" stroke-linecap="round" stroke-linejoin="round"/>
<path d="M352.209 213.02C357.459 210.855 363.816 211.64 368.381 215.019" stroke="black" stroke-width="18" stroke-linecap="round" stroke-linejoin="round"/>
<path d="M281.424 228.729C284.876 225.72 289.814 225.399 293.984 227.913" stroke="black" stroke-width="18" stroke-linecap="round" stroke-linejoin="round"/>
<path d="M424.077 341.007C428.455 338.1 435.011 339.199 438.203 343.374" stroke="black" stroke-width="18" stroke-linecap="round" stroke-linejoin="round"/>
<path d="M419.69 228.629C424.63 227.171 429.863 226.709 434.982 227.279" stroke="black" stroke-width="18" stroke-linecap="round" stroke-linejoin="round"/>
<path d="M295.319 638.862C326.128 640.864 356.938 642.867 387.747 644.868" stroke="black" stroke-width="18" stroke-linecap="round" stroke-linejoin="round"/>
<path d="M412.202 645.149C413.486 645.006 414.77 644.865 416.054 644.721" stroke="black" stroke-width="18" stroke-linecap="round" stroke-linejoin="round"/>
<path d="M250.456 531.626H255.468" stroke="black" stroke-width="18" stroke-linecap="round" stroke-linejoin="round"/>
<path d="M284.905 532.846C312.889 533.211 340.873 533.577 368.857 533.942" stroke="black" stroke-width="18" stroke-linecap="round" stroke-linejoin="round"/>
</g>
<path d="M528.328 475.006C480.288 477.438 432.992 493.046 393.736 520.748C376.709 532.775 361.102 546.965 348.603 563.653C321.104 600.477 310.36 648.245 313.942 694.055C317.05 733.379 330.158 771.418 348.806 806.35C351.779 811.89 356.441 816.147 361.914 818.647C358.468 819.525 354.955 820.27 351.374 820.878C339.347 823.04 327.185 817.094 321.375 806.352C302.727 771.42 289.619 733.38 286.511 694.057C282.93 648.247 293.74 600.478 321.24 563.654C333.672 546.965 349.28 532.776 366.307 520.75C413.062 487.71 471.235 471.966 528.328 475.006Z" fill="black"/>
<path d="M528.328 475.006C480.288 477.438 432.992 493.046 393.736 520.748C376.709 532.775 361.102 546.965 348.603 563.653C321.104 600.477 310.36 648.245 313.942 694.055C317.05 733.379 330.158 771.418 348.806 806.35C351.779 811.89 356.441 816.147 361.914 818.647C358.468 819.525 354.955 820.27 351.374 820.878C339.347 823.04 327.185 817.094 321.375 806.352C302.727 771.42 289.619 733.38 286.511 694.057C282.93 648.247 293.74 600.478 321.24 563.654C333.672 546.965 349.28 532.776 366.307 520.75C413.062 487.71 471.235 471.966 528.328 475.006Z" stroke="black" stroke-width="18" stroke-linecap="round" stroke-linejoin="round"/>
<path d="M988.928 722.84C956.159 711.354 919.064 720.34 889.065 737.84C858.998 755.272 834.337 780.473 808.797 803.985C783.189 827.567 755.555 850.27 722.515 861.079C695.556 869.863 666.57 870.268 638.327 868.038C567.112 862.499 497.181 840.674 435.358 804.863C436.236 803.31 437.182 801.756 438.061 800.27C448.466 795.338 459.006 789.864 470.29 784.121C493.195 772.636 516.032 761.151 538.87 749.663C578.261 729.866 617.787 710.069 659.34 695.407C700.893 680.745 745.42 671.557 789.472 673.381C840.89 668.854 966.969 676.219 988.928 722.84Z" fill="white"/>
<path d="M988.928 722.84C956.159 711.354 919.064 720.34 889.065 737.84C858.998 755.272 834.337 780.473 808.797 803.985C783.189 827.567 755.555 850.27 722.515 861.079C695.556 869.863 666.57 870.268 638.327 868.038C567.112 862.499 497.181 840.674 435.358 804.863C436.236 803.31 437.182 801.756 438.061 800.27C448.466 795.338 459.006 789.864 470.29 784.121C493.195 772.636 516.032 761.151 538.87 749.663C578.261 729.866 617.787 710.069 659.34 695.407C700.893 680.745 745.42 671.557 789.472 673.381C840.89 668.854 966.969 676.219 988.928 722.84Z" stroke="black" stroke-width="18" stroke-linecap="round" stroke-linejoin="round"/>
<path d="M988.928 722.839C988.86 722.839 988.725 722.772 988.658 722.772V722.365C988.792 722.5 988.86 722.703 988.928 722.839Z" fill="white"/>
<path d="M988.928 722.839C988.86 722.839 988.725 722.772 988.658 722.772V722.365C988.792 722.5 988.86 722.703 988.928 722.839Z" stroke="black" stroke-width="18" stroke-linecap="round" stroke-linejoin="round"/>
<path d="M378.802 820.881C366.744 823.022 354.56 817.118 348.786 806.318C330.132 771.427 317.028 733.412 313.938 694.062C310.34 648.24 321.119 600.502 348.614 563.671C361.079 546.973 376.693 532.777 393.716 520.757C461.932 472.596 554.53 461.122 632.439 491.173C710.348 521.226 771.255 591.912 789.459 673.407C745.437 671.586 700.868 680.735 659.316 695.385C617.763 710.035 578.266 729.877 538.899 749.664C516.032 761.157 493.165 772.652 470.298 784.145C437.92 800.42 411.778 815.026 378.802 820.881Z" fill="white"/>
<path d="M378.802 820.881C366.744 823.022 354.56 817.118 348.786 806.318C330.132 771.427 317.028 733.412 313.938 694.062C310.34 648.24 321.119 600.502 348.614 563.671C361.079 546.973 376.693 532.777 393.716 520.757C461.932 472.596 554.53 461.122 632.439 491.173C710.348 521.226 771.255 591.912 789.459 673.407C745.437 671.586 700.868 680.735 659.316 695.385C617.763 710.035 578.266 729.877 538.899 749.664C516.032 761.157 493.165 772.652 470.298 784.145C437.92 800.42 411.778 815.026 378.802 820.881Z" stroke="black" stroke-width="18" stroke-linecap="round" stroke-linejoin="round"/>
<path d="M988.659 722.771C988.725 734.865 981.766 746.352 972.038 753.513C962.105 760.945 949.674 764.256 937.308 765.269C914.539 767.093 891.296 761.215 872.107 748.85C877.581 744.931 883.256 741.215 889.066 737.837C918.998 720.406 955.956 711.419 988.659 722.771Z" fill="black"/>
<path d="M988.659 722.771C988.725 734.865 981.766 746.352 972.038 753.513C962.105 760.945 949.674 764.256 937.308 765.269C914.539 767.093 891.296 761.215 872.107 748.85C877.581 744.931 883.256 741.215 889.066 737.837C918.998 720.406 955.956 711.419 988.659 722.771Z" stroke="black" stroke-width="18" stroke-linecap="round" stroke-linejoin="round"/>
<path d="M916.252 683.012C885.735 688.114 856.528 700.874 832.052 719.8C809.625 737.141 791.442 759.258 771.25 779.156C751.057 799.054 727.759 817.31 700.189 823.912C669.171 831.342 636.789 823.207 605.939 815.107C565.439 804.473 524.94 793.839 484.439 783.203" stroke="black" stroke-width="18" stroke-linecap="round" stroke-linejoin="round" stroke-dasharray="3.74 22.44"/>
<path d="M460.885 487.375C435.759 531.462 432.543 577.744 441.85 627.627C451.157 677.51 471.952 724.402 492.579 770.765" stroke="black" stroke-width="18" stroke-linecap="round" stroke-linejoin="round"/>
<path d="M503.077 472.586C502.541 453.807 481.336 436.727 455.971 444.718C430.541 452.73 425.509 477.746 430.846 495.6" fill="black"/>
<path d="M503.077 472.586C502.541 453.807 481.336 436.727 455.971 444.718C430.541 452.73 425.509 477.746 430.846 495.6" stroke="black" stroke-width="18" stroke-linecap="round" stroke-linejoin="round"/>
<path d="M545.703 514.173C597.344 508.385 651.271 530.125 684.459 570.11" stroke="black" stroke-width="18" stroke-linecap="round" stroke-linejoin="round"/>
<path d="M702.601 597.128C703.88 599.868 705.161 602.61 706.439 605.35" stroke="black" stroke-width="18" stroke-linecap="round" stroke-linejoin="round"/>
</g>
<defs>
<clipPath id="clip0_437_1141">
<rect width="1080" height="1080" fill="white"/>
</clipPath>
</defs>
</svg>
