<svg width="1081" height="1080" viewBox="0 0 1081 1080" fill="none" xmlns="http://www.w3.org/2000/svg">
<g clip-path="url(#clip0_428_50)">
<mask id="mask0_428_50" style="mask-type:luminance" maskUnits="userSpaceOnUse" x="0" y="0" width="1081" height="1080">
<path d="M1080.82 0H0.822571V1080H1080.82V0Z" fill="white"/>
</mask>
<g mask="url(#mask0_428_50)">
<path d="M470.063 444.685C489.586 440.478 523.519 407.535 543.043 403.327C552.629 401.262 563.605 399.472 571.44 405.37C576.432 409.127 579.051 415.513 579.094 421.761C579.137 428.009 576.835 434.101 573.496 439.383C568.42 447.41 561.073 453.7 553.783 459.787C512.134 494.556 494.604 530.536 449.3 560.386" fill="white"/>
<path d="M470.063 444.685C489.586 440.478 523.519 407.535 543.043 403.327C552.629 401.262 563.605 399.472 571.44 405.37C576.432 409.127 579.051 415.513 579.094 421.761C579.137 428.009 576.835 434.101 573.496 439.383C568.42 447.41 561.073 453.7 553.783 459.787C512.134 494.556 494.604 530.536 449.3 560.386" stroke="black" stroke-width="18" stroke-linecap="round" stroke-linejoin="round"/>
<path d="M433.642 588.919C433.047 617.619 432.452 646.32 431.857 675.019C431.671 683.977 431.259 693.612 425.799 700.717C420.936 707.044 412.794 710.15 404.834 710.729C396.875 711.305 388.941 709.67 381.112 708.119C357.038 703.348 332.823 699.293 308.508 695.958C278.402 691.831 249.725 686.073 220.181 682.048C206.563 680.194 197.889 666.795 201.56 653.551C209.004 626.689 213.018 598.878 213.435 571.007" fill="white"/>
<path d="M433.642 588.919C433.047 617.619 432.452 646.32 431.857 675.019C431.671 683.977 431.259 693.612 425.799 700.717C420.936 707.044 412.794 710.15 404.834 710.729C396.875 711.305 388.941 709.67 381.112 708.119C357.038 703.348 332.823 699.293 308.508 695.958C278.402 691.831 249.725 686.073 220.181 682.048C206.563 680.194 197.889 666.795 201.56 653.551C209.004 626.689 213.018 598.878 213.435 571.007" stroke="black" stroke-width="18" stroke-linecap="round" stroke-linejoin="round"/>
<path d="M412.159 189.213C407.082 185.527 401.136 183.051 394.903 182.253C380.314 180.363 364.92 187.638 357.156 200.129C356.486 201.21 355.889 202.3 355.33 203.393L355.494 202.891C332.287 191.002 302.434 203.348 286.71 224.148C281.109 231.552 276.914 239.733 273.673 248.386L270.869 241.779C257.294 235.5 240.55 241.112 229.948 251.598C219.309 262.081 213.574 276.493 208.832 290.636C180.868 374.393 178.023 466.301 200.415 551.66C202.536 559.831 207.619 566.675 214.369 571.056L213.447 570.997C213.032 598.89 208.984 626.7 201.543 653.565C200.54 657.138 200.462 660.735 201.151 664.113C190.973 659.821 185.173 648.444 188.274 637.214C195.715 610.35 199.762 582.538 200.178 554.644L201.101 554.703C194.35 550.323 189.267 543.479 187.146 535.307C164.754 449.948 167.599 358.04 195.563 274.283C200.305 260.14 206.04 245.728 216.679 235.246C227.281 224.759 244.025 219.147 257.6 225.426L260.404 232.033C263.645 223.38 267.84 215.199 273.441 207.795C289.167 186.995 319.02 174.649 342.225 186.538L342.061 187.04C342.62 185.947 343.217 184.857 343.887 183.776C351.651 171.285 367.046 164.009 381.634 165.899C394.905 167.616 406.937 176.93 412.159 189.213Z" fill="black"/>
<path d="M412.159 189.213C407.082 185.527 401.136 183.051 394.903 182.253C380.314 180.363 364.92 187.638 357.156 200.129C356.486 201.21 355.889 202.3 355.33 203.393L355.494 202.891C332.287 191.002 302.434 203.348 286.71 224.148C281.109 231.552 276.914 239.733 273.673 248.386L270.869 241.779C257.294 235.5 240.55 241.112 229.948 251.598C219.309 262.081 213.574 276.493 208.832 290.636C180.868 374.393 178.023 466.301 200.415 551.66C202.536 559.831 207.619 566.675 214.369 571.056L213.447 570.997C213.032 598.89 208.984 626.7 201.543 653.565C200.54 657.138 200.462 660.735 201.151 664.113C190.973 659.821 185.173 648.444 188.274 637.214C195.715 610.35 199.762 582.538 200.178 554.644L201.101 554.703C194.35 550.323 189.267 543.479 187.146 535.307C164.754 449.948 167.599 358.04 195.563 274.283C200.305 260.14 206.04 245.728 216.679 235.246C227.281 224.759 244.025 219.147 257.6 225.426L260.404 232.033C263.645 223.38 267.84 215.199 273.441 207.795C289.167 186.995 319.02 174.649 342.225 186.538L342.061 187.04C342.62 185.947 343.217 184.857 343.887 183.776C351.651 171.285 367.046 164.009 381.634 165.899C394.905 167.616 406.937 176.93 412.159 189.213Z" stroke="black" stroke-width="18" stroke-linecap="round" stroke-linejoin="round"/>
<path d="M446.272 568.481C443.592 583.93 430.336 595.203 414.634 595.642C376.628 596.76 337.502 591.471 300.416 585.824C276.346 582.173 252.047 579.357 227.863 576.124C214.541 574.308 203.826 564.614 200.383 551.673C178.034 466.276 180.877 374.422 208.833 290.617C213.596 276.457 219.307 262.109 229.906 251.631C240.583 241.09 257.325 235.47 270.827 241.737L277.958 238.477C280.413 233.442 283.339 228.67 286.74 224.163C302.334 203.482 331.923 191.193 355.034 202.678C355.412 201.788 355.932 200.914 356.452 200.038C364.257 187.553 379.597 180.286 394.2 182.165C408.796 184.114 421.812 195.047 426.142 209.081L430.217 209.076C433.039 206.01 436.713 203.676 441.402 202.591C449.54 200.651 457.953 203.6 464.171 209.108C472.941 216.884 478.782 228.073 480.582 239.628C492.044 314.24 468.296 442.093 446.272 568.481Z" fill="white"/>
<path d="M446.272 568.481C443.592 583.93 430.336 595.203 414.634 595.642C376.628 596.76 337.502 591.471 300.416 585.824C276.346 582.173 252.047 579.357 227.863 576.124C214.541 574.308 203.826 564.614 200.383 551.673C178.034 466.276 180.877 374.422 208.833 290.617C213.596 276.457 219.307 262.109 229.906 251.631C240.583 241.09 257.325 235.47 270.827 241.737L277.958 238.477C280.413 233.442 283.339 228.67 286.74 224.163C302.334 203.482 331.923 191.193 355.034 202.678C355.412 201.788 355.932 200.914 356.452 200.038C364.257 187.553 379.597 180.286 394.2 182.165C408.796 184.114 421.812 195.047 426.142 209.081L430.217 209.076C433.039 206.01 436.713 203.676 441.402 202.591C449.54 200.651 457.953 203.6 464.171 209.108C472.941 216.884 478.782 228.073 480.582 239.628C492.044 314.24 468.296 442.093 446.272 568.481Z" stroke="black" stroke-width="18" stroke-linecap="round" stroke-linejoin="round"/>
<path d="M464.172 209.115C457.931 203.572 449.521 200.654 441.395 202.56C425.057 206.392 421.082 224.747 419.214 240.199C407.794 334.641 398.174 429.302 390.362 524.111" stroke="black" stroke-width="18" stroke-linecap="round" stroke-linejoin="round"/>
<path d="M264.447 510.759C255.012 440.191 254.549 368.428 263.071 297.744C266.193 271.854 270.987 244.961 286.715 224.161C302.442 203.359 332.283 191.003 355.491 202.896" stroke="black" stroke-width="18" stroke-linecap="round" stroke-linejoin="round"/>
<path d="M318.012 518.58C314.423 463.988 322.177 409.358 329.91 355.197C335.84 313.664 341.771 272.131 347.701 230.597C349.209 220.035 350.839 209.128 356.474 200.069C364.243 187.581 379.622 180.292 394.206 182.184C408.791 184.076 421.801 195.048 426.126 209.105" stroke="black" stroke-width="18" stroke-linecap="round" stroke-linejoin="round"/>
<path d="M462.156 207.458C456.193 203.01 448.69 200.856 441.381 202.547C434.378 204.158 429.654 208.495 426.36 214.096C426.781 211.836 426.953 210.183 426.799 209.164C424.878 202.983 421.335 197.413 416.636 192.949C419.535 189.722 423.281 187.29 428.112 186.195C436.26 184.295 444.649 187.211 450.906 192.766C455.534 196.85 459.319 201.887 462.156 207.458Z" fill="black"/>
<path d="M462.156 207.458C456.193 203.01 448.69 200.856 441.381 202.547C434.378 204.158 429.654 208.495 426.36 214.096C426.781 211.836 426.953 210.183 426.799 209.164C424.878 202.983 421.335 197.413 416.636 192.949C419.535 189.722 423.281 187.29 428.112 186.195C436.26 184.295 444.649 187.211 450.906 192.766C455.534 196.85 459.319 201.887 462.156 207.458Z" stroke="black" stroke-width="18" stroke-linecap="round" stroke-linejoin="round"/>
<path d="M189.409 495.386C235.989 502.576 278.564 517.188 321.032 518.192C344.266 518.754 367.331 522.009 390.376 524.038C411.616 525.914 432.815 526.747 454.182 523.474" stroke="black" stroke-width="18" stroke-linecap="round" stroke-linejoin="round"/>
<path d="M212.196 396.681C217.462 395.104 223.237 395.287 228.393 397.191" stroke="black" stroke-width="18" stroke-linecap="round" stroke-linejoin="round"/>
<path d="M236.481 284.421C240.108 284.663 243.736 284.906 247.362 285.148" stroke="black" stroke-width="18" stroke-linecap="round" stroke-linejoin="round"/>
<path d="M283.452 366.749C288.086 363.951 294.288 363.993 298.885 366.851" stroke="black" stroke-width="18" stroke-linecap="round" stroke-linejoin="round"/>
<path d="M352.41 361.775C358.883 358.671 367.34 360.456 372.007 365.909" stroke="black" stroke-width="18" stroke-linecap="round" stroke-linejoin="round"/>
<path d="M373.318 240.629C378.764 239.02 385.005 240.459 389.196 244.292" stroke="black" stroke-width="18" stroke-linecap="round" stroke-linejoin="round"/>
<path d="M301.287 248.924C305.032 246.288 309.976 246.48 313.864 249.413" stroke="black" stroke-width="18" stroke-linecap="round" stroke-linejoin="round"/>
<path d="M431.545 375.371C436.201 372.933 442.608 374.705 445.35 379.188" stroke="black" stroke-width="18" stroke-linecap="round" stroke-linejoin="round"/>
<path d="M438.82 263.143C443.884 262.204 449.137 262.286 454.169 263.383" stroke="black" stroke-width="18" stroke-linecap="round" stroke-linejoin="round"/>
<path d="M272.635 658.291C303.071 663.472 333.508 668.655 363.944 673.836" stroke="black" stroke-width="18" stroke-linecap="round" stroke-linejoin="round"/>
<path d="M388.238 676.648C389.53 676.638 390.822 676.631 392.114 676.621" stroke="black" stroke-width="18" stroke-linecap="round" stroke-linejoin="round"/>
<path d="M239.118 546.985L244.103 547.504" stroke="black" stroke-width="18" stroke-linecap="round" stroke-linejoin="round"/>
<path d="M273.256 551.766C301.051 555.027 328.847 558.289 356.643 561.55" stroke="black" stroke-width="18" stroke-linecap="round" stroke-linejoin="round"/>
</g>
<path d="M620.223 477.906C572.183 480.338 524.887 495.946 485.631 523.648C468.604 535.675 452.997 549.865 440.498 566.553C412.999 603.377 402.255 651.145 405.837 696.955C408.945 736.279 422.053 774.318 440.701 809.25C443.674 814.79 448.336 819.047 453.809 821.547C450.363 822.425 446.85 823.17 443.269 823.778C431.242 825.94 419.08 819.994 413.27 809.252C394.622 774.32 381.514 736.28 378.406 696.957C374.825 651.147 385.635 603.378 413.135 566.554C425.567 549.865 441.175 535.676 458.202 523.65C504.957 490.61 563.13 474.866 620.223 477.906Z" fill="black"/>
<path d="M620.223 477.906C572.183 480.338 524.887 495.946 485.631 523.648C468.604 535.675 452.997 549.865 440.498 566.553C412.999 603.377 402.255 651.145 405.837 696.955C408.945 736.279 422.053 774.318 440.701 809.25C443.674 814.79 448.336 819.047 453.809 821.547C450.363 822.425 446.85 823.17 443.269 823.778C431.242 825.94 419.08 819.994 413.27 809.252C394.622 774.32 381.514 736.28 378.406 696.957C374.825 651.147 385.635 603.378 413.135 566.554C425.567 549.865 441.175 535.676 458.202 523.65C504.957 490.61 563.13 474.866 620.223 477.906Z" stroke="black" stroke-width="18" stroke-linecap="round" stroke-linejoin="round"/>
<path d="M1080.82 725.741C1048.05 714.255 1010.96 723.241 980.96 740.741C950.893 758.173 926.232 783.374 900.692 806.886C875.084 830.468 847.45 853.171 814.41 863.98C787.451 872.764 758.465 873.169 730.222 870.939C659.007 865.4 589.076 843.575 527.253 807.764C528.131 806.211 529.077 804.657 529.956 803.171C540.361 798.239 550.901 792.765 562.185 787.022C585.09 775.537 607.927 764.052 630.765 752.564C670.156 732.767 709.682 712.97 751.235 698.308C792.788 683.646 837.315 674.458 881.367 676.282C932.785 671.755 1058.86 679.12 1080.82 725.741Z" fill="white"/>
<path d="M1080.82 725.741C1048.05 714.255 1010.96 723.241 980.96 740.741C950.893 758.173 926.232 783.374 900.692 806.886C875.084 830.468 847.45 853.171 814.41 863.98C787.451 872.764 758.465 873.169 730.222 870.939C659.007 865.4 589.076 843.575 527.253 807.764C528.131 806.211 529.077 804.657 529.956 803.171C540.361 798.239 550.901 792.765 562.185 787.022C585.09 775.537 607.927 764.052 630.765 752.564C670.156 732.767 709.682 712.97 751.235 698.308C792.788 683.646 837.315 674.458 881.367 676.282C932.785 671.755 1058.86 679.12 1080.82 725.741Z" stroke="black" stroke-width="18" stroke-linecap="round" stroke-linejoin="round"/>
<path d="M1080.82 725.74C1080.75 725.74 1080.62 725.673 1080.55 725.673V725.266C1080.69 725.401 1080.75 725.604 1080.82 725.74Z" fill="white"/>
<path d="M1080.82 725.74C1080.75 725.74 1080.62 725.673 1080.55 725.673V725.266C1080.69 725.401 1080.75 725.604 1080.82 725.74Z" stroke="black" stroke-width="18" stroke-linecap="round" stroke-linejoin="round"/>
<path d="M470.697 823.782C458.639 825.923 446.455 820.019 440.681 809.219C422.027 774.328 408.923 736.313 405.833 696.963C402.235 651.141 413.014 603.403 440.509 566.572C452.974 549.874 468.588 535.678 485.611 523.658C553.827 475.497 646.425 464.023 724.334 494.074C802.243 524.127 863.15 594.813 881.354 676.308C837.332 674.487 792.763 683.636 751.211 698.286C709.658 712.936 670.161 732.778 630.794 752.565C607.927 764.058 585.06 775.553 562.193 787.046C529.815 803.321 503.673 817.927 470.697 823.782Z" fill="white"/>
<path d="M470.697 823.782C458.639 825.923 446.455 820.019 440.681 809.219C422.027 774.328 408.923 736.313 405.833 696.963C402.235 651.141 413.014 603.403 440.509 566.572C452.974 549.874 468.588 535.678 485.611 523.658C553.827 475.497 646.425 464.023 724.334 494.074C802.243 524.127 863.15 594.813 881.354 676.308C837.332 674.487 792.763 683.636 751.211 698.286C709.658 712.936 670.161 732.778 630.794 752.565C607.927 764.058 585.06 775.553 562.193 787.046C529.815 803.321 503.673 817.927 470.697 823.782Z" stroke="black" stroke-width="18" stroke-linecap="round" stroke-linejoin="round"/>
<path d="M1080.55 725.672C1080.62 737.766 1073.66 749.253 1063.93 756.414C1054 763.846 1041.57 767.157 1029.2 768.17C1006.43 769.994 983.191 764.116 964.002 751.751C969.476 747.832 975.151 744.116 980.961 740.738C1010.89 723.307 1047.85 714.32 1080.55 725.672Z" fill="black"/>
<path d="M1080.55 725.672C1080.62 737.766 1073.66 749.253 1063.93 756.414C1054 763.846 1041.57 767.157 1029.2 768.17C1006.43 769.994 983.191 764.116 964.002 751.751C969.476 747.832 975.151 744.116 980.961 740.738C1010.89 723.307 1047.85 714.32 1080.55 725.672Z" stroke="black" stroke-width="18" stroke-linecap="round" stroke-linejoin="round"/>
<path d="M1008.15 685.912C977.63 691.014 948.423 703.774 923.947 722.7C901.52 740.041 883.337 762.158 863.145 782.056C842.952 801.954 819.654 820.21 792.084 826.812C761.066 834.242 728.684 826.107 697.834 818.007C657.334 807.373 616.835 796.739 576.334 786.103" stroke="black" stroke-width="18" stroke-linecap="round" stroke-linejoin="round" stroke-dasharray="3.74 22.44"/>
<path d="M552.78 490.275C527.654 534.362 524.438 580.644 533.745 630.527C543.052 680.41 563.847 727.302 584.474 773.665" stroke="black" stroke-width="18" stroke-linecap="round" stroke-linejoin="round"/>
<path d="M594.972 475.487C594.436 456.708 573.231 439.628 547.866 447.619C522.436 455.631 517.404 480.647 522.741 498.501" fill="black"/>
<path d="M594.972 475.487C594.436 456.708 573.231 439.628 547.866 447.619C522.436 455.631 517.404 480.647 522.741 498.501" stroke="black" stroke-width="18" stroke-linecap="round" stroke-linejoin="round"/>
<path d="M637.598 517.074C689.239 511.286 743.166 533.026 776.354 573.011" stroke="black" stroke-width="18" stroke-linecap="round" stroke-linejoin="round"/>
<path d="M794.496 600.029C795.775 602.769 797.056 605.511 798.334 608.251" stroke="black" stroke-width="18" stroke-linecap="round" stroke-linejoin="round"/>
</g>
<defs>
<clipPath id="clip0_428_50">
<rect width="1080" height="1080" fill="white" transform="translate(0.822571)"/>
</clipPath>
</defs>
</svg>
