<?xml version="1.0" encoding="UTF-8"?>
<svg xmlns="http://www.w3.org/2000/svg" xmlns:xlink="http://www.w3.org/1999/xlink" width="26px" height="26px" viewBox="0 0 26 26" version="1.1">
<g id="surface1">
<path style=" stroke:none;fill-rule:nonzero;fill:rgb(0%,0%,0%);fill-opacity:1;" d="M 2.539062 0.203125 C 2.847656 0.414062 3.109375 0.660156 3.375 0.925781 C 3.4375 0.984375 3.4375 0.984375 3.5 1.046875 C 3.636719 1.1875 3.773438 1.324219 3.910156 1.460938 C 4.007812 1.558594 4.105469 1.65625 4.207031 1.757812 C 4.417969 1.96875 4.628906 2.179688 4.839844 2.394531 C 5.148438 2.699219 5.453125 3.007812 5.757812 3.3125 C 6.257812 3.808594 6.753906 4.308594 7.25 4.804688 C 7.730469 5.289062 8.214844 5.769531 8.699219 6.253906 C 8.726562 6.285156 8.757812 6.3125 8.789062 6.34375 C 8.9375 6.496094 9.085938 6.644531 9.234375 6.792969 C 10.472656 8.03125 11.710938 9.273438 12.949219 10.511719 C 13.105469 10.441406 13.210938 10.363281 13.332031 10.242188 C 13.367188 10.207031 13.402344 10.171875 13.441406 10.136719 C 13.496094 10.078125 13.496094 10.078125 13.554688 10.019531 C 13.597656 9.976562 13.636719 9.9375 13.679688 9.894531 C 13.816406 9.757812 13.953125 9.617188 14.089844 9.480469 C 14.1875 9.382812 14.289062 9.28125 14.386719 9.183594 C 14.597656 8.972656 14.808594 8.757812 15.023438 8.546875 C 15.328125 8.238281 15.636719 7.929688 15.941406 7.621094 C 16.441406 7.121094 16.941406 6.621094 17.4375 6.121094 C 17.46875 6.089844 17.5 6.0625 17.527344 6.03125 C 17.953125 5.605469 18.375 5.179688 18.796875 4.753906 C 18.828125 4.726562 18.855469 4.695312 18.886719 4.664062 C 18.917969 4.636719 18.949219 4.605469 18.976562 4.574219 C 19.472656 4.074219 19.96875 3.578125 20.46875 3.082031 C 20.773438 2.773438 21.078125 2.464844 21.386719 2.160156 C 21.59375 1.949219 21.804688 1.738281 22.015625 1.527344 C 22.136719 1.40625 22.257812 1.285156 22.378906 1.164062 C 22.507812 1.03125 22.640625 0.898438 22.773438 0.765625 C 22.828125 0.710938 22.828125 0.710938 22.886719 0.652344 C 23.277344 0.265625 23.71875 -0.0117188 24.28125 -0.0195312 C 24.742188 -0.0117188 25.210938 0.125 25.542969 0.457031 C 25.957031 0.964844 26.042969 1.394531 26.011719 2.03125 C 25.953125 2.59375 25.453125 3.050781 25.074219 3.425781 C 25.015625 3.488281 25.015625 3.488281 24.953125 3.550781 C 24.8125 3.6875 24.675781 3.824219 24.539062 3.960938 C 24.441406 4.058594 24.34375 4.15625 24.242188 4.257812 C 24.03125 4.46875 23.820312 4.679688 23.605469 4.890625 C 23.300781 5.199219 22.992188 5.503906 22.6875 5.808594 C 22.191406 6.308594 21.691406 6.804688 21.195312 7.300781 C 20.710938 7.78125 20.230469 8.265625 19.746094 8.75 C 19.714844 8.777344 19.6875 8.808594 19.65625 8.839844 C 19.503906 8.988281 19.355469 9.136719 19.207031 9.285156 C 17.96875 10.523438 16.726562 11.761719 15.488281 13 C 15.714844 13.269531 15.953125 13.523438 16.203125 13.769531 C 16.265625 13.832031 16.265625 13.832031 16.328125 13.894531 C 16.460938 14.027344 16.597656 14.164062 16.734375 14.296875 C 16.828125 14.394531 16.925781 14.492188 17.023438 14.585938 C 17.207031 14.769531 17.386719 14.949219 17.570312 15.128906 C 17.929688 15.488281 18.285156 15.84375 18.644531 16.199219 C 18.699219 16.253906 18.753906 16.3125 18.8125 16.367188 C 18.898438 16.453125 18.984375 16.539062 19.066406 16.625 C 19.390625 16.945312 19.710938 17.265625 20.03125 17.585938 C 20.0625 17.613281 20.089844 17.644531 20.121094 17.675781 C 20.597656 18.148438 21.074219 18.621094 21.550781 19.097656 C 22.042969 19.585938 22.53125 20.070312 23.019531 20.558594 C 23.320312 20.859375 23.621094 21.160156 23.925781 21.460938 C 24.132812 21.667969 24.339844 21.875 24.546875 22.078125 C 24.664062 22.199219 24.785156 22.316406 24.902344 22.4375 C 25.03125 22.5625 25.160156 22.695312 25.289062 22.824219 C 25.328125 22.859375 25.367188 22.898438 25.40625 22.933594 C 25.835938 23.371094 26.019531 23.828125 26.023438 24.4375 C 26.011719 24.894531 25.835938 25.25 25.53125 25.589844 C 25.46875 25.644531 25.40625 25.695312 25.339844 25.746094 C 25.308594 25.773438 25.273438 25.796875 25.238281 25.824219 C 24.824219 26.085938 24.289062 26.058594 23.816406 26 C 23.050781 25.800781 22.386719 24.882812 21.847656 24.34375 C 21.753906 24.246094 21.65625 24.148438 21.558594 24.054688 C 21.355469 23.847656 21.148438 23.640625 20.941406 23.433594 C 20.644531 23.136719 20.34375 22.839844 20.046875 22.539062 C 19.5625 22.058594 19.082031 21.574219 18.597656 21.089844 C 18.128906 20.617188 17.65625 20.148438 17.1875 19.679688 C 17.144531 19.636719 17.144531 19.636719 17.101562 19.589844 C 16.957031 19.445312 16.808594 19.300781 16.664062 19.15625 C 15.460938 17.949219 14.253906 16.746094 13.050781 15.539062 C 12.894531 15.609375 12.789062 15.6875 12.667969 15.808594 C 12.632812 15.84375 12.597656 15.878906 12.5625 15.914062 C 12.503906 15.972656 12.503906 15.972656 12.445312 16.03125 C 12.40625 16.070312 12.367188 16.113281 12.324219 16.152344 C 12.1875 16.289062 12.050781 16.429688 11.914062 16.566406 C 11.816406 16.664062 11.71875 16.761719 11.621094 16.859375 C 11.410156 17.070312 11.199219 17.28125 10.988281 17.496094 C 10.683594 17.800781 10.378906 18.109375 10.074219 18.414062 C 9.578125 18.910156 9.082031 19.40625 8.585938 19.90625 C 8.554688 19.933594 8.527344 19.964844 8.496094 19.996094 C 8.074219 20.417969 7.65625 20.839844 7.234375 21.261719 C 7.207031 21.292969 7.175781 21.324219 7.144531 21.351562 C 7.101562 21.398438 7.101562 21.398438 7.054688 21.441406 C 6.5625 21.9375 6.070312 22.433594 5.574219 22.929688 C 5.269531 23.234375 4.964844 23.539062 4.664062 23.84375 C 4.453125 24.054688 4.246094 24.265625 4.035156 24.472656 C 3.914062 24.59375 3.796875 24.714844 3.675781 24.835938 C 3.546875 24.96875 3.414062 25.097656 3.285156 25.230469 C 3.246094 25.265625 3.207031 25.304688 3.171875 25.34375 C 2.671875 25.835938 2.246094 26.015625 1.558594 26.019531 C 1.082031 26.011719 0.796875 25.878906 0.441406 25.5625 C 0.078125 25.164062 -0.0351562 24.761719 -0.0273438 24.234375 C 0.0234375 23.242188 0.960938 22.59375 1.617188 21.941406 C 1.714844 21.84375 1.8125 21.746094 1.90625 21.648438 C 2.117188 21.441406 2.324219 21.230469 2.53125 21.023438 C 2.835938 20.722656 3.136719 20.421875 3.4375 20.121094 C 3.925781 19.632812 4.414062 19.144531 4.902344 18.65625 C 5.378906 18.179688 5.851562 17.707031 6.328125 17.230469 C 6.355469 17.203125 6.386719 17.171875 6.417969 17.144531 C 6.5625 16.996094 6.710938 16.847656 6.859375 16.703125 C 8.074219 15.484375 9.292969 14.269531 10.511719 13.050781 C 10.285156 12.78125 10.046875 12.53125 9.796875 12.28125 C 9.757812 12.242188 9.71875 12.199219 9.675781 12.160156 C 9.542969 12.023438 9.40625 11.890625 9.273438 11.757812 C 9.175781 11.660156 9.078125 11.5625 8.980469 11.46875 C 8.773438 11.261719 8.566406 11.054688 8.359375 10.84375 C 8.027344 10.519531 7.699219 10.191406 7.371094 9.863281 C 7.257812 9.75 7.144531 9.636719 7.035156 9.523438 C 6.992188 9.480469 6.992188 9.480469 6.949219 9.4375 C 6.628906 9.121094 6.308594 8.800781 5.988281 8.480469 C 5.960938 8.453125 5.929688 8.421875 5.902344 8.394531 C 5.425781 7.921875 4.953125 7.449219 4.476562 6.976562 C 3.992188 6.488281 3.503906 6.003906 3.015625 5.519531 C 2.71875 5.21875 2.417969 4.917969 2.117188 4.621094 C 1.910156 4.414062 1.707031 4.210938 1.5 4.003906 C 1.382812 3.886719 1.261719 3.769531 1.144531 3.648438 C 1.015625 3.523438 0.886719 3.394531 0.757812 3.265625 C 0.71875 3.226562 0.683594 3.191406 0.644531 3.152344 C 0.175781 2.679688 -0.0195312 2.257812 -0.0195312 1.59375 C -0.0117188 1.296875 0.0390625 1.066406 0.203125 0.8125 C 0.222656 0.78125 0.238281 0.75 0.257812 0.71875 C 0.476562 0.363281 0.851562 0.140625 1.242188 0.0234375 C 1.699219 -0.0625 2.132812 -0.03125 2.539062 0.203125 Z M 2.539062 0.203125 "/>
</g>
</svg>
