<svg xmlns="http://www.w3.org/2000/svg" xmlns:xlink="http://www.w3.org/1999/xlink" viewBox="0 0 1080 1080" width="1080" height="1080" preserveAspectRatio="xMidYMid meet" style="width: 100%; height: 100%; transform: translate3d(0px, 0px, 0px); content-visibility: visible;"><defs><clipPath id="__lottie_element_1648"><rect width="1080" height="1080" x="0" y="0"></rect></clipPath></defs><g clip-path="url(#__lottie_element_1648)"><g transform="matrix(1,0,0,1,140.54299926757812,275.7860107421875)" opacity="1" style="display: block;"><g opacity="1" transform="matrix(1,0,0,1,167.69900512695312,255.77499389648438)"><path fill="rgb(0,0,0)" fill-opacity="1" d=" M122.6989974975586,-172.4969940185547 C74.65899658203125,-170.06500244140625 27.363000869750977,-154.45700073242188 -11.892999649047852,-126.75499725341797 C-28.920000076293945,-114.72799682617188 -44.527000427246094,-100.53800201416016 -57.0260009765625,-83.8499984741211 C-84.5250015258789,-47.0260009765625 -95.26899719238281,0.7419999837875366 -91.68699645996094,46.551998138427734 C-88.5790023803711,85.8759994506836 -75.47100067138672,123.91500091552734 -56.823001861572266,158.8470001220703 C-53.849998474121094,164.38699340820312 -49.1879997253418,168.6439971923828 -43.71500015258789,171.1439971923828 C-47.1609992980957,172.02200317382812 -50.67399978637695,172.76699829101562 -54.255001068115234,173.375 C-66.28199768066406,175.53700256347656 -78.44400024414062,169.59100341796875 -84.25399780273438,158.8489990234375 C-102.9020004272461,123.91699981689453 -116.01000213623047,85.87699890136719 -119.11799621582031,46.55400085449219 C-122.6989974975586,0.7440000176429749 -111.88899993896484,-47.025001525878906 -84.38899993896484,-83.8489990234375 C-71.95700073242188,-100.53800201416016 -56.3489990234375,-114.72699737548828 -39.321998596191406,-126.75299835205078 C7.433000087738037,-159.79299926757812 65.60600280761719,-175.53700256347656 122.6989974975586,-172.4969940185547z"></path><path stroke-linecap="round" stroke-linejoin="round" fill-opacity="0" stroke="rgb(0,0,0)" stroke-opacity="1" stroke-width="18" d=" M122.6989974975586,-172.4969940185547 C74.65899658203125,-170.06500244140625 27.363000869750977,-154.45700073242188 -11.892999649047852,-126.75499725341797 C-28.920000076293945,-114.72799682617188 -44.527000427246094,-100.53800201416016 -57.0260009765625,-83.8499984741211 C-84.5250015258789,-47.0260009765625 -95.26899719238281,0.7419999837875366 -91.68699645996094,46.551998138427734 C-88.5790023803711,85.8759994506836 -75.47100067138672,123.91500091552734 -56.823001861572266,158.8470001220703 C-53.849998474121094,164.38699340820312 -49.1879997253418,168.6439971923828 -43.71500015258789,171.1439971923828 C-47.1609992980957,172.02200317382812 -50.67399978637695,172.76699829101562 -54.255001068115234,173.375 C-66.28199768066406,175.53700256347656 -78.44400024414062,169.59100341796875 -84.25399780273438,158.8489990234375 C-102.9020004272461,123.91699981689453 -116.01000213623047,85.87699890136719 -119.11799621582031,46.55400085449219 C-122.6989974975586,0.7440000176429749 -111.88899993896484,-47.025001525878906 -84.38899993896484,-83.8489990234375 C-71.95700073242188,-100.53800201416016 -56.3489990234375,-114.72699737548828 -39.321998596191406,-126.75299835205078 C7.433000087738037,-159.79299926757812 65.60600280761719,-175.53700256347656 122.6989974975586,-172.4969940185547z"></path></g><g opacity="1" transform="matrix(1,0,0,1,474.2130126953125,377.8340148925781)"><path fill="rgb(255,255,255)" fill-opacity="1" d=" M276.7850036621094,-46.72100067138672 C244.01600646972656,-58.207000732421875 206.92100524902344,-49.22100067138672 176.9219970703125,-31.72100067138672 C146.85499572753906,-14.288999557495117 122.19400024414062,10.911999702453613 96.65399932861328,34.42399978637695 C71.0459976196289,58.00600051879883 43.4119987487793,80.70899963378906 10.371999740600586,91.51799774169922 C-16.586999893188477,100.302001953125 -45.573001861572266,100.70700073242188 -73.81600189208984,98.47699737548828 C-145.031005859375,92.93800354003906 -214.96200561523438,71.11299896240234 -276.7850036621094,35.301998138427734 C-275.9070129394531,33.749000549316406 -274.96099853515625,32.19499969482422 -274.0820007324219,30.708999633789062 C-263.677001953125,25.777000427246094 -253.13699340820312,20.30299949645996 -241.85299682617188,14.5600004196167 C-218.947998046875,3.075000047683716 -196.11099243164062,-8.40999984741211 -173.2729949951172,-19.898000717163086 C-133.8820037841797,-39.69499969482422 -94.35600280761719,-59.492000579833984 -52.803001403808594,-74.15399932861328 C-11.25,-88.81600189208984 33.277000427246094,-98.00399780273438 77.3290023803711,-96.18000030517578 C128.7469940185547,-100.70700073242188 254.8260040283203,-93.34200286865234 276.7850036621094,-46.72100067138672z"></path><path stroke-linecap="round" stroke-linejoin="round" fill-opacity="0" stroke="rgb(0,0,0)" stroke-opacity="1" stroke-width="18" d=" M276.7850036621094,-46.72100067138672 C244.01600646972656,-58.207000732421875 206.92100524902344,-49.22100067138672 176.9219970703125,-31.72100067138672 C146.85499572753906,-14.288999557495117 122.19400024414062,10.911999702453613 96.65399932861328,34.42399978637695 C71.0459976196289,58.00600051879883 43.4119987487793,80.70899963378906 10.371999740600586,91.51799774169922 C-16.586999893188477,100.302001953125 -45.573001861572266,100.70700073242188 -73.81600189208984,98.47699737548828 C-145.031005859375,92.93800354003906 -214.96200561523438,71.11299896240234 -276.7850036621094,35.301998138427734 C-275.9070129394531,33.749000549316406 -274.96099853515625,32.19499969482422 -274.0820007324219,30.708999633789062 C-263.677001953125,25.777000427246094 -253.13699340820312,20.30299949645996 -241.85299682617188,14.5600004196167 C-218.947998046875,3.075000047683716 -196.11099243164062,-8.40999984741211 -173.2729949951172,-19.898000717163086 C-133.8820037841797,-39.69499969482422 -94.35600280761719,-59.492000579833984 -52.803001403808594,-74.15399932861328 C-11.25,-88.81600189208984 33.277000427246094,-98.00399780273438 77.3290023803711,-96.18000030517578 C128.7469940185547,-100.70700073242188 254.8260040283203,-93.34200286865234 276.7850036621094,-46.72100067138672z"></path></g><g opacity="1" transform="matrix(1,0,0,1,750.8629760742188,330.875)"><path fill="rgb(255,255,255)" fill-opacity="1" d=" M0.13500000536441803,0.2370000034570694 C0.06700000166893005,0.2370000034570694 -0.06800000369548798,0.17000000178813934 -0.13500000536441803,0.17000000178813934 C-0.13500000536441803,0.17000000178813934 -0.13500000536441803,-0.2370000034570694 -0.13500000536441803,-0.2370000034570694 C-0.0010000000474974513,-0.10199999809265137 0.06700000166893005,0.10100000351667404 0.13500000536441803,0.2370000034570694z"></path><path stroke-linecap="round" stroke-linejoin="round" fill-opacity="0" stroke="rgb(0,0,0)" stroke-opacity="1" stroke-width="18" d=" M0.13500000536441803,0.2370000034570694 C0.06700000166893005,0.2370000034570694 -0.06800000369548798,0.17000000178813934 -0.13500000536441803,0.17000000178813934 C-0.13500000536441803,0.17000000178813934 -0.13500000536441803,-0.2370000034570694 -0.13500000536441803,-0.2370000034570694 C-0.0010000000474974513,-0.10199999809265137 0.06700000166893005,0.10100000351667404 0.13500000536441803,0.2370000034570694z"></path></g><g opacity="1" transform="matrix(1,0,0,1,311.968994140625,250.34500122070312)"><path fill="rgb(255,255,255)" fill-opacity="1" d=" M-171.0970001220703,178.8090057373047 C-183.15499877929688,180.9499969482422 -195.33900451660156,175.04600524902344 -201.11300659179688,164.24600219726562 C-219.76699829101562,129.35499572753906 -232.87100219726562,91.33999633789062 -235.96099853515625,51.9900016784668 C-239.5590057373047,6.168000221252441 -228.77999877929688,-41.56999969482422 -201.28500366210938,-78.4010009765625 C-188.82000732421875,-95.0989990234375 -173.20599365234375,-109.29499816894531 -156.18299865722656,-121.31500244140625 C-87.96700286865234,-169.4759979248047 4.63100004196167,-180.9499969482422 82.54000091552734,-150.8990020751953 C160.44900512695312,-120.84600067138672 221.3560028076172,-50.15999984741211 239.55999755859375,31.334999084472656 C195.53799438476562,29.513999938964844 150.968994140625,38.66299819946289 109.41699981689453,53.3129997253418 C67.86399841308594,67.96299743652344 28.367000579833984,87.80500030517578 -11,107.59200286865234 C-33.867000579833984,119.08499908447266 -56.73400115966797,130.5800018310547 -79.60099792480469,142.072998046875 C-111.97899627685547,158.34800720214844 -138.12100219726562,172.95399475097656 -171.0970001220703,178.8090057373047z"></path><path stroke-linecap="round" stroke-linejoin="round" fill-opacity="0" stroke="rgb(0,0,0)" stroke-opacity="1" stroke-width="18" d=" M-171.0970001220703,178.8090057373047 C-183.15499877929688,180.9499969482422 -195.33900451660156,175.04600524902344 -201.11300659179688,164.24600219726562 C-219.76699829101562,129.35499572753906 -232.87100219726562,91.33999633789062 -235.96099853515625,51.9900016784668 C-239.5590057373047,6.168000221252441 -228.77999877929688,-41.56999969482422 -201.28500366210938,-78.4010009765625 C-188.82000732421875,-95.0989990234375 -173.20599365234375,-109.29499816894531 -156.18299865722656,-121.31500244140625 C-87.96700286865234,-169.4759979248047 4.63100004196167,-180.9499969482422 82.54000091552734,-150.8990020751953 C160.44900512695312,-120.84600067138672 221.3560028076172,-50.15999984741211 239.55999755859375,31.334999084472656 C195.53799438476562,29.513999938964844 150.968994140625,38.66299819946289 109.41699981689453,53.3129997253418 C67.86399841308594,67.96299743652344 28.367000579833984,87.80500030517578 -11,107.59200286865234 C-33.867000579833984,119.08499908447266 -56.73400115966797,130.5800018310547 -79.60099792480469,142.072998046875 C-111.97899627685547,158.34800720214844 -138.12100219726562,172.95399475097656 -171.0970001220703,178.8090057373047z"></path></g><g opacity="1" transform="matrix(1,0,0,1,692.4860229492188,347.52899169921875)"><path fill="rgb(0,0,0)" fill-opacity="1" d=" M58.24300003051758,-16.485000610351562 C58.308998107910156,-4.390999794006348 51.349998474121094,7.0960001945495605 41.62200164794922,14.256999969482422 C31.68899917602539,21.68899917602539 19.257999420166016,25 6.892000198364258,26.01300048828125 C-15.876999855041504,27.836999893188477 -39.119998931884766,21.958999633789062 -58.308998107910156,9.593999862670898 C-52.834999084472656,5.675000190734863 -47.15999984741211,1.9589999914169312 -41.349998474121094,-1.4190000295639038 C-11.418000221252441,-18.850000381469727 25.540000915527344,-27.836999893188477 58.24300003051758,-16.485000610351562z"></path><path stroke-linecap="round" stroke-linejoin="round" fill-opacity="0" stroke="rgb(0,0,0)" stroke-opacity="1" stroke-width="18" d=" M58.24300003051758,-16.485000610351562 C58.308998107910156,-4.390999794006348 51.349998474121094,7.0960001945495605 41.62200164794922,14.256999969482422 C31.68899917602539,21.68899917602539 19.257999420166016,25 6.892000198364258,26.01300048828125 C-15.876999855041504,27.836999893188477 -39.119998931884766,21.958999633789062 -58.308998107910156,9.593999862670898 C-52.834999084472656,5.675000190734863 -47.15999984741211,1.9589999914169312 -41.349998474121094,-1.4190000295639038 C-11.418000221252441,-18.850000381469727 25.540000915527344,-27.836999893188477 58.24300003051758,-16.485000610351562z"></path></g><g opacity="1" transform="matrix(1,0,0,1,462.4150085449219,365.4490051269531)"><path stroke-linecap="round" stroke-linejoin="round" fill-opacity="0" stroke-dasharray=" 3.74 22.439" stroke-dashoffset="0" stroke="rgb(0,0,0)" stroke-opacity="1" stroke-width="18" d=" M215.90699768066406,-74.16500091552734 C185.38999938964844,-69.06300354003906 156.18299865722656,-56.303001403808594 131.70700073242188,-37.37699890136719 C109.27999877929688,-20.035999298095703 91.09700012207031,2.0810000896453857 70.90499877929688,21.979000091552734 C50.71200180053711,41.87699890136719 27.413999557495117,60.132999420166016 -0.15600000321865082,66.73500061035156 C-31.173999786376953,74.16500091552734 -63.555999755859375,66.02999877929688 -94.40599822998047,57.93000030517578 C-134.906005859375,47.29600143432617 -175.40499877929688,36.6619987487793 -215.906005859375,26.025999069213867"></path></g><g opacity="1" transform="matrix(1,0,0,1,224.63099670410156,237.3419952392578)"><path stroke-linecap="round" stroke-linejoin="round" fill-opacity="0" stroke="rgb(0,0,0)" stroke-opacity="1" stroke-width="18" d=" M-1.6759999990463257,-141.69500732421875 C-26.802000045776367,-97.60800170898438 -30.01799964904785,-51.32600021362305 -20.711000442504883,-1.4429999589920044 C-11.404000282287598,48.439998626708984 9.390999794006348,95.33200073242188 30.01799964904785,141.69500732421875"></path></g><g opacity="1" transform="matrix(1,0,0,1,226.36300659179688,74.43699645996094)"><path fill="rgb(0,0,0)" fill-opacity="1" d=" M38.784000396728516,6.421999931335449 C38.24800109863281,-12.357000350952148 17.042999267578125,-29.437000274658203 -8.321999549865723,-21.445999145507812 C-33.75199890136719,-13.434000015258789 -38.784000396728516,11.581999778747559 -33.446998596191406,29.43600082397461"></path><path stroke-linecap="round" stroke-linejoin="round" fill-opacity="0" stroke="rgb(0,0,0)" stroke-opacity="1" stroke-width="18" d=" M38.784000396728516,6.421999931335449 C38.24800109863281,-12.357000350952148 17.042999267578125,-29.437000274658203 -8.321999549865723,-21.445999145507812 C-33.75199890136719,-13.434000015258789 -38.784000396728516,11.581999778747559 -33.446998596191406,29.43600082397461"></path></g><g opacity="1" transform="matrix(1,0,0,1,377.1510009765625,147.52099609375)"><path stroke-linecap="round" stroke-linejoin="round" fill-opacity="0" stroke="rgb(0,0,0)" stroke-opacity="1" stroke-width="18" d=" M-69.37799835205078,-25.075000762939453 C-17.73699951171875,-30.863000869750977 36.189998626708984,-9.123000144958496 69.37799835205078,30.86199951171875"></path></g><g opacity="1" transform="matrix(1,0,0,1,466.5899963378906,209.51199340820312)"><path stroke-linecap="round" stroke-linejoin="round" fill-opacity="0" stroke="rgb(0,0,0)" stroke-opacity="1" stroke-width="18" d=" M-1.9190000295639038,-4.111000061035156 C-0.6399999856948853,-1.371000051498413 0.640999972820282,1.371000051498413 1.9190000295639038,4.111000061035156"></path></g></g></g></svg>