<?xml version="1.0" encoding="UTF-8"?>
<svg xmlns="http://www.w3.org/2000/svg" xmlns:xlink="http://www.w3.org/1999/xlink" width="26px" height="26px" viewBox="0 0 26 26" version="1.1">
<g id="surface1">
<path style=" stroke:none;fill-rule:nonzero;fill:rgb(0%,0%,0%);fill-opacity:1;" d="M 12.996094 3.53125 C 13.035156 3.53125 13.078125 3.535156 13.117188 3.535156 C 13.421875 3.542969 13.660156 3.585938 13.914062 3.757812 C 13.949219 3.78125 13.984375 3.800781 14.019531 3.824219 C 14.367188 4.0625 14.636719 4.378906 14.753906 4.785156 C 14.851562 5.355469 14.816406 5.886719 14.488281 6.375 C 14.355469 6.550781 14.25 6.683594 14.066406 6.804688 C 14.128906 6.976562 14.203125 7.121094 14.308594 7.269531 C 14.335938 7.308594 14.363281 7.347656 14.394531 7.390625 C 14.421875 7.433594 14.453125 7.476562 14.484375 7.519531 C 14.550781 7.609375 14.613281 7.703125 14.679688 7.792969 C 14.714844 7.839844 14.746094 7.886719 14.78125 7.933594 C 14.933594 8.148438 15.082031 8.367188 15.234375 8.582031 C 15.292969 8.667969 15.351562 8.75 15.414062 8.835938 C 15.53125 9.003906 15.648438 9.175781 15.765625 9.34375 C 15.796875 9.386719 15.828125 9.425781 15.855469 9.472656 C 15.914062 9.554688 15.972656 9.640625 16.035156 9.722656 C 16.1875 9.941406 16.339844 10.160156 16.492188 10.378906 C 16.539062 10.445312 16.539062 10.445312 16.589844 10.515625 C 16.648438 10.601562 16.707031 10.6875 16.769531 10.769531 C 16.953125 11.039062 17.136719 11.308594 17.316406 11.578125 C 17.925781 11.292969 18.53125 11 19.132812 10.695312 C 19.265625 10.628906 19.398438 10.5625 19.527344 10.496094 C 19.902344 10.308594 20.277344 10.121094 20.652344 9.933594 C 20.882812 9.816406 21.117188 9.699219 21.347656 9.585938 C 21.433594 9.539062 21.523438 9.496094 21.609375 9.453125 C 21.730469 9.390625 21.851562 9.328125 21.972656 9.269531 C 22.027344 9.242188 22.027344 9.242188 22.085938 9.214844 C 22.332031 9.089844 22.332031 9.089844 22.445312 9.089844 C 22.441406 9.050781 22.441406 9.011719 22.4375 8.972656 C 22.421875 8.460938 22.539062 8.066406 22.859375 7.664062 C 23.257812 7.253906 23.707031 7.066406 24.273438 7.058594 C 24.796875 7.097656 25.222656 7.269531 25.585938 7.652344 C 25.984375 8.132812 26.054688 8.585938 26.011719 9.195312 C 25.984375 9.421875 25.910156 9.605469 25.796875 9.800781 C 25.777344 9.835938 25.757812 9.871094 25.734375 9.910156 C 25.535156 10.210938 25.253906 10.402344 24.933594 10.5625 C 24.898438 10.566406 24.863281 10.570312 24.828125 10.578125 C 24.683594 10.601562 24.597656 10.628906 24.476562 10.714844 C 24.355469 10.960938 24.304688 11.222656 24.25 11.488281 C 24.230469 11.570312 24.210938 11.652344 24.191406 11.730469 C 24.140625 11.953125 24.089844 12.175781 24.042969 12.398438 C 24 12.585938 23.957031 12.773438 23.917969 12.960938 C 23.816406 13.40625 23.71875 13.847656 23.621094 14.292969 C 23.53125 14.695312 23.441406 15.097656 23.351562 15.5 C 22.621094 18.550781 22.621094 18.550781 22.496094 21.671875 C 22.511719 21.964844 22.453125 22.160156 22.265625 22.386719 C 22.105469 22.515625 21.9375 22.503906 21.738281 22.503906 C 21.675781 22.503906 21.613281 22.503906 21.546875 22.503906 C 21.476562 22.503906 21.40625 22.503906 21.335938 22.503906 C 21.261719 22.503906 21.1875 22.503906 21.113281 22.503906 C 20.90625 22.503906 20.703125 22.503906 20.496094 22.503906 C 20.277344 22.503906 20.054688 22.503906 19.832031 22.503906 C 19.347656 22.503906 18.867188 22.507812 18.382812 22.507812 C 18.078125 22.507812 17.777344 22.507812 17.476562 22.507812 C 16.640625 22.507812 15.804688 22.507812 14.96875 22.507812 C 14.914062 22.507812 14.863281 22.507812 14.804688 22.507812 C 14.753906 22.507812 14.699219 22.507812 14.644531 22.507812 C 14.535156 22.507812 14.425781 22.507812 14.316406 22.507812 C 14.238281 22.507812 14.238281 22.507812 14.15625 22.507812 C 13.28125 22.507812 12.40625 22.507812 11.53125 22.511719 C 10.636719 22.511719 9.738281 22.511719 8.84375 22.511719 C 8.339844 22.511719 7.835938 22.511719 7.332031 22.515625 C 6.902344 22.515625 6.472656 22.515625 6.042969 22.515625 C 5.824219 22.515625 5.605469 22.515625 5.386719 22.515625 C 5.1875 22.515625 4.988281 22.515625 4.789062 22.515625 C 4.714844 22.515625 4.640625 22.515625 4.570312 22.515625 C 4.472656 22.515625 4.371094 22.515625 4.273438 22.515625 C 4.21875 22.515625 4.164062 22.515625 4.109375 22.515625 C 3.894531 22.488281 3.757812 22.402344 3.617188 22.242188 C 3.5 22.054688 3.503906 21.90625 3.515625 21.691406 C 3.625 19.523438 3.105469 17.457031 2.628906 15.359375 C 2.535156 14.957031 2.449219 14.554688 2.363281 14.148438 C 2.277344 13.753906 2.191406 13.363281 2.101562 12.96875 C 2.050781 12.738281 2 12.503906 1.949219 12.269531 C 1.902344 12.054688 1.855469 11.835938 1.800781 11.621094 C 1.785156 11.542969 1.765625 11.460938 1.75 11.382812 C 1.703125 11.144531 1.648438 10.925781 1.523438 10.714844 C 1.355469 10.609375 1.210938 10.554688 1.019531 10.503906 C 0.644531 10.402344 0.414062 10.136719 0.214844 9.8125 C -0.0507812 9.335938 -0.0742188 8.8125 0.03125 8.277344 C 0.191406 7.808594 0.539062 7.457031 0.972656 7.234375 C 1.488281 6.988281 1.953125 7.023438 2.480469 7.199219 C 2.921875 7.375 3.242188 7.714844 3.457031 8.132812 C 3.578125 8.445312 3.570312 8.757812 3.554688 9.089844 C 3.59375 9.101562 3.636719 9.113281 3.675781 9.125 C 3.90625 9.207031 4.117188 9.3125 4.332031 9.421875 C 4.378906 9.445312 4.425781 9.46875 4.472656 9.492188 C 4.625 9.570312 4.78125 9.644531 4.933594 9.722656 C 5.039062 9.777344 5.144531 9.832031 5.253906 9.882812 C 5.53125 10.023438 5.8125 10.164062 6.09375 10.304688 C 6.378906 10.449219 6.664062 10.589844 6.949219 10.734375 C 7.511719 11.015625 8.074219 11.296875 8.632812 11.578125 C 8.808594 11.355469 8.976562 11.132812 9.144531 10.902344 C 9.171875 10.863281 9.203125 10.820312 9.230469 10.78125 C 9.4375 10.492188 9.640625 10.203125 9.839844 9.910156 C 10.023438 9.640625 10.210938 9.371094 10.402344 9.101562 C 10.445312 9.039062 10.445312 9.039062 10.492188 8.972656 C 10.550781 8.886719 10.613281 8.800781 10.671875 8.714844 C 10.765625 8.582031 10.859375 8.449219 10.953125 8.316406 C 10.984375 8.269531 11.015625 8.226562 11.046875 8.183594 C 11.105469 8.097656 11.167969 8.011719 11.226562 7.925781 C 11.359375 7.734375 11.488281 7.546875 11.625 7.359375 C 11.644531 7.332031 11.667969 7.300781 11.691406 7.269531 C 11.75 7.1875 11.804688 7.109375 11.863281 7.03125 C 11.886719 6.988281 11.910156 6.949219 11.933594 6.90625 C 11.898438 6.746094 11.898438 6.746094 11.773438 6.675781 C 11.445312 6.394531 11.242188 5.976562 11.207031 5.546875 C 11.191406 4.941406 11.304688 4.464844 11.730469 4.011719 C 12.105469 3.667969 12.492188 3.527344 12.996094 3.53125 Z M 12.542969 4.976562 C 12.421875 5.140625 12.417969 5.285156 12.441406 5.484375 C 12.523438 5.640625 12.597656 5.753906 12.738281 5.859375 C 12.96875 5.925781 13.105469 5.914062 13.316406 5.800781 C 13.5 5.652344 13.546875 5.570312 13.578125 5.339844 C 13.554688 5.136719 13.484375 5.03125 13.355469 4.875 C 13.070312 4.664062 12.796875 4.769531 12.542969 4.976562 Z M 12.949219 7.617188 C 12.882812 7.691406 12.882812 7.691406 12.820312 7.792969 C 12.792969 7.832031 12.769531 7.867188 12.742188 7.910156 C 12.714844 7.949219 12.6875 7.992188 12.65625 8.035156 C 12.597656 8.125 12.535156 8.214844 12.476562 8.304688 C 12.429688 8.371094 12.429688 8.371094 12.382812 8.445312 C 12.238281 8.660156 12.085938 8.875 11.9375 9.085938 C 11.90625 9.128906 11.878906 9.171875 11.847656 9.214844 C 11.789062 9.300781 11.726562 9.382812 11.667969 9.46875 C 11.519531 9.679688 11.371094 9.894531 11.222656 10.105469 C 11.164062 10.191406 11.105469 10.273438 11.046875 10.359375 C 11.015625 10.402344 10.984375 10.441406 10.957031 10.484375 C 10.867188 10.613281 10.777344 10.742188 10.6875 10.867188 C 10.660156 10.910156 10.628906 10.949219 10.601562 10.996094 C 10.542969 11.078125 10.484375 11.164062 10.425781 11.246094 C 10.269531 11.46875 10.113281 11.6875 9.960938 11.910156 C 9.929688 11.957031 9.898438 12 9.863281 12.050781 C 9.800781 12.136719 9.742188 12.226562 9.679688 12.3125 C 9.238281 12.941406 9.238281 12.941406 8.988281 13 C 8.625 12.984375 8.355469 12.855469 8.035156 12.691406 C 7.984375 12.664062 7.929688 12.636719 7.875 12.609375 C 7.757812 12.550781 7.644531 12.492188 7.53125 12.433594 C 7.347656 12.339844 7.167969 12.25 6.984375 12.15625 C 6.597656 11.964844 6.210938 11.769531 5.828125 11.570312 C 5.410156 11.359375 4.992188 11.148438 4.574219 10.9375 C 4.367188 10.832031 4.15625 10.726562 3.945312 10.617188 C 3.835938 10.5625 3.726562 10.507812 3.617188 10.453125 C 3.566406 10.425781 3.519531 10.402344 3.464844 10.375 C 3.421875 10.351562 3.375 10.328125 3.328125 10.304688 C 3.289062 10.285156 3.25 10.265625 3.207031 10.242188 C 3.078125 10.199219 3.019531 10.207031 2.894531 10.257812 C 2.84375 10.292969 2.792969 10.324219 2.742188 10.359375 C 2.8125 10.828125 2.910156 11.289062 3.011719 11.75 C 3.03125 11.824219 3.046875 11.902344 3.0625 11.976562 C 3.109375 12.183594 3.15625 12.390625 3.199219 12.59375 C 3.25 12.808594 3.296875 13.027344 3.34375 13.242188 C 3.425781 13.601562 3.503906 13.964844 3.585938 14.324219 C 3.679688 14.742188 3.773438 15.160156 3.867188 15.578125 C 3.964844 16.027344 4.0625 16.472656 4.164062 16.917969 C 4.191406 17.046875 4.21875 17.171875 4.25 17.300781 C 4.292969 17.503906 4.335938 17.703125 4.382812 17.90625 C 4.398438 17.980469 4.414062 18.054688 4.433594 18.128906 C 4.453125 18.226562 4.476562 18.328125 4.5 18.429688 C 4.511719 18.484375 4.523438 18.542969 4.539062 18.601562 C 4.570312 18.742188 4.570312 18.742188 4.621094 18.890625 C 10.152344 18.890625 15.679688 18.890625 21.378906 18.890625 C 21.652344 17.703125 21.925781 16.511719 22.191406 15.324219 C 22.207031 15.253906 22.222656 15.183594 22.238281 15.113281 C 22.316406 14.753906 22.398438 14.394531 22.476562 14.035156 C 22.550781 13.703125 22.625 13.371094 22.699219 13.035156 C 22.765625 12.746094 22.828125 12.457031 22.894531 12.167969 C 22.933594 11.996094 22.96875 11.824219 23.007812 11.652344 C 23.050781 11.464844 23.09375 11.273438 23.132812 11.085938 C 23.148438 11.027344 23.160156 10.972656 23.171875 10.914062 C 23.183594 10.863281 23.195312 10.8125 23.207031 10.757812 C 23.222656 10.691406 23.222656 10.691406 23.238281 10.625 C 23.261719 10.507812 23.261719 10.507812 23.257812 10.359375 C 23.175781 10.265625 23.175781 10.265625 23.054688 10.207031 C 22.875 10.230469 22.730469 10.285156 22.570312 10.367188 C 22.523438 10.386719 22.480469 10.410156 22.433594 10.433594 C 22.382812 10.460938 22.335938 10.484375 22.285156 10.511719 C 22.230469 10.535156 22.179688 10.5625 22.128906 10.589844 C 22.015625 10.644531 21.902344 10.703125 21.789062 10.761719 C 21.613281 10.851562 21.433594 10.941406 21.253906 11.03125 C 20.746094 11.285156 20.242188 11.542969 19.734375 11.796875 C 19.425781 11.957031 19.113281 12.113281 18.804688 12.269531 C 18.6875 12.328125 18.566406 12.386719 18.449219 12.445312 C 18.285156 12.53125 18.121094 12.613281 17.953125 12.695312 C 17.90625 12.722656 17.855469 12.746094 17.808594 12.773438 C 17.492188 12.929688 17.207031 13.058594 16.855469 12.953125 C 16.652344 12.808594 16.53125 12.636719 16.394531 12.433594 C 16.363281 12.390625 16.335938 12.351562 16.304688 12.308594 C 16.21875 12.183594 16.132812 12.058594 16.046875 11.933594 C 16 11.863281 15.953125 11.796875 15.90625 11.726562 C 15.8125 11.597656 15.722656 11.464844 15.632812 11.332031 C 15.472656 11.097656 15.308594 10.859375 15.140625 10.625 C 15.113281 10.582031 15.082031 10.539062 15.050781 10.496094 C 14.992188 10.410156 14.929688 10.324219 14.867188 10.234375 C 14.691406 9.980469 14.511719 9.726562 14.332031 9.472656 C 14.179688 9.253906 14.027344 9.035156 13.875 8.816406 C 13.828125 8.75 13.828125 8.75 13.777344 8.679688 C 13.71875 8.59375 13.660156 8.507812 13.597656 8.425781 C 13.570312 8.382812 13.542969 8.34375 13.515625 8.304688 C 13.488281 8.265625 13.460938 8.230469 13.433594 8.191406 C 13.324219 8.03125 13.21875 7.867188 13.117188 7.699219 C 13.09375 7.671875 13.074219 7.644531 13.050781 7.617188 C 13.015625 7.617188 12.984375 7.617188 12.949219 7.617188 Z M 1.269531 8.582031 C 1.191406 8.738281 1.203125 8.863281 1.21875 9.039062 C 1.300781 9.195312 1.371094 9.308594 1.515625 9.414062 C 1.746094 9.480469 1.882812 9.46875 2.09375 9.355469 C 2.277344 9.207031 2.324219 9.125 2.355469 8.894531 C 2.332031 8.691406 2.257812 8.585938 2.132812 8.429688 C 1.789062 8.199219 1.53125 8.3125 1.269531 8.582031 Z M 23.765625 8.53125 C 23.648438 8.699219 23.640625 8.839844 23.664062 9.039062 C 23.746094 9.195312 23.820312 9.308594 23.960938 9.414062 C 24.191406 9.480469 24.328125 9.46875 24.539062 9.355469 C 24.738281 9.195312 24.769531 9.117188 24.804688 8.867188 C 24.773438 8.625 24.699219 8.550781 24.527344 8.378906 C 24.238281 8.234375 23.976562 8.308594 23.765625 8.53125 Z M 4.773438 20.109375 C 4.773438 20.496094 4.773438 20.878906 4.773438 21.277344 C 10.203125 21.277344 15.632812 21.277344 21.226562 21.277344 C 21.226562 20.890625 21.226562 20.507812 21.226562 20.109375 C 15.796875 20.109375 10.367188 20.109375 4.773438 20.109375 Z M 4.773438 20.109375 "/>
</g>
</svg>
