<svg xmlns="http://www.w3.org/2000/svg" xmlns:xlink="http://www.w3.org/1999/xlink" viewBox="0 0 1080 1080" width="1080" height="1080" preserveAspectRatio="xMidYMid meet" style="width: 100%; height: 100%; transform: translate3d(0px, 0px, 0px); content-visibility: visible;"><defs><clipPath id="__lottie_element_610"><rect width="1080" height="1080" x="0" y="0"></rect></clipPath></defs><g clip-path="url(#__lottie_element_610)"><g transform="matrix(0.994623601436615,0.10355637967586517,-0.10355637967586517,0.994623601436615,148.80247497558594,96.12869262695312)" opacity="1" style="display: block;"><g opacity="1" transform="matrix(1,0,0,1,403.8559875488281,344.7850036621094)"><path fill="rgb(255,255,255)" fill-opacity="1" d=" M-49.04600143432617,-31.285999298095703 C-30.062999725341797,-37.492000579833984 0.2759999930858612,-73.77200317382812 19.259000778198242,-79.97899627685547 C28.579999923706055,-83.0260009765625 39.31100082397461,-85.94300079345703 47.71500015258789,-80.88800048828125 C53.069000244140625,-77.66799926757812 56.334999084472656,-71.58799743652344 57.025001525878906,-65.37799835205078 C57.71500015258789,-59.167999267578125 56.055999755859375,-52.869998931884766 53.28200149536133,-47.270999908447266 C49.064998626708984,-38.76100158691406 42.409000396728516,-31.743999481201172 35.78799819946289,-24.934999465942383 C-2.0360000133514404,13.960000038146973 -15.746000289916992,51.5620002746582 -57.71500015258789,85.94300079345703"></path><path stroke-linecap="round" stroke-linejoin="round" fill-opacity="0" stroke="rgb(0,0,0)" stroke-opacity="1" stroke-width="18" d=" M-49.04600143432617,-31.285999298095703 C-30.062999725341797,-37.492000579833984 0.2759999930858612,-73.77200317382812 19.259000778198242,-79.97899627685547 C28.579999923706055,-83.0260009765625 39.31100082397461,-85.94300079345703 47.71500015258789,-80.88800048828125 C53.069000244140625,-77.66799926757812 56.334999084472656,-71.58799743652344 57.025001525878906,-65.37799835205078 C57.71500015258789,-59.167999267578125 56.055999755859375,-52.869998931884766 53.28200149536133,-47.270999908447266 C49.064998626708984,-38.76100158691406 42.409000396728516,-31.743999481201172 35.78799819946289,-24.934999465942383 C-2.0360000133514404,13.960000038146973 -15.746000289916992,51.5620002746582 -57.71500015258789,85.94300079345703"></path></g><g opacity="1" transform="matrix(1,0,0,1,224.5469970703125,523.4970092773438)"><path fill="rgb(255,255,255)" fill-opacity="1" d=" M108.9749984741211,-62.768001556396484 C111.3550033569336,-34.1609992980957 113.73500061035156,-5.552000045776367 116.11499786376953,23.054000854492188 C116.85800170898438,31.982999801635742 117.44599914550781,41.60900115966797 112.7509994506836,49.24100112915039 C108.56900024414062,56.03799819946289 100.79299926757812,59.970001220703125 92.93599700927734,61.369998931884766 C85.0790023803711,62.768001556396484 77.01799774169922,61.9630012512207 69.07099914550781,61.23099899291992 C44.63199996948242,58.979000091552734 20.12700080871582,57.452999114990234 -4.4019999504089355,56.65399932861328 C-34.77399826049805,55.66699981689453 -63.893001556396484,52.90999984741211 -93.69499969482422,51.965999603271484 C-107.43099975585938,51.53200149536133 -117.44599914550781,39.10300064086914 -115.16699981689453,25.549999237060547 C-110.54399871826172,-1.937999963760376 -109.43199920654297,-30.014999389648438 -111.90299987792969,-57.779998779296875"></path><path stroke-linecap="round" stroke-linejoin="round" fill-opacity="0" stroke="rgb(0,0,0)" stroke-opacity="1" stroke-width="18" d=" M108.9749984741211,-62.768001556396484 C111.3550033569336,-34.1609992980957 113.73500061035156,-5.552000045776367 116.11499786376953,23.054000854492188 C116.85800170898438,31.982999801635742 117.44599914550781,41.60900115966797 112.7509994506836,49.24100112915039 C108.56900024414062,56.03799819946289 100.79299926757812,59.970001220703125 92.93599700927734,61.369998931884766 C85.0790023803711,62.768001556396484 77.01799774169922,61.9630012512207 69.07099914550781,61.23099899291992 C44.63199996948242,58.979000091552734 20.12700080871582,57.452999114990234 -4.4019999504089355,56.65399932861328 C-34.77399826049805,55.66699981689453 -63.893001556396484,52.90999984741211 -93.69499969482422,51.965999603271484 C-107.43099975585938,51.53200149536133 -117.44599914550781,39.10300064086914 -115.16699981689453,25.549999237060547 C-110.54399871826172,-1.937999963760376 -109.43199920654297,-30.014999389648438 -111.90299987792969,-57.779998779296875"></path></g><g opacity="1" transform="matrix(1,0,0,1,157.88099670410156,302.2969970703125)"><path fill="rgb(0,0,0)" fill-opacity="1" d=" M112.88099670410156,-236.89999389648438 C107.4489974975586,-240.04100036621094 101.27899932861328,-241.88800048828125 94.99700164794922,-242.03599548339844 C80.29100036621094,-242.40499877929688 65.73300170898438,-233.5749969482422 59.30400085449219,-220.3470001220703 C58.75,-219.20199584960938 58.26900100708008,-218.05599975585938 57.82600021362305,-216.91099548339844 C57.82600021362305,-216.91099548339844 57.9370002746582,-217.42799377441406 57.9370002746582,-217.42799377441406 C33.624000549316406,-226.85000610351562 5.210000038146973,-211.47900390625 -8.276000022888184,-189.16200256347656 C-13.079999923706055,-181.21800231933594 -16.405000686645508,-172.64599609375 -18.732999801635742,-163.70399475097656 C-18.732999801635742,-163.70399475097656 -22.20599937438965,-169.98500061035156 -22.20599937438965,-169.98500061035156 C-36.358001708984375,-174.8249969482422 -52.430999755859375,-167.50900268554688 -61.88999938964844,-155.9810028076172 C-71.38600158691406,-144.4530029296875 -75.5979995727539,-129.52499389648438 -78.8499984741211,-114.96700286865234 C-97.98999786376953,-28.763999938964844 -91.302001953125,62.944000244140625 -60.191001892089844,145.5260009765625 C-57.23500061035156,153.43299865722656 -51.47100067138672,159.71400451660156 -44.303001403808594,163.3719940185547 C-44.303001403808594,163.3719940185547 -45.22700119018555,163.40899658203125 -45.22700119018555,163.40899658203125 C-42.750999450683594,191.19500732421875 -43.89699935913086,219.27499389648438 -48.51599884033203,246.76600646972656 C-49.14400100708008,250.4239959716797 -48.8489990234375,254.00900268554688 -47.81399917602539,257.2980041503906 C-58.38100051879883,254.08299255371094 -65.3280029296875,243.3679962158203 -63.40700149536133,231.8769989013672 C-58.78799819946289,204.38699340820312 -57.643001556396484,176.30499267578125 -60.11800003051758,148.51800537109375 C-60.11800003051758,148.51800537109375 -59.194000244140625,148.4810028076172 -59.194000244140625,148.4810028076172 C-66.36199951171875,144.82400512695312 -72.1259994506836,138.54299926757812 -75.08200073242188,130.63499450683594 C-106.19300079345703,48.053001403808594 -112.88099670410156,-43.654998779296875 -93.74099731445312,-129.85800170898438 C-90.48899841308594,-144.41600036621094 -86.2770004272461,-159.343994140625 -76.78099822998047,-170.8719940185547 C-67.3219985961914,-182.39999389648438 -51.249000549316406,-189.71600341796875 -37.09700012207031,-184.87600708007812 C-37.09700012207031,-184.87600708007812 -33.624000549316406,-178.59500122070312 -33.624000549316406,-178.59500122070312 C-31.29599952697754,-187.53700256347656 -27.97100067138672,-196.10899353027344 -23.16699981689453,-204.05299377441406 C-9.680000305175781,-226.3699951171875 18.733999252319336,-241.74099731445312 43.04600143432617,-232.31900024414062 C43.04600143432617,-232.31900024414062 42.935001373291016,-231.802001953125 42.935001373291016,-231.802001953125 C43.37799835205078,-232.94700622558594 43.85900115966797,-234.09300231933594 44.41299819946289,-235.23800659179688 C50.84199905395508,-248.46600341796875 65.4000015258789,-257.2969970703125 80.10600280761719,-256.9280090332031 C93.48300170898438,-256.593994140625 106.41500091552734,-248.5760040283203 112.88099670410156,-236.89999389648438z"></path><path stroke-linecap="round" stroke-linejoin="round" fill-opacity="0" stroke="rgb(0,0,0)" stroke-opacity="1" stroke-width="18" d=" M112.88099670410156,-236.89999389648438 C107.4489974975586,-240.04100036621094 101.27899932861328,-241.88800048828125 94.99700164794922,-242.03599548339844 C80.29100036621094,-242.40499877929688 65.73300170898438,-233.5749969482422 59.30400085449219,-220.3470001220703 C58.75,-219.20199584960938 58.26900100708008,-218.05599975585938 57.82600021362305,-216.91099548339844 C57.82600021362305,-216.91099548339844 57.9370002746582,-217.42799377441406 57.9370002746582,-217.42799377441406 C33.624000549316406,-226.85000610351562 5.210000038146973,-211.47900390625 -8.276000022888184,-189.16200256347656 C-13.079999923706055,-181.21800231933594 -16.405000686645508,-172.64599609375 -18.732999801635742,-163.70399475097656 C-18.732999801635742,-163.70399475097656 -22.20599937438965,-169.98500061035156 -22.20599937438965,-169.98500061035156 C-36.358001708984375,-174.8249969482422 -52.430999755859375,-167.50900268554688 -61.88999938964844,-155.9810028076172 C-71.38600158691406,-144.4530029296875 -75.5979995727539,-129.52499389648438 -78.8499984741211,-114.96700286865234 C-97.98999786376953,-28.763999938964844 -91.302001953125,62.944000244140625 -60.191001892089844,145.5260009765625 C-57.23500061035156,153.43299865722656 -51.47100067138672,159.71400451660156 -44.303001403808594,163.3719940185547 C-44.303001403808594,163.3719940185547 -45.22700119018555,163.40899658203125 -45.22700119018555,163.40899658203125 C-42.750999450683594,191.19500732421875 -43.89699935913086,219.27499389648438 -48.51599884033203,246.76600646972656 C-49.14400100708008,250.4239959716797 -48.8489990234375,254.00900268554688 -47.81399917602539,257.2980041503906 C-58.38100051879883,254.08299255371094 -65.3280029296875,243.3679962158203 -63.40700149536133,231.8769989013672 C-58.78799819946289,204.38699340820312 -57.643001556396484,176.30499267578125 -60.11800003051758,148.51800537109375 C-60.11800003051758,148.51800537109375 -59.194000244140625,148.4810028076172 -59.194000244140625,148.4810028076172 C-66.36199951171875,144.82400512695312 -72.1259994506836,138.54299926757812 -75.08200073242188,130.63499450683594 C-106.19300079345703,48.053001403808594 -112.88099670410156,-43.654998779296875 -93.74099731445312,-129.85800170898438 C-90.48899841308594,-144.41600036621094 -86.2770004272461,-159.343994140625 -76.78099822998047,-170.8719940185547 C-67.3219985961914,-182.39999389648438 -51.249000549316406,-189.71600341796875 -37.09700012207031,-184.87600708007812 C-37.09700012207031,-184.87600708007812 -33.624000549316406,-178.59500122070312 -33.624000549316406,-178.59500122070312 C-31.29599952697754,-187.53700256347656 -27.97100067138672,-196.10899353027344 -23.16699981689453,-204.05299377441406 C-9.680000305175781,-226.3699951171875 18.733999252319336,-241.74099731445312 43.04600143432617,-232.31900024414062 C43.04600143432617,-232.31900024414062 42.935001373291016,-231.802001953125 42.935001373291016,-231.802001953125 C43.37799835205078,-232.94700622558594 43.85900115966797,-234.09300231933594 44.41299819946289,-235.23800659179688 C50.84199905395508,-248.46600341796875 65.4000015258789,-257.2969970703125 80.10600280761719,-256.9280090332031 C93.48300170898438,-256.593994140625 106.41500091552734,-248.5760040283203 112.88099670410156,-236.89999389648438z"></path></g><g opacity="1" transform="matrix(1,0,0,1,211.53399658203125,267.1610107421875)"><path fill="rgb(255,255,255)" fill-opacity="1" d=" M132.43299865722656,171.9320068359375 C131.36700439453125,187.5760040283203 119.3499984741211,200.16099548339844 103.77799987792969,202.22300720214844 C66.09200286865234,207.27099609375 26.628999710083008,206.06199645996094 -10.843000411987305,204.28599548339844 C-35.1609992980957,203.14700317382812 -59.62099838256836,202.86300659179688 -84.01000213623047,202.15199279785156 C-97.4489974975586,201.72500610351562 -109.11000061035156,193.1929931640625 -113.8740005493164,180.67799377441406 C-144.94700622558594,98.05400085449219 -151.63099670410156,6.400000095367432 -132.50399780273438,-79.8499984741211 C-129.23300170898438,-94.427001953125 -125.03800201416016,-109.28900146484375 -115.58100128173828,-120.80799865722656 C-106.0530014038086,-132.3979949951172 -89.98300170898438,-139.7220001220703 -75.90499877929688,-134.88699340820312 C-75.90499877929688,-134.88699340820312 -69.1500015258789,-138.8679962158203 -69.1500015258789,-138.8679962158203 C-67.2300033569336,-144.1300048828125 -64.81300354003906,-149.1790008544922 -61.89699935913086,-154.01400756835938 C-48.52899932861328,-176.19900512695312 -20.371999740600586,-191.48599243164062 3.803999900817871,-182.45599365234375 C4.0879998207092285,-183.3800048828125 4.514999866485596,-184.3040008544922 4.940999984741211,-185.22900390625 C11.411999702453613,-198.4550018310547 25.91699981689453,-207.27099609375 40.63600158691406,-206.9149932861328 C55.35499954223633,-206.48800659179688 69.43299865722656,-196.96099853515625 75.19300079345703,-183.4510040283203 C75.19300079345703,-183.4510040283203 79.24600219726562,-183.8780059814453 79.24600219726562,-183.8780059814453 C81.73500061035156,-187.22000122070312 85.14800262451172,-189.9219970703125 89.6989974975586,-191.48599243164062 C97.59200286865234,-194.25900268554688 106.26599884033203,-192.19700622558594 113.02100372314453,-187.36199951171875 C122.54900360107422,-180.53599548339844 129.51699829101562,-170.01199340820312 132.50399780273438,-158.70599365234375 C151.63099670410156,-85.68199920654297 141.25,43.94300079345703 132.43299865722656,171.9320068359375z"></path><path stroke-linecap="round" stroke-linejoin="round" fill-opacity="0" stroke="rgb(0,0,0)" stroke-opacity="1" stroke-width="18" d=" M132.43299865722656,171.9320068359375 C131.36700439453125,187.5760040283203 119.3499984741211,200.16099548339844 103.77799987792969,202.22300720214844 C66.09200286865234,207.27099609375 26.628999710083008,206.06199645996094 -10.843000411987305,204.28599548339844 C-35.1609992980957,203.14700317382812 -59.62099838256836,202.86300659179688 -84.01000213623047,202.15199279785156 C-97.4489974975586,201.72500610351562 -109.11000061035156,193.1929931640625 -113.8740005493164,180.67799377441406 C-144.94700622558594,98.05400085449219 -151.63099670410156,6.400000095367432 -132.50399780273438,-79.8499984741211 C-129.23300170898438,-94.427001953125 -125.03800201416016,-109.28900146484375 -115.58100128173828,-120.80799865722656 C-106.0530014038086,-132.3979949951172 -89.98300170898438,-139.7220001220703 -75.90499877929688,-134.88699340820312 C-75.90499877929688,-134.88699340820312 -69.1500015258789,-138.8679962158203 -69.1500015258789,-138.8679962158203 C-67.2300033569336,-144.1300048828125 -64.81300354003906,-149.1790008544922 -61.89699935913086,-154.01400756835938 C-48.52899932861328,-176.19900512695312 -20.371999740600586,-191.48599243164062 3.803999900817871,-182.45599365234375 C4.0879998207092285,-183.3800048828125 4.514999866485596,-184.3040008544922 4.940999984741211,-185.22900390625 C11.411999702453613,-198.4550018310547 25.91699981689453,-207.27099609375 40.63600158691406,-206.9149932861328 C55.35499954223633,-206.48800659179688 69.43299865722656,-196.96099853515625 75.19300079345703,-183.4510040283203 C75.19300079345703,-183.4510040283203 79.24600219726562,-183.8780059814453 79.24600219726562,-183.8780059814453 C81.73500061035156,-187.22000122070312 85.14800262451172,-189.9219970703125 89.6989974975586,-191.48599243164062 C97.59200286865234,-194.25900268554688 106.26599884033203,-192.19700622558594 113.02100372314453,-187.36199951171875 C122.54900360107422,-180.53599548339844 129.51699829101562,-170.01199340820312 132.50399780273438,-158.70599365234375 C151.63099670410156,-85.68199920654297 141.25,43.94300079345703 132.43299865722656,171.9320068359375z"></path></g><g opacity="1" transform="matrix(1,0,0,1,303.01800537109375,236.82899475097656)"><path stroke-linecap="round" stroke-linejoin="round" fill-opacity="0" stroke="rgb(0,0,0)" stroke-opacity="1" stroke-width="18" d=" M21.538000106811523,-157.0229949951172 C14.756999969482422,-161.88999938964844 6.090000152587891,-163.9219970703125 -1.7949999570846558,-161.18499755859375 C-17.648000717163086,-155.68099975585938 -19.701000213623047,-137.01300048828125 -19.958999633789062,-121.45099639892578 C-21.538000106811523,-26.333999633789062 -21.30299949645996,68.81400299072266 -19.2549991607666,163.9219970703125"></path></g><g opacity="1" transform="matrix(1,0,0,1,174.18699645996094,237.97999572753906)"><path stroke-linecap="round" stroke-linejoin="round" fill-opacity="0" stroke="rgb(0,0,0)" stroke-opacity="1" stroke-width="18" d=" M-17.045000076293945,162.531005859375 C-33.73699951171875,93.31900024414062 -41.62900161743164,21.989999771118164 -40.47200012207031,-49.196998596191406 C-40.04800033569336,-75.27100372314453 -38.064998626708984,-102.51599884033203 -24.576000213623047,-124.83300018310547 C-11.086999893188477,-147.1510009765625 17.31399917602539,-162.531005859375 41.62900161743164,-153.10499572753906"></path></g><g opacity="1" transform="matrix(1,0,0,1,244.36000061035156,231.3179931640625)"><path stroke-linecap="round" stroke-linejoin="round" fill-opacity="0" stroke="rgb(0,0,0)" stroke-opacity="1" stroke-width="18" d=" M-33.13100051879883,171.4250030517578 C-42.354000091552734,117.49800109863281 -40.29899978637695,62.358001708984375 -38.215999603271484,7.688000202178955 C-36.61899948120117,-34.236000061035156 -35.020999908447266,-76.16000366210938 -33.42399978637695,-118.08499908447266 C-33.018001556396484,-128.74600219726562 -32.5260009765625,-139.76300048828125 -27.858999252319336,-149.35699462890625 C-21.424999237060547,-162.58200073242188 -6.883999824523926,-171.4250030517578 7.817999839782715,-171.05299377441406 C22.520000457763672,-170.6820068359375 36.59600067138672,-161.11599731445312 42.354000091552734,-147.58299255371094"></path></g><g opacity="1" transform="matrix(1,0,0,1,298.9909973144531,73.34200286865234)"><path fill="rgb(0,0,0)" fill-opacity="1" d=" M23.388999938964844,5.02400016784668 C16.996999740600586,1.218000054359436 9.310999870300293,-0.14800000190734863 2.2170000076293945,2.2909998893737793 C-4.581999778747559,4.61899995803833 -8.831000328063965,9.420999526977539 -11.527999877929688,15.333000183105469 C-11.343000411987305,13.041999816894531 -11.343000411987305,11.380000114440918 -11.60200023651123,10.383000373840332 C-14.152000427246094,4.434000015258789 -18.253000259399414,-0.7400000095367432 -23.388999938964844,-4.692999839782715 C-20.84000015258789,-8.20300006866455 -17.365999221801758,-11.010000228881836 -12.673999786376953,-12.598999977111816 C-4.767000198364258,-15.333000183105469 3.878999948501587,-13.300999641418457 10.678000450134277,-8.423999786376953 C15.704000473022461,-4.841000080108643 19.989999771118164,-0.22300000488758087 23.388999938964844,5.02400016784668z"></path><path stroke-linecap="round" stroke-linejoin="round" fill-opacity="0" stroke="rgb(0,0,0)" stroke-opacity="1" stroke-width="18" d=" M23.388999938964844,5.02400016784668 C16.996999740600586,1.218000054359436 9.310999870300293,-0.14800000190734863 2.2170000076293945,2.2909998893737793 C-4.581999778747559,4.61899995803833 -8.831000328063965,9.420999526977539 -11.527999877929688,15.333000183105469 C-11.343000411987305,13.041999816894531 -11.343000411987305,11.380000114440918 -11.60200023651123,10.383000373840332 C-14.152000427246094,4.434000015258789 -18.253000259399414,-0.7400000095367432 -23.388999938964844,-4.692999839782715 C-20.84000015258789,-8.20300006866455 -17.365999221801758,-11.010000228881836 -12.673999786376953,-12.598999977111816 C-4.767000198364258,-15.333000183105469 3.878999948501587,-13.300999641418457 10.678000450134277,-8.423999786376953 C15.704000473022461,-4.841000080108643 19.989999771118164,-0.22300000488758087 23.388999938964844,5.02400016784668z"></path></g><g opacity="1" transform="matrix(1,0,0,1,214.0449981689453,399.2170104980469)"><path stroke-linecap="round" stroke-linejoin="round" fill-opacity="0" stroke="rgb(0,0,0)" stroke-opacity="1" stroke-width="18" d=" M-133.12899780273438,-6.22599983215332 C-86.05500030517578,-3.8980000019073486 -42.19599914550781,6.22599983215332 0.14800000190734863,2.8269999027252197 C23.315000534057617,0.9800000190734863 46.59299850463867,1.8289999961853027 69.7239990234375,1.4600000381469727 C91.04399871826172,1.1269999742507935 112.21600341796875,-0.23999999463558197 133.12899780273438,-5.708000183105469"></path></g><g opacity="1" transform="matrix(1,0,0,1,101.44000244140625,291.1919860839844)"><path stroke-linecap="round" stroke-linejoin="round" fill-opacity="0" stroke="rgb(0,0,0)" stroke-opacity="1" stroke-width="18" d=" M-8.081000328063965,1.2649999856948853 C-3.006999969482422,-0.8489999771118164 2.75600004196167,-1.2649999856948853 8.081000328063965,0.0949999988079071"></path></g><g opacity="1" transform="matrix(1,0,0,1,111.33699798583984,178.08399963378906)"><path stroke-linecap="round" stroke-linejoin="round" fill-opacity="0" stroke="rgb(0,0,0)" stroke-opacity="1" stroke-width="18" d=" M-5.448999881744385,0.20200000703334808 C-1.8170000314712524,0.06700000166893005 1.8170000314712524,-0.06700000166893005 5.448999881744385,-0.20200000703334808"></path></g><g opacity="1" transform="matrix(1,0,0,1,168.81199645996094,253.375)"><path stroke-linecap="round" stroke-linejoin="round" fill-opacity="0" stroke="rgb(0,0,0)" stroke-opacity="1" stroke-width="18" d=" M-7.679999828338623,1.9320000410079956 C-3.3610000610351562,-1.3309999704360962 2.812000036239624,-1.9320000410079956 7.679999828338623,0.4350000023841858"></path></g><g opacity="1" transform="matrix(1,0,0,1,239.16400146484375,242.38099670410156)"><path stroke-linecap="round" stroke-linejoin="round" fill-opacity="0" stroke="rgb(0,0,0)" stroke-opacity="1" stroke-width="18" d=" M-9.960000038146973,0.8370000123977661 C-3.8429999351501465,-2.9200000762939453 4.752999782562256,-2.0209999084472656 9.960000038146973,2.9200000762939453"></path></g><g opacity="1" transform="matrix(1,0,0,1,245.5399932861328,120.47599792480469)"><path stroke-linecap="round" stroke-linejoin="round" fill-opacity="0" stroke="rgb(0,0,0)" stroke-opacity="1" stroke-width="18" d=" M-8.086000442504883,0.08299999684095383 C-2.8359999656677246,-2.0820000171661377 3.5209999084472656,-1.2970000505447388 8.086000442504883,2.0820000171661377"></path></g><g opacity="1" transform="matrix(1,0,0,1,172.94900512695312,134.60299682617188)"><path stroke-linecap="round" stroke-linejoin="round" fill-opacity="0" stroke="rgb(0,0,0)" stroke-opacity="1" stroke-width="18" d=" M-6.28000020980835,1.6649999618530273 C-2.828000068664551,-1.343999981880188 2.109999895095825,-1.6649999618530273 6.28000020980835,0.8489999771118164"></path></g><g opacity="1" transform="matrix(1,0,0,1,316.385009765625,248.2760009765625)"><path stroke-linecap="round" stroke-linejoin="round" fill-opacity="0" stroke="rgb(0,0,0)" stroke-opacity="1" stroke-width="18" d=" M-7.063000202178955,0.27000001072883606 C-2.684999942779541,-2.63700008392334 3.871000051498413,-1.5379999876022339 7.063000202178955,2.63700008392334"></path></g><g opacity="1" transform="matrix(1,0,0,1,312.58099365234375,135.20799255371094)"><path stroke-linecap="round" stroke-linejoin="round" fill-opacity="0" stroke="rgb(0,0,0)" stroke-opacity="1" stroke-width="18" d=" M-7.645999908447266,0.9599999785423279 C-2.7060000896453857,-0.49799999594688416 2.5269999504089355,-0.9599999785423279 7.645999908447266,-0.38999998569488525"></path></g><g opacity="1" transform="matrix(1,0,0,1,226.7779998779297,549.4039916992188)"><path stroke-linecap="round" stroke-linejoin="round" fill-opacity="0" stroke="rgb(0,0,0)" stroke-opacity="1" stroke-width="18" d=" M-46.2140007019043,-3.003000020980835 C-15.404999732971191,-1.0010000467300415 15.404999732971191,1.0019999742507935 46.2140007019043,3.003000020980835"></path></g><g opacity="1" transform="matrix(1,0,0,1,299.37298583984375,552.4739990234375)"><path stroke-linecap="round" stroke-linejoin="round" fill-opacity="0" stroke="rgb(0,0,0)" stroke-opacity="1" stroke-width="18" d=" M-1.9259999990463257,0.21400000154972076 C-0.6420000195503235,0.07100000232458115 0.6420000195503235,-0.07000000029802322 1.9259999990463257,-0.21400000154972076"></path></g><g opacity="1" transform="matrix(1,0,0,1,0,0)"><path stroke-linecap="round" stroke-linejoin="round" fill-opacity="0" stroke="rgb(0,0,0)" stroke-opacity="1" stroke-width="18" d=" M135.7010040283203,439.1650085449219 C135.7010040283203,439.1650085449219 140.71299743652344,439.1650085449219 140.71299743652344,439.1650085449219"></path></g><g opacity="1" transform="matrix(1,0,0,1,212.12600708007812,440.9330139160156)"><path stroke-linecap="round" stroke-linejoin="round" fill-opacity="0" stroke="rgb(0,0,0)" stroke-opacity="1" stroke-width="18" d=" M-41.97600173950195,-0.5479999780654907 C-13.991999626159668,-0.18299999833106995 13.991999626159668,0.18299999833106995 41.97600173950195,0.5479999780654907"></path></g></g><g transform="matrix(1,0,0,1,458.67401123046875,449.52142333984375)" opacity="1" style="display: block;"><g opacity="1" transform="matrix(1,0,0,1,102.71399688720703,344.7829895019531)"><path fill="rgb(255,255,255)" fill-opacity="1" d=" M49.04600143432617,-31.28499984741211 C30.06399917602539,-37.49100112915039 -0.2759999930858612,-73.7699966430664 -19.260000228881836,-79.97699737548828 C-28.579999923706055,-83.02400207519531 -39.308998107910156,-85.94300079345703 -47.7140007019043,-80.88800048828125 C-53.06800079345703,-77.66799926757812 -56.33300018310547,-71.58699798583984 -57.02299880981445,-65.37699890136719 C-57.7140007019043,-59.16699981689453 -56.05500030517578,-52.86899948120117 -53.28099822998047,-47.26900100708008 C-49.0629997253418,-38.7599983215332 -42.409000396728516,-31.743999481201172 -35.7869987487793,-24.93400001525879 C2.0360000133514404,13.960000038146973 15.744999885559082,51.56399917602539 57.7140007019043,85.94400024414062"></path><path stroke-linecap="round" stroke-linejoin="round" fill-opacity="0" stroke="rgb(0,0,0)" stroke-opacity="1" stroke-width="18" d=" M49.04600143432617,-31.28499984741211 C30.06399917602539,-37.49100112915039 -0.2759999930858612,-73.7699966430664 -19.260000228881836,-79.97699737548828 C-28.579999923706055,-83.02400207519531 -39.308998107910156,-85.94300079345703 -47.7140007019043,-80.88800048828125 C-53.06800079345703,-77.66799926757812 -56.33300018310547,-71.58699798583984 -57.02299880981445,-65.37699890136719 C-57.7140007019043,-59.16699981689453 -56.05500030517578,-52.86899948120117 -53.28099822998047,-47.26900100708008 C-49.0629997253418,-38.7599983215332 -42.409000396728516,-31.743999481201172 -35.7869987487793,-24.93400001525879 C2.0360000133514404,13.960000038146973 15.744999885559082,51.56399917602539 57.7140007019043,85.94400024414062"></path></g><g opacity="1" transform="matrix(1,0,0,1,282.02301025390625,523.4970092773438)"><path fill="rgb(255,255,255)" fill-opacity="1" d=" M-108.9739990234375,-62.768001556396484 C-111.35399627685547,-34.1619987487793 -113.73600006103516,-5.553999900817871 -116.11599731445312,23.05299949645996 C-116.85900115966797,31.98200035095215 -117.44599914550781,41.60900115966797 -112.75,49.2400016784668 C-108.56900024414062,56.0369987487793 -100.79199981689453,59.96900177001953 -92.93599700927734,61.36800003051758 C-85.0790023803711,62.766998291015625 -77.01899719238281,61.96099853515625 -69.0719985961914,61.22999954223633 C-44.63199996948242,58.97800064086914 -20.125999450683594,57.45199966430664 4.4019999504089355,56.65399932861328 C34.77399826049805,55.66600036621094 63.89400100708008,52.90999984741211 93.6969985961914,51.965999603271484 C107.43199920654297,51.53200149536133 117.4469985961914,39.10300064086914 115.16899871826172,25.548999786376953 C110.5459976196289,-1.937999963760376 109.43299865722656,-30.016000747680664 111.90399932861328,-57.779998779296875"></path><path stroke-linecap="round" stroke-linejoin="round" fill-opacity="0" stroke="rgb(0,0,0)" stroke-opacity="1" stroke-width="18" d=" M-108.9739990234375,-62.768001556396484 C-111.35399627685547,-34.1619987487793 -113.73600006103516,-5.553999900817871 -116.11599731445312,23.05299949645996 C-116.85900115966797,31.98200035095215 -117.44599914550781,41.60900115966797 -112.75,49.2400016784668 C-108.56900024414062,56.0369987487793 -100.79199981689453,59.96900177001953 -92.93599700927734,61.36800003051758 C-85.0790023803711,62.766998291015625 -77.01899719238281,61.96099853515625 -69.0719985961914,61.22999954223633 C-44.63199996948242,58.97800064086914 -20.125999450683594,57.45199966430664 4.4019999504089355,56.65399932861328 C34.77399826049805,55.66600036621094 63.89400100708008,52.90999984741211 93.6969985961914,51.965999603271484 C107.43199920654297,51.53200149536133 117.4469985961914,39.10300064086914 115.16899871826172,25.548999786376953 C110.5459976196289,-1.937999963760376 109.43299865722656,-30.016000747680664 111.90399932861328,-57.779998779296875"></path></g><g opacity="1" transform="matrix(1,0,0,1,348.6910095214844,302.2969970703125)"><path fill="rgb(0,0,0)" fill-opacity="1" d=" M-112.88099670410156,-236.9010009765625 C-107.4489974975586,-240.04200744628906 -101.27899932861328,-241.88800048828125 -94.99700164794922,-242.03599548339844 C-80.29100036621094,-242.40499877929688 -65.73400115966797,-233.5749969482422 -59.30500030517578,-220.3470001220703 C-58.75,-219.20199584960938 -58.27000045776367,-218.05599975585938 -57.82600021362305,-216.91099548339844 C-57.82600021362305,-216.91099548339844 -57.9379997253418,-217.42799377441406 -57.9379997253418,-217.42799377441406 C-33.624000549316406,-226.85000610351562 -5.210000038146973,-211.47900390625 8.274999618530273,-189.16200256347656 C13.079999923706055,-181.21800231933594 16.40399932861328,-172.64599609375 18.73200035095215,-163.70399475097656 C18.73200035095215,-163.70399475097656 22.20599937438965,-169.98500061035156 22.20599937438965,-169.98500061035156 C36.356998443603516,-174.8249969482422 52.430999755859375,-167.50999450683594 61.88999938964844,-155.98199462890625 C71.38600158691406,-144.45399475097656 75.5979995727539,-129.52499389648438 78.8489990234375,-114.96700286865234 C97.98999786376953,-28.763999938964844 91.302001953125,62.94300079345703 60.189998626708984,145.52499389648438 C57.23400115966797,153.4320068359375 51.47100067138672,159.71299743652344 44.303001403808594,163.3699951171875 C44.303001403808594,163.3699951171875 45.22600173950195,163.4080047607422 45.22600173950195,163.4080047607422 C42.750999450683594,191.19400024414062 43.895999908447266,219.27499389648438 48.51499938964844,246.76600646972656 C49.143001556396484,250.4239959716797 48.847999572753906,254.00799560546875 47.8129997253418,257.2969970703125 C58.38100051879883,254.08099365234375 65.3280029296875,243.36700439453125 63.40700149536133,231.87600708007812 C58.78799819946289,204.38600158691406 57.641998291015625,176.3040008544922 60.11800003051758,148.51800537109375 C60.11800003051758,148.51800537109375 59.19300079345703,148.4810028076172 59.19300079345703,148.4810028076172 C66.36100006103516,144.822998046875 72.1259994506836,138.54100036621094 75.08200073242188,130.63400268554688 C106.19200134277344,48.051998138427734 112.88099670410156,-43.654998779296875 93.74099731445312,-129.85800170898438 C90.48799896240234,-144.41600036621094 86.2760009765625,-159.343994140625 76.78099822998047,-170.8719940185547 C67.3219985961914,-182.39999389648438 51.249000549316406,-189.71600341796875 37.09700012207031,-184.87600708007812 C37.09700012207031,-184.87600708007812 33.624000549316406,-178.59500122070312 33.624000549316406,-178.59500122070312 C31.29599952697754,-187.53700256347656 27.97100067138672,-196.10899353027344 23.16699981689453,-204.05299377441406 C9.680000305175781,-226.3699951171875 -18.735000610351562,-241.74099731445312 -43.04600143432617,-232.31900024414062 C-43.04600143432617,-232.31900024414062 -42.93600082397461,-231.802001953125 -42.93600082397461,-231.802001953125 C-43.37799835205078,-232.94700622558594 -43.86000061035156,-234.09300231933594 -44.41299819946289,-235.23800659179688 C-50.84199905395508,-248.46600341796875 -65.4010009765625,-257.2969970703125 -80.10700225830078,-256.9280090332031 C-93.48400115966797,-256.593994140625 -106.41500091552734,-248.57699584960938 -112.88099670410156,-236.9010009765625z"></path><path stroke-linecap="round" stroke-linejoin="round" fill-opacity="0" stroke="rgb(0,0,0)" stroke-opacity="1" stroke-width="18" d=" M-112.88099670410156,-236.9010009765625 C-107.4489974975586,-240.04200744628906 -101.27899932861328,-241.88800048828125 -94.99700164794922,-242.03599548339844 C-80.29100036621094,-242.40499877929688 -65.73400115966797,-233.5749969482422 -59.30500030517578,-220.3470001220703 C-58.75,-219.20199584960938 -58.27000045776367,-218.05599975585938 -57.82600021362305,-216.91099548339844 C-57.82600021362305,-216.91099548339844 -57.9379997253418,-217.42799377441406 -57.9379997253418,-217.42799377441406 C-33.624000549316406,-226.85000610351562 -5.210000038146973,-211.47900390625 8.274999618530273,-189.16200256347656 C13.079999923706055,-181.21800231933594 16.40399932861328,-172.64599609375 18.73200035095215,-163.70399475097656 C18.73200035095215,-163.70399475097656 22.20599937438965,-169.98500061035156 22.20599937438965,-169.98500061035156 C36.356998443603516,-174.8249969482422 52.430999755859375,-167.50999450683594 61.88999938964844,-155.98199462890625 C71.38600158691406,-144.45399475097656 75.5979995727539,-129.52499389648438 78.8489990234375,-114.96700286865234 C97.98999786376953,-28.763999938964844 91.302001953125,62.94300079345703 60.189998626708984,145.52499389648438 C57.23400115966797,153.4320068359375 51.47100067138672,159.71299743652344 44.303001403808594,163.3699951171875 C44.303001403808594,163.3699951171875 45.22600173950195,163.4080047607422 45.22600173950195,163.4080047607422 C42.750999450683594,191.19400024414062 43.895999908447266,219.27499389648438 48.51499938964844,246.76600646972656 C49.143001556396484,250.4239959716797 48.847999572753906,254.00799560546875 47.8129997253418,257.2969970703125 C58.38100051879883,254.08099365234375 65.3280029296875,243.36700439453125 63.40700149536133,231.87600708007812 C58.78799819946289,204.38600158691406 57.641998291015625,176.3040008544922 60.11800003051758,148.51800537109375 C60.11800003051758,148.51800537109375 59.19300079345703,148.4810028076172 59.19300079345703,148.4810028076172 C66.36100006103516,144.822998046875 72.1259994506836,138.54100036621094 75.08200073242188,130.63400268554688 C106.19200134277344,48.051998138427734 112.88099670410156,-43.654998779296875 93.74099731445312,-129.85800170898438 C90.48799896240234,-144.41600036621094 86.2760009765625,-159.343994140625 76.78099822998047,-170.8719940185547 C67.3219985961914,-182.39999389648438 51.249000549316406,-189.71600341796875 37.09700012207031,-184.87600708007812 C37.09700012207031,-184.87600708007812 33.624000549316406,-178.59500122070312 33.624000549316406,-178.59500122070312 C31.29599952697754,-187.53700256347656 27.97100067138672,-196.10899353027344 23.16699981689453,-204.05299377441406 C9.680000305175781,-226.3699951171875 -18.735000610351562,-241.74099731445312 -43.04600143432617,-232.31900024414062 C-43.04600143432617,-232.31900024414062 -42.93600082397461,-231.802001953125 -42.93600082397461,-231.802001953125 C-43.37799835205078,-232.94700622558594 -43.86000061035156,-234.09300231933594 -44.41299819946289,-235.23800659179688 C-50.84199905395508,-248.46600341796875 -65.4010009765625,-257.2969970703125 -80.10700225830078,-256.9280090332031 C-93.48400115966797,-256.593994140625 -106.41500091552734,-248.57699584960938 -112.88099670410156,-236.9010009765625z"></path></g><g opacity="1" transform="matrix(1,0,0,1,295.0369873046875,267.1600036621094)"><path fill="rgb(255,255,255)" fill-opacity="1" d=" M-132.4320068359375,171.93299865722656 C-131.36700439453125,187.5760040283203 -119.3489990234375,200.16200256347656 -103.77799987792969,202.2239990234375 C-66.09100341796875,207.27200317382812 -26.628999710083008,206.06399536132812 10.842000007629395,204.28599548339844 C35.1609992980957,203.1490020751953 59.62099838256836,202.86399841308594 84.00900268554688,202.1529998779297 C97.4489974975586,201.7259979248047 109.11100006103516,193.19400024414062 113.875,180.67799377441406 C144.947998046875,98.05500030517578 151.63099670410156,6.400000095367432 132.5050048828125,-79.8499984741211 C129.23399353027344,-94.427001953125 125.03900146484375,-109.28800201416016 115.58200073242188,-120.80699920654297 C106.0530014038086,-132.3979949951172 89.98400115966797,-139.7209930419922 75.90599822998047,-134.88600158691406 C75.90599822998047,-134.88600158691406 69.1500015258789,-138.8679962158203 69.1500015258789,-138.8679962158203 C67.2300033569336,-144.1300048828125 64.81400299072266,-149.17799377441406 61.89799880981445,-154.01300048828125 C48.529998779296875,-176.197998046875 20.37299919128418,-191.48500061035156 -3.802999973297119,-182.4550018310547 C-4.086999893188477,-183.37899780273438 -4.514999866485596,-184.30299377441406 -4.940999984741211,-185.22799682617188 C-11.411999702453613,-198.45399475097656 -25.916000366210938,-207.27200317382812 -40.6349983215332,-206.91600036621094 C-55.354000091552734,-206.48800659179688 -69.43199920654297,-196.96099853515625 -75.19200134277344,-183.4499969482422 C-75.19200134277344,-183.4499969482422 -79.24600219726562,-183.8780059814453 -79.24600219726562,-183.8780059814453 C-81.73600006103516,-187.218994140625 -85.14700317382812,-189.92100524902344 -89.6989974975586,-191.48500061035156 C-97.59100341796875,-194.25799560546875 -106.26499938964844,-192.1959991455078 -113.0199966430664,-187.36099243164062 C-122.5479965209961,-180.53500366210938 -129.51699829101562,-170.01100158691406 -132.50399780273438,-158.7050018310547 C-151.63099670410156,-85.68000030517578 -141.24899291992188,43.944000244140625 -132.4320068359375,171.93299865722656z"></path><path stroke-linecap="round" stroke-linejoin="round" fill-opacity="0" stroke="rgb(0,0,0)" stroke-opacity="1" stroke-width="18" d=" M-132.4320068359375,171.93299865722656 C-131.36700439453125,187.5760040283203 -119.3489990234375,200.16200256347656 -103.77799987792969,202.2239990234375 C-66.09100341796875,207.27200317382812 -26.628999710083008,206.06399536132812 10.842000007629395,204.28599548339844 C35.1609992980957,203.1490020751953 59.62099838256836,202.86399841308594 84.00900268554688,202.1529998779297 C97.4489974975586,201.7259979248047 109.11100006103516,193.19400024414062 113.875,180.67799377441406 C144.947998046875,98.05500030517578 151.63099670410156,6.400000095367432 132.5050048828125,-79.8499984741211 C129.23399353027344,-94.427001953125 125.03900146484375,-109.28800201416016 115.58200073242188,-120.80699920654297 C106.0530014038086,-132.3979949951172 89.98400115966797,-139.7209930419922 75.90599822998047,-134.88600158691406 C75.90599822998047,-134.88600158691406 69.1500015258789,-138.8679962158203 69.1500015258789,-138.8679962158203 C67.2300033569336,-144.1300048828125 64.81400299072266,-149.17799377441406 61.89799880981445,-154.01300048828125 C48.529998779296875,-176.197998046875 20.37299919128418,-191.48500061035156 -3.802999973297119,-182.4550018310547 C-4.086999893188477,-183.37899780273438 -4.514999866485596,-184.30299377441406 -4.940999984741211,-185.22799682617188 C-11.411999702453613,-198.45399475097656 -25.916000366210938,-207.27200317382812 -40.6349983215332,-206.91600036621094 C-55.354000091552734,-206.48800659179688 -69.43199920654297,-196.96099853515625 -75.19200134277344,-183.4499969482422 C-75.19200134277344,-183.4499969482422 -79.24600219726562,-183.8780059814453 -79.24600219726562,-183.8780059814453 C-81.73600006103516,-187.218994140625 -85.14700317382812,-189.92100524902344 -89.6989974975586,-191.48500061035156 C-97.59100341796875,-194.25799560546875 -106.26499938964844,-192.1959991455078 -113.0199966430664,-187.36099243164062 C-122.5479965209961,-180.53500366210938 -129.51699829101562,-170.01100158691406 -132.50399780273438,-158.7050018310547 C-151.63099670410156,-85.68000030517578 -141.24899291992188,43.944000244140625 -132.4320068359375,171.93299865722656z"></path></g><g opacity="1" transform="matrix(1,0,0,1,203.55299377441406,236.8280029296875)"><path stroke-linecap="round" stroke-linejoin="round" fill-opacity="0" stroke="rgb(0,0,0)" stroke-opacity="1" stroke-width="18" d=" M-21.53700065612793,-157.0229949951172 C-14.756999969482422,-161.88999938964844 -6.091000080108643,-163.92100524902344 1.7949999570846558,-161.1840057373047 C17.648000717163086,-155.67999267578125 19.700000762939453,-137.01300048828125 19.958999633789062,-121.45099639892578 C21.53700065612793,-26.333999633789062 21.30299949645996,68.81300354003906 19.2549991607666,163.92100524902344"></path></g><g opacity="1" transform="matrix(1,0,0,1,332.3840026855469,237.97999572753906)"><path stroke-linecap="round" stroke-linejoin="round" fill-opacity="0" stroke="rgb(0,0,0)" stroke-opacity="1" stroke-width="18" d=" M17.045000076293945,162.531005859375 C33.73699951171875,93.31900024414062 41.62900161743164,21.989999771118164 40.472999572753906,-49.198001861572266 C40.04899978637695,-75.27100372314453 38.066001892089844,-102.51599884033203 24.576000213623047,-124.83300018310547 C11.088000297546387,-147.14999389648438 -17.312999725341797,-162.531005859375 -41.62900161743164,-153.10499572753906"></path></g><g opacity="1" transform="matrix(1,0,0,1,262.2120056152344,231.3179931640625)"><path stroke-linecap="round" stroke-linejoin="round" fill-opacity="0" stroke="rgb(0,0,0)" stroke-opacity="1" stroke-width="18" d=" M33.130001068115234,171.4250030517578 C42.354000091552734,117.49800109863281 40.29899978637695,62.35900115966797 38.21500015258789,7.689000129699707 C36.61800003051758,-34.236000061035156 35.020999908447266,-76.16000366210938 33.42399978637695,-118.08499908447266 C33.018001556396484,-128.74600219726562 32.5260009765625,-139.76300048828125 27.858999252319336,-149.35699462890625 C21.423999786376953,-162.58200073242188 6.883999824523926,-171.4250030517578 -7.817999839782715,-171.05299377441406 C-22.520000457763672,-170.6820068359375 -36.59700012207031,-161.11599731445312 -42.354000091552734,-147.58299255371094"></path></g><g opacity="1" transform="matrix(1,0,0,1,207.5800018310547,73.34100341796875)"><path fill="rgb(0,0,0)" fill-opacity="1" d=" M-23.38800048828125,5.02400016784668 C-16.996000289916992,1.218000054359436 -9.3100004196167,-0.14800000190734863 -2.2160000801086426,2.2909998893737793 C4.583000183105469,4.61899995803833 8.831999778747559,9.420999526977539 11.529000282287598,15.333000183105469 C11.343000411987305,13.041999816894531 11.342000007629395,11.380000114440918 11.60200023651123,10.383000373840332 C14.151000022888184,4.434000015258789 18.253000259399414,-0.7400000095367432 23.38800048828125,-4.692999839782715 C20.839000701904297,-8.20300006866455 17.365999221801758,-11.010000228881836 12.673999786376953,-12.598999977111816 C4.765999794006348,-15.333000183105469 -3.878000020980835,-13.300999641418457 -10.677000045776367,-8.423999786376953 C-15.70300006866455,-4.840000152587891 -19.989999771118164,-0.22300000488758087 -23.38800048828125,5.02400016784668z"></path><path stroke-linecap="round" stroke-linejoin="round" fill-opacity="0" stroke="rgb(0,0,0)" stroke-opacity="1" stroke-width="18" d=" M-23.38800048828125,5.02400016784668 C-16.996000289916992,1.218000054359436 -9.3100004196167,-0.14800000190734863 -2.2160000801086426,2.2909998893737793 C4.583000183105469,4.61899995803833 8.831999778747559,9.420999526977539 11.529000282287598,15.333000183105469 C11.343000411987305,13.041999816894531 11.342000007629395,11.380000114440918 11.60200023651123,10.383000373840332 C14.151000022888184,4.434000015258789 18.253000259399414,-0.7400000095367432 23.38800048828125,-4.692999839782715 C20.839000701904297,-8.20300006866455 17.365999221801758,-11.010000228881836 12.673999786376953,-12.598999977111816 C4.765999794006348,-15.333000183105469 -3.878000020980835,-13.300999641418457 -10.677000045776367,-8.423999786376953 C-15.70300006866455,-4.840000152587891 -19.989999771118164,-0.22300000488758087 -23.38800048828125,5.02400016784668z"></path></g><g opacity="1" transform="matrix(1,0,0,1,292.52801513671875,399.21600341796875)"><path stroke-linecap="round" stroke-linejoin="round" fill-opacity="0" stroke="rgb(0,0,0)" stroke-opacity="1" stroke-width="18" d=" M-133.12899780273438,-5.708000183105469 C-112.21600341796875,-0.23899999260902405 -91.04399871826172,1.128999948501587 -69.7239990234375,1.4609999656677246 C-46.59400177001953,1.8300000429153442 -23.31599998474121,0.9800000190734863 -0.14900000393390656,2.8269999027252197 C42.19599914550781,6.2270002365112305 86.05500030517578,-3.8980000019073486 133.12899780273438,-6.2270002365112305"></path></g><g opacity="1" transform="matrix(1,0,0,1,405.1310119628906,291.1919860839844)"><path stroke-linecap="round" stroke-linejoin="round" fill-opacity="0" stroke="rgb(0,0,0)" stroke-opacity="1" stroke-width="18" d=" M8.081999778747559,1.2649999856948853 C3.009000062942505,-0.8479999899864197 -2.756999969482422,-1.2649999856948853 -8.081999778747559,0.09399999678134918"></path></g><g opacity="1" transform="matrix(1,0,0,1,395.2340087890625,178.08299255371094)"><path stroke-linecap="round" stroke-linejoin="round" fill-opacity="0" stroke="rgb(0,0,0)" stroke-opacity="1" stroke-width="18" d=" M5.448999881744385,0.20200000703334808 C1.815999984741211,0.06700000166893005 -1.8179999589920044,-0.06700000166893005 -5.448999881744385,-0.20200000703334808"></path></g><g opacity="1" transform="matrix(1,0,0,1,337.760009765625,253.37399291992188)"><path stroke-linecap="round" stroke-linejoin="round" fill-opacity="0" stroke="rgb(0,0,0)" stroke-opacity="1" stroke-width="18" d=" M7.679999828338623,1.9320000410079956 C3.3610000610351562,-1.3320000171661377 -2.812000036239624,-1.9320000410079956 -7.679999828338623,0.4350000023841858"></path></g><g opacity="1" transform="matrix(1,0,0,1,267.4070129394531,242.38099670410156)"><path stroke-linecap="round" stroke-linejoin="round" fill-opacity="0" stroke="rgb(0,0,0)" stroke-opacity="1" stroke-width="18" d=" M9.960000038146973,0.8370000123977661 C3.8429999351501465,-2.9210000038146973 -4.752999782562256,-2.0209999084472656 -9.960000038146973,2.9200000762939453"></path></g><g opacity="1" transform="matrix(1,0,0,1,261.031005859375,120.47599792480469)"><path stroke-linecap="round" stroke-linejoin="round" fill-opacity="0" stroke="rgb(0,0,0)" stroke-opacity="1" stroke-width="18" d=" M8.086999893188477,0.08299999684095383 C2.8369998931884766,-2.0820000171661377 -3.5220000743865967,-1.2970000505447388 -8.086999893188477,2.0820000171661377"></path></g><g opacity="1" transform="matrix(1,0,0,1,333.6210021972656,134.60400390625)"><path stroke-linecap="round" stroke-linejoin="round" fill-opacity="0" stroke="rgb(0,0,0)" stroke-opacity="1" stroke-width="18" d=" M6.281000137329102,1.6640000343322754 C2.8289999961853027,-1.3450000286102295 -2.1110000610351562,-1.6640000343322754 -6.281000137329102,0.8489999771118164"></path></g><g opacity="1" transform="matrix(1,0,0,1,190.18600463867188,248.27699279785156)"><path stroke-linecap="round" stroke-linejoin="round" fill-opacity="0" stroke="rgb(0,0,0)" stroke-opacity="1" stroke-width="18" d=" M7.063000202178955,0.27000001072883606 C2.684999942779541,-2.635999917984009 -3.871000051498413,-1.5390000343322754 -7.063000202178955,2.635999917984009"></path></g><g opacity="1" transform="matrix(1,0,0,1,193.98899841308594,135.20700073242188)"><path stroke-linecap="round" stroke-linejoin="round" fill-opacity="0" stroke="rgb(0,0,0)" stroke-opacity="1" stroke-width="18" d=" M7.645999908447266,0.9599999785423279 C2.7070000171661377,-0.49799999594688416 -2.5269999504089355,-0.9599999785423279 -7.645999908447266,-0.38999998569488525"></path></g><g opacity="1" transform="matrix(1,0,0,1,279.7929992675781,549.4039916992188)"><path stroke-linecap="round" stroke-linejoin="round" fill-opacity="0" stroke="rgb(0,0,0)" stroke-opacity="1" stroke-width="18" d=" M46.2140007019043,-3.002000093460083 C15.404999732971191,-1.0010000467300415 -15.404000282287598,1.0010000467300415 -46.2140007019043,3.002000093460083"></path></g><g opacity="1" transform="matrix(1,0,0,1,207.19900512695312,552.4749755859375)"><path stroke-linecap="round" stroke-linejoin="round" fill-opacity="0" stroke="rgb(0,0,0)" stroke-opacity="1" stroke-width="18" d=" M1.9259999990463257,0.21400000154972076 C0.6420000195503235,0.07000000029802322 -0.640999972820282,-0.07100000232458115 -1.9259999990463257,-0.21400000154972076"></path></g><g opacity="1" transform="matrix(1,0,0,1,0,0)"><path stroke-linecap="round" stroke-linejoin="round" fill-opacity="0" stroke="rgb(0,0,0)" stroke-opacity="1" stroke-width="18" d=" M370.8699951171875,439.16400146484375 C370.8699951171875,439.16400146484375 365.8580017089844,439.16400146484375 365.8580017089844,439.16400146484375"></path></g><g opacity="1" transform="matrix(1,0,0,1,294.44500732421875,440.9330139160156)"><path stroke-linecap="round" stroke-linejoin="round" fill-opacity="0" stroke="rgb(0,0,0)" stroke-opacity="1" stroke-width="18" d=" M41.97600173950195,-0.5479999780654907 C13.993000030517578,-0.18400000035762787 -13.991999626159668,0.1809999942779541 -41.97600173950195,0.546999990940094"></path></g></g></g></svg>