<?xml version="1.0" encoding="UTF-8"?>
<svg xmlns="http://www.w3.org/2000/svg" xmlns:xlink="http://www.w3.org/1999/xlink" width="19px" height="26px" viewBox="0 0 19 25" version="1.1">
<g id="surface1">
<path style=" stroke:none;fill-rule:nonzero;fill:rgb(0%,0%,0%);fill-opacity:1;" d="M 8.539062 0.0585938 C 8.699219 0.0585938 8.863281 0.0585938 9.023438 0.0585938 C 9.128906 0.0585938 9.230469 0.0585938 9.335938 0.0585938 C 9.429688 0.0585938 9.523438 0.0585938 9.617188 0.0585938 C 10.011719 0.0859375 10.3125 0.152344 10.625 0.390625 C 10.804688 0.617188 10.824219 0.757812 10.859375 1.039062 C 10.921875 1.035156 10.980469 1.035156 11.042969 1.035156 C 11.320312 1.03125 11.597656 1.027344 11.875 1.023438 C 12.015625 1.019531 12.015625 1.019531 12.164062 1.019531 C 13.058594 1.011719 13.058594 1.011719 13.476562 1.257812 C 13.847656 1.625 14.007812 1.960938 14.015625 2.476562 C 14.015625 2.597656 14.011719 2.714844 14.011719 2.835938 C 14.011719 2.894531 14.007812 2.957031 14.007812 3.019531 C 14.007812 3.171875 14.003906 3.320312 14 3.472656 C 14.046875 3.480469 14.089844 3.492188 14.136719 3.503906 C 15.050781 3.738281 15.996094 4.164062 16.695312 4.796875 C 16.746094 4.84375 16.796875 4.886719 16.847656 4.933594 C 17.445312 5.480469 17.804688 6.101562 18.0625 6.859375 C 18.082031 6.910156 18.101562 6.964844 18.117188 7.019531 C 18.371094 7.796875 18.433594 8.585938 18.480469 9.394531 C 18.523438 10.050781 18.601562 10.632812 18.796875 11.261719 C 18.996094 12 19.023438 12.746094 18.671875 13.4375 C 18.261719 13.914062 17.664062 14.179688 17.097656 14.441406 C 17.03125 14.472656 16.960938 14.503906 16.894531 14.535156 C 16.304688 14.804688 15.707031 15.0625 15.109375 15.316406 C 14.914062 15.398438 14.71875 15.480469 14.523438 15.566406 C 14.464844 15.589844 14.40625 15.613281 14.347656 15.640625 C 14.039062 15.773438 14.039062 15.773438 13.835938 16.023438 C 13.832031 16.085938 13.824219 16.148438 13.820312 16.210938 C 13.8125 16.28125 13.800781 16.355469 13.792969 16.429688 C 13.785156 16.546875 13.785156 16.546875 13.777344 16.671875 C 13.769531 16.761719 13.761719 16.851562 13.753906 16.941406 C 13.730469 17.246094 13.714844 17.546875 13.703125 17.851562 C 13.699219 17.902344 13.699219 17.957031 13.695312 18.011719 C 13.671875 18.664062 13.707031 19.257812 13.871094 19.898438 C 14.152344 21.105469 14.171875 22.859375 13.550781 23.972656 C 13.25 24.351562 12.976562 24.421875 12.519531 24.5 C 12.421875 24.515625 12.421875 24.515625 12.324219 24.535156 C 10.734375 24.808594 9.140625 24.949219 7.53125 24.949219 C 7.46875 24.949219 7.402344 24.949219 7.335938 24.949219 C 5.796875 24.949219 4.296875 24.8125 2.78125 24.535156 C 2.664062 24.515625 2.664062 24.515625 2.546875 24.492188 C 2.121094 24.410156 1.851562 24.332031 1.582031 23.972656 C 1.019531 22.765625 1.132812 21.105469 1.328125 19.820312 C 1.386719 19.328125 1.359375 18.917969 1.25 18.4375 C 1.128906 17.835938 1.113281 17.246094 1.109375 16.632812 C 1.109375 16.539062 1.109375 16.441406 1.109375 16.34375 C 1.105469 15.941406 1.105469 15.539062 1.109375 15.136719 C 1.109375 14.9375 1.109375 14.734375 1.105469 14.535156 C 1.105469 14.347656 1.105469 14.164062 1.109375 13.976562 C 1.101562 13.234375 0.894531 12.628906 0.585938 11.953125 C 0.148438 10.980469 0.0546875 10.007812 0.0625 8.953125 C 0.0625 8.847656 0.0625 8.738281 0.0585938 8.632812 C 0.0585938 8.414062 0.0625 8.195312 0.0625 7.976562 C 0.0625 7.695312 0.0625 7.417969 0.0625 7.136719 C 0.0625 6.921875 0.0625 6.703125 0.0664062 6.484375 C 0.0664062 6.382812 0.0664062 6.28125 0.0664062 6.175781 C 0.0664062 5.304688 0.109375 4.542969 0.6875 3.839844 C 1.222656 3.371094 1.714844 3.105469 2.433594 3.054688 C 2.515625 3.050781 2.59375 3.046875 2.675781 3.039062 C 2.734375 3.035156 2.792969 3.03125 2.855469 3.027344 C 2.863281 2.984375 2.871094 2.941406 2.878906 2.898438 C 2.996094 2.285156 3.25 1.925781 3.753906 1.554688 C 4.199219 1.277344 4.765625 1.3125 5.277344 1.292969 C 5.347656 1.289062 5.414062 1.285156 5.488281 1.28125 C 5.65625 1.273438 5.828125 1.265625 5.996094 1.257812 C 6.027344 1.199219 6.027344 1.199219 6.054688 1.136719 C 6.3125 0.605469 6.3125 0.605469 6.535156 0.421875 C 6.574219 0.386719 6.609375 0.351562 6.648438 0.316406 C 7.226562 0.0117188 7.902344 0.0546875 8.539062 0.0585938 Z M 7.71875 1.847656 C 7.699219 1.894531 7.679688 1.941406 7.65625 1.984375 C 7.632812 2.046875 7.605469 2.105469 7.578125 2.167969 C 7.550781 2.226562 7.527344 2.285156 7.5 2.347656 C 7.417969 2.511719 7.417969 2.511719 7.269531 2.734375 C 7.246094 2.878906 7.246094 2.878906 7.25 3.039062 C 7.25 3.101562 7.25 3.164062 7.25 3.226562 C 7.25 3.296875 7.25 3.363281 7.25 3.433594 C 7.246094 3.542969 7.246094 3.542969 7.246094 3.652344 C 7.246094 3.808594 7.246094 3.960938 7.246094 4.117188 C 7.246094 4.363281 7.246094 4.609375 7.242188 4.855469 C 7.238281 5.558594 7.238281 6.257812 7.234375 6.957031 C 7.234375 7.386719 7.230469 7.816406 7.226562 8.242188 C 7.226562 8.40625 7.226562 8.570312 7.226562 8.734375 C 7.226562 8.960938 7.226562 9.191406 7.222656 9.417969 C 7.222656 9.484375 7.226562 9.554688 7.226562 9.625 C 7.222656 9.6875 7.222656 9.75 7.222656 9.8125 C 7.222656 9.867188 7.222656 9.921875 7.222656 9.976562 C 7.195312 10.109375 7.195312 10.109375 6.96875 10.257812 C 6.628906 10.214844 6.628906 10.214844 6.519531 10.109375 C 6.511719 9.890625 6.507812 9.675781 6.503906 9.457031 C 6.503906 9.386719 6.503906 9.320312 6.503906 9.25 C 6.5 9.023438 6.5 8.796875 6.496094 8.570312 C 6.496094 8.410156 6.492188 8.253906 6.492188 8.097656 C 6.488281 7.683594 6.484375 7.269531 6.480469 6.855469 C 6.476562 6.433594 6.472656 6.011719 6.46875 5.589844 C 6.460938 4.761719 6.453125 3.929688 6.445312 3.101562 C 5.855469 3.101562 5.261719 3.101562 4.652344 3.101562 C 4.578125 3.347656 4.503906 3.589844 4.425781 3.839844 C 4.359375 3.914062 4.296875 3.992188 4.230469 4.070312 C 3.910156 4.476562 3.996094 5.058594 4 5.550781 C 4 5.667969 3.996094 5.785156 3.996094 5.902344 C 3.992188 6.207031 3.992188 6.511719 3.992188 6.820312 C 3.992188 7.132812 3.988281 7.445312 3.984375 7.757812 C 3.980469 8.367188 3.980469 8.980469 3.976562 9.59375 C 3.632812 9.75 3.632812 9.75 3.378906 9.664062 C 3.273438 9.460938 3.292969 9.289062 3.289062 9.0625 C 3.289062 8.964844 3.285156 8.871094 3.285156 8.769531 C 3.28125 8.664062 3.28125 8.558594 3.28125 8.457031 C 3.277344 8.347656 3.277344 8.242188 3.277344 8.132812 C 3.273438 7.851562 3.269531 7.570312 3.265625 7.285156 C 3.261719 6.996094 3.257812 6.710938 3.253906 6.421875 C 3.246094 5.855469 3.238281 5.289062 3.230469 4.726562 C 3.074219 4.742188 2.917969 4.761719 2.761719 4.78125 C 2.675781 4.789062 2.589844 4.800781 2.5 4.8125 C 2.226562 4.878906 2.128906 4.957031 1.957031 5.167969 C 1.855469 5.371094 1.871094 5.535156 1.871094 5.761719 C 1.867188 5.859375 1.867188 5.953125 1.867188 6.050781 C 1.867188 6.152344 1.867188 6.257812 1.867188 6.359375 C 1.863281 6.414062 1.863281 6.464844 1.863281 6.519531 C 1.863281 6.796875 1.863281 7.074219 1.859375 7.351562 C 1.859375 7.636719 1.859375 7.921875 1.855469 8.207031 C 1.851562 8.429688 1.851562 8.648438 1.851562 8.871094 C 1.851562 8.972656 1.851562 9.078125 1.847656 9.183594 C 1.835938 10.183594 2.089844 10.988281 2.523438 11.878906 C 2.835938 12.640625 2.886719 13.449219 2.882812 14.261719 C 2.882812 14.410156 2.886719 14.558594 2.886719 14.707031 C 2.886719 15.066406 2.886719 15.425781 2.886719 15.785156 C 2.882812 17.429688 2.882812 17.429688 3.230469 19.03125 C 6.101562 19.308594 8.957031 19.289062 11.832031 19.03125 C 11.886719 18.648438 11.917969 18.277344 11.929688 17.890625 C 11.949219 17.246094 11.996094 16.609375 12.085938 15.972656 C 12.09375 15.90625 12.101562 15.84375 12.109375 15.777344 C 12.199219 15.183594 12.386719 14.820312 12.863281 14.433594 C 13.128906 14.238281 13.410156 14.105469 13.710938 13.972656 C 13.777344 13.941406 13.84375 13.910156 13.910156 13.878906 C 14.335938 13.6875 14.761719 13.503906 15.191406 13.320312 C 15.242188 13.300781 15.292969 13.277344 15.34375 13.257812 C 15.59375 13.148438 15.847656 13.042969 16.097656 12.9375 C 16.144531 12.917969 16.195312 12.898438 16.242188 12.878906 C 16.371094 12.824219 16.5 12.769531 16.628906 12.71875 C 16.824219 12.625 16.980469 12.539062 17.144531 12.394531 C 17.167969 12.230469 17.167969 12.230469 17.132812 12.046875 C 17.125 11.984375 17.113281 11.917969 17.105469 11.851562 C 17.054688 11.585938 16.992188 11.328125 16.917969 11.066406 C 16.554688 11.136719 16.191406 11.207031 15.832031 11.292969 C 15.132812 11.453125 14.464844 11.539062 13.75 11.542969 C 13.675781 11.542969 13.605469 11.542969 13.527344 11.542969 C 13.132812 11.539062 12.847656 11.507812 12.503906 11.289062 C 12.191406 10.957031 12.1875 10.605469 12.191406 10.171875 C 12.21875 9.78125 12.300781 9.402344 12.378906 9.019531 C 12.394531 8.933594 12.414062 8.847656 12.429688 8.761719 C 12.511719 8.347656 12.605469 7.941406 12.714844 7.535156 C 12.816406 7.003906 12.835938 6.480469 12.847656 5.9375 C 12.847656 5.847656 12.851562 5.753906 12.855469 5.660156 C 12.875 5.210938 12.875 5.210938 12.703125 4.808594 C 12.570312 4.699219 12.570312 4.699219 12.355469 4.578125 C 12.285156 4.367188 12.265625 4.214844 12.257812 3.996094 C 12.253906 3.890625 12.253906 3.890625 12.246094 3.785156 C 12.246094 3.714844 12.242188 3.640625 12.238281 3.566406 C 12.234375 3.496094 12.230469 3.421875 12.230469 3.347656 C 12.222656 3.167969 12.214844 2.988281 12.207031 2.808594 C 11.8125 2.808594 11.414062 2.808594 11.007812 2.808594 C 11.007812 2.890625 11.007812 2.976562 11.007812 3.0625 C 11 3.847656 10.992188 4.636719 10.984375 5.425781 C 10.980469 5.828125 10.976562 6.234375 10.972656 6.640625 C 10.96875 7.03125 10.964844 7.421875 10.960938 7.8125 C 10.957031 7.960938 10.957031 8.109375 10.957031 8.261719 C 10.953125 8.46875 10.953125 8.675781 10.949219 8.886719 C 10.949219 8.949219 10.949219 9.011719 10.949219 9.074219 C 10.941406 9.5 10.941406 9.5 10.859375 9.664062 C 10.683594 9.722656 10.683594 9.722656 10.484375 9.738281 C 10.375 9.667969 10.375 9.667969 10.261719 9.59375 C 10.242188 9.371094 10.234375 9.164062 10.238281 8.945312 C 10.238281 8.84375 10.238281 8.84375 10.238281 8.742188 C 10.238281 8.597656 10.242188 8.449219 10.242188 8.304688 C 10.242188 8.074219 10.246094 7.84375 10.242188 7.613281 C 10.242188 6.953125 10.246094 6.296875 10.25 5.640625 C 10.253906 5.238281 10.253906 4.839844 10.253906 4.4375 C 10.253906 4.285156 10.253906 4.132812 10.257812 3.976562 C 10.257812 3.765625 10.257812 3.550781 10.257812 3.335938 C 10.257812 3.273438 10.261719 3.210938 10.261719 3.144531 C 10.257812 2.964844 10.25 2.828125 10.1875 2.660156 C 10.042969 2.535156 9.902344 2.453125 9.730469 2.371094 C 9.585938 2.292969 9.585938 2.292969 9.449219 2.046875 C 9.3125 1.835938 9.3125 1.835938 9.117188 1.8125 C 8.90625 1.804688 8.699219 1.808594 8.484375 1.820312 C 8.375 1.824219 8.375 1.824219 8.261719 1.828125 C 8.082031 1.832031 7.898438 1.839844 7.71875 1.847656 Z M 13.628906 5.242188 C 13.628906 5.28125 13.628906 5.324219 13.628906 5.363281 C 13.644531 6.613281 13.4375 7.769531 13.164062 8.980469 C 13.148438 9.039062 13.136719 9.101562 13.121094 9.164062 C 13.097656 9.277344 13.070312 9.390625 13.042969 9.503906 C 12.960938 9.859375 12.929688 10.183594 12.953125 10.550781 C 13.074219 10.78125 13.074219 10.78125 13.253906 10.8125 C 13.71875 10.851562 14.144531 10.832031 14.605469 10.761719 C 14.671875 10.753906 14.738281 10.742188 14.808594 10.734375 C 15.457031 10.632812 16.074219 10.457031 16.695312 10.257812 C 16.730469 8.851562 16.660156 7.355469 15.65625 6.265625 C 15.113281 5.75 14.382812 5.332031 13.628906 5.242188 Z M 3.15625 19.769531 C 3.128906 19.910156 3.105469 20.046875 3.082031 20.1875 C 3.0625 20.304688 3.0625 20.304688 3.039062 20.425781 C 2.992188 20.738281 2.984375 21.046875 2.988281 21.363281 C 2.988281 21.421875 2.988281 21.484375 2.988281 21.546875 C 2.992188 21.976562 3.042969 22.375 3.15625 22.792969 C 3.324219 22.828125 3.496094 22.859375 3.667969 22.894531 C 3.8125 22.921875 3.8125 22.921875 3.957031 22.953125 C 5.085938 23.144531 6.207031 23.191406 7.347656 23.1875 C 7.421875 23.1875 7.496094 23.1875 7.574219 23.1875 C 9.09375 23.1875 10.558594 23.039062 12.054688 22.792969 C 12.175781 22.335938 12.230469 21.910156 12.226562 21.4375 C 12.222656 21.347656 12.222656 21.347656 12.222656 21.253906 C 12.25 20.5 12.25 20.5 11.980469 19.84375 C 11.492188 19.816406 11.007812 19.839844 10.519531 19.878906 C 9.621094 19.941406 8.71875 19.929688 7.816406 19.929688 C 7.609375 19.929688 7.402344 19.929688 7.195312 19.933594 C 5.839844 19.9375 4.503906 19.898438 3.15625 19.769531 Z M 3.15625 19.769531 "/>
</g>
</svg>
