<?xml version="1.0" encoding="UTF-8"?>
<svg xmlns="http://www.w3.org/2000/svg" xmlns:xlink="http://www.w3.org/1999/xlink" width="24px" height="24px" viewBox="0 0 24 24" version="1.1">
<g id="surface1">
<path style=" stroke:none;fill-rule:nonzero;fill:rgb(0%,0%,0%);fill-opacity:1;" d="M 4.660156 0.785156 C 4.722656 0.785156 4.785156 0.785156 4.847656 0.785156 C 5.019531 0.785156 5.191406 0.785156 5.363281 0.785156 C 5.546875 0.785156 5.730469 0.785156 5.917969 0.785156 C 6.277344 0.78125 6.640625 0.78125 7 0.78125 C 7.296875 0.78125 7.589844 0.78125 7.882812 0.78125 C 7.925781 0.78125 7.96875 0.78125 8.011719 0.78125 C 8.097656 0.78125 8.179688 0.78125 8.265625 0.78125 C 9.066406 0.78125 9.863281 0.78125 10.660156 0.78125 C 11.390625 0.78125 12.121094 0.78125 12.847656 0.78125 C 13.597656 0.78125 14.347656 0.78125 15.097656 0.78125 C 15.519531 0.78125 15.941406 0.78125 16.359375 0.777344 C 16.71875 0.777344 17.078125 0.777344 17.433594 0.777344 C 17.617188 0.78125 17.800781 0.78125 17.984375 0.777344 C 18.148438 0.777344 18.316406 0.777344 18.484375 0.777344 C 18.574219 0.78125 18.664062 0.777344 18.75 0.777344 C 19.476562 0.78125 20.078125 0.976562 20.609375 1.480469 C 21.066406 1.949219 21.332031 2.492188 21.335938 3.152344 C 21.335938 3.238281 21.335938 3.238281 21.335938 3.328125 C 21.335938 3.394531 21.335938 3.457031 21.335938 3.523438 C 21.335938 3.589844 21.335938 3.660156 21.335938 3.726562 C 21.339844 3.953125 21.339844 4.175781 21.339844 4.398438 C 21.339844 4.476562 21.339844 4.554688 21.339844 4.632812 C 21.339844 4.996094 21.339844 5.359375 21.34375 5.71875 C 21.34375 6.140625 21.34375 6.558594 21.34375 6.976562 C 21.347656 7.300781 21.347656 7.625 21.347656 7.949219 C 21.347656 8.140625 21.347656 8.335938 21.347656 8.527344 C 21.351562 8.710938 21.351562 8.890625 21.351562 9.074219 C 21.351562 9.140625 21.351562 9.207031 21.351562 9.273438 C 21.355469 9.898438 21.355469 9.898438 21.140625 10.125 C 20.9375 10.308594 20.769531 10.34375 20.503906 10.332031 C 20.292969 10.296875 20.164062 10.1875 20.023438 10.03125 C 19.917969 9.851562 19.914062 9.679688 19.914062 9.472656 C 19.914062 9.386719 19.914062 9.386719 19.914062 9.300781 C 19.914062 9.238281 19.914062 9.171875 19.914062 9.109375 C 19.914062 9.042969 19.914062 8.976562 19.914062 8.910156 C 19.914062 8.769531 19.914062 8.625 19.914062 8.484375 C 19.914062 8.257812 19.914062 8.03125 19.910156 7.804688 C 19.910156 7.726562 19.910156 7.648438 19.910156 7.570312 C 19.910156 7.53125 19.910156 7.496094 19.910156 7.453125 C 19.910156 6.929688 19.90625 6.402344 19.90625 5.875 C 19.90625 5.519531 19.90625 5.164062 19.902344 4.808594 C 19.902344 4.621094 19.902344 4.433594 19.902344 4.246094 C 19.902344 4.070312 19.902344 3.890625 19.898438 3.714844 C 19.898438 3.652344 19.898438 3.585938 19.898438 3.519531 C 19.902344 3.132812 19.898438 2.808594 19.621094 2.507812 C 19.398438 2.300781 19.15625 2.238281 18.855469 2.238281 C 18.804688 2.238281 18.75 2.238281 18.695312 2.238281 C 18.609375 2.238281 18.609375 2.238281 18.523438 2.238281 C 18.429688 2.238281 18.429688 2.238281 18.335938 2.238281 C 18.167969 2.234375 17.996094 2.234375 17.824219 2.238281 C 17.640625 2.238281 17.457031 2.234375 17.273438 2.234375 C 16.914062 2.234375 16.554688 2.234375 16.195312 2.234375 C 15.902344 2.234375 15.609375 2.234375 15.320312 2.234375 C 14.488281 2.234375 13.660156 2.234375 12.832031 2.234375 C 12.785156 2.234375 12.742188 2.234375 12.695312 2.234375 C 12.652344 2.234375 12.605469 2.234375 12.558594 2.234375 C 11.835938 2.234375 11.109375 2.230469 10.382812 2.230469 C 9.640625 2.230469 8.894531 2.226562 8.148438 2.230469 C 7.730469 2.230469 7.3125 2.226562 6.894531 2.226562 C 6.539062 2.226562 6.183594 2.226562 5.828125 2.226562 C 5.644531 2.226562 5.464844 2.226562 5.285156 2.226562 C 5.085938 2.226562 4.890625 2.226562 4.691406 2.226562 C 4.636719 2.226562 4.578125 2.226562 4.519531 2.226562 C 4.152344 2.226562 3.898438 2.273438 3.609375 2.519531 C 3.578125 2.554688 3.578125 2.554688 3.546875 2.59375 C 3.523438 2.621094 3.5 2.648438 3.480469 2.671875 C 3.34375 2.890625 3.316406 3.105469 3.316406 3.359375 C 3.316406 3.390625 3.316406 3.421875 3.316406 3.453125 C 3.316406 3.554688 3.316406 3.65625 3.316406 3.757812 C 3.316406 3.832031 3.316406 3.90625 3.316406 3.980469 C 3.316406 4.183594 3.316406 4.386719 3.316406 4.585938 C 3.316406 4.804688 3.316406 5.023438 3.316406 5.242188 C 3.3125 5.671875 3.3125 6.101562 3.3125 6.53125 C 3.3125 6.878906 3.3125 7.226562 3.3125 7.574219 C 3.3125 7.625 3.3125 7.671875 3.3125 7.726562 C 3.3125 7.824219 3.3125 7.925781 3.3125 8.027344 C 3.3125 8.972656 3.3125 9.914062 3.3125 10.859375 C 3.3125 11.722656 3.3125 12.585938 3.3125 13.449219 C 3.3125 14.339844 3.3125 15.226562 3.3125 16.113281 C 3.3125 16.609375 3.3125 17.109375 3.308594 17.605469 C 3.308594 18.03125 3.308594 18.453125 3.308594 18.878906 C 3.3125 19.09375 3.3125 19.308594 3.308594 19.527344 C 3.308594 19.726562 3.308594 19.921875 3.308594 20.121094 C 3.308594 20.191406 3.308594 20.265625 3.308594 20.335938 C 3.296875 20.921875 3.296875 20.921875 3.554688 21.433594 C 3.601562 21.472656 3.601562 21.472656 3.652344 21.507812 C 3.679688 21.535156 3.710938 21.5625 3.742188 21.589844 C 3.996094 21.761719 4.222656 21.761719 4.519531 21.761719 C 4.566406 21.761719 4.609375 21.761719 4.65625 21.761719 C 4.75 21.761719 4.847656 21.761719 4.945312 21.761719 C 5.097656 21.761719 5.246094 21.761719 5.398438 21.765625 C 5.832031 21.765625 6.265625 21.765625 6.699219 21.769531 C 6.960938 21.769531 7.226562 21.769531 7.492188 21.769531 C 7.59375 21.769531 7.691406 21.769531 7.792969 21.769531 C 7.933594 21.769531 8.074219 21.773438 8.214844 21.773438 C 8.257812 21.773438 8.300781 21.773438 8.34375 21.773438 C 8.617188 21.773438 8.773438 21.828125 9 21.984375 C 9.140625 22.128906 9.199219 22.300781 9.210938 22.5 C 9.199219 22.699219 9.140625 22.871094 9 23.015625 C 8.734375 23.199219 8.539062 23.230469 8.21875 23.226562 C 8.175781 23.226562 8.128906 23.226562 8.082031 23.226562 C 7.9375 23.226562 7.792969 23.226562 7.644531 23.226562 C 7.542969 23.226562 7.441406 23.226562 7.339844 23.226562 C 7.125 23.226562 6.910156 23.226562 6.699219 23.226562 C 6.425781 23.222656 6.152344 23.222656 5.878906 23.222656 C 5.667969 23.226562 5.457031 23.222656 5.246094 23.222656 C 5.144531 23.222656 5.046875 23.222656 4.945312 23.222656 C 4.011719 23.226562 3.253906 23.148438 2.542969 22.476562 C 2.070312 21.960938 1.871094 21.328125 1.867188 20.632812 C 1.867188 20.605469 1.867188 20.574219 1.867188 20.542969 C 1.867188 20.441406 1.867188 20.339844 1.867188 20.238281 C 1.867188 20.164062 1.867188 20.089844 1.867188 20.015625 C 1.867188 19.8125 1.867188 19.609375 1.867188 19.410156 C 1.867188 19.191406 1.867188 18.972656 1.867188 18.753906 C 1.867188 18.324219 1.867188 17.898438 1.867188 17.46875 C 1.867188 17.121094 1.867188 16.773438 1.867188 16.425781 C 1.867188 15.441406 1.867188 14.453125 1.867188 13.46875 C 1.867188 13.414062 1.867188 13.359375 1.867188 13.304688 C 1.867188 13.253906 1.867188 13.199219 1.867188 13.144531 C 1.867188 12.28125 1.867188 11.417969 1.863281 10.558594 C 1.863281 9.671875 1.863281 8.785156 1.863281 7.898438 C 1.863281 7.402344 1.863281 6.90625 1.863281 6.40625 C 1.863281 5.984375 1.863281 5.5625 1.863281 5.136719 C 1.863281 4.921875 1.863281 4.707031 1.863281 4.488281 C 1.863281 4.292969 1.863281 4.09375 1.863281 3.894531 C 1.863281 3.824219 1.863281 3.753906 1.863281 3.679688 C 1.859375 2.8125 2.003906 2.113281 2.613281 1.460938 C 3.191406 0.902344 3.890625 0.78125 4.660156 0.785156 Z M 4.660156 0.785156 "/>
<path style=" stroke:none;fill-rule:nonzero;fill:rgb(0%,0%,0%);fill-opacity:1;" d="M 21.28125 12.5625 C 21.308594 12.585938 21.339844 12.613281 21.367188 12.636719 C 21.898438 13.117188 22.09375 13.757812 22.125 14.449219 C 22.125 15.390625 21.652344 15.996094 21.023438 16.632812 C 20.960938 16.691406 20.902344 16.75 20.84375 16.8125 C 20.78125 16.875 20.71875 16.9375 20.65625 17 C 20.484375 17.171875 20.3125 17.34375 20.144531 17.515625 C 20.035156 17.621094 19.929688 17.730469 19.824219 17.835938 C 19.449219 18.210938 19.078125 18.582031 18.703125 18.957031 C 18.355469 19.304688 18.007812 19.652344 17.664062 20 C 17.363281 20.300781 17.066406 20.601562 16.765625 20.898438 C 16.589844 21.078125 16.410156 21.257812 16.234375 21.4375 C 16.066406 21.605469 15.898438 21.773438 15.730469 21.9375 C 15.667969 22 15.605469 22.0625 15.546875 22.125 C 15.109375 22.566406 14.757812 22.816406 14.136719 22.917969 C 14.097656 22.921875 14.054688 22.929688 14.015625 22.9375 C 13.886719 22.960938 13.757812 22.980469 13.632812 23 C 13.546875 23.015625 13.460938 23.03125 13.375 23.042969 C 13.183594 23.078125 12.988281 23.109375 12.796875 23.140625 C 12.710938 23.15625 12.628906 23.167969 12.542969 23.183594 C 12.113281 23.253906 11.726562 23.195312 11.359375 22.960938 C 11.054688 22.726562 10.886719 22.40625 10.828125 22.03125 C 10.816406 21.730469 10.851562 21.449219 10.902344 21.152344 C 10.910156 21.105469 10.917969 21.058594 10.925781 21.011719 C 10.941406 20.910156 10.957031 20.8125 10.976562 20.710938 C 11 20.5625 11.023438 20.410156 11.050781 20.257812 C 11.066406 20.160156 11.082031 20.066406 11.097656 19.96875 C 11.105469 19.921875 11.113281 19.878906 11.121094 19.832031 C 11.234375 19.167969 11.59375 18.792969 12.054688 18.335938 C 12.117188 18.273438 12.183594 18.210938 12.246094 18.144531 C 12.417969 17.972656 12.589844 17.800781 12.761719 17.628906 C 12.945312 17.449219 13.125 17.269531 13.304688 17.089844 C 13.609375 16.785156 13.910156 16.484375 14.214844 16.179688 C 14.566406 15.832031 14.917969 15.480469 15.265625 15.132812 C 15.605469 14.792969 15.941406 14.457031 16.277344 14.121094 C 16.421875 13.976562 16.566406 13.835938 16.710938 13.691406 C 16.878906 13.523438 17.046875 13.351562 17.214844 13.183594 C 17.277344 13.125 17.339844 13.0625 17.402344 13 C 18.480469 11.921875 20.019531 11.4375 21.28125 12.5625 Z M 18.375 14.015625 C 18.316406 14.074219 18.316406 14.074219 18.257812 14.132812 C 18.167969 14.21875 18.085938 14.304688 18 14.390625 C 18.1875 14.617188 18.386719 14.832031 18.597656 15.039062 C 18.640625 15.082031 18.640625 15.082031 18.683594 15.125 C 18.773438 15.214844 18.863281 15.304688 18.953125 15.394531 C 19.015625 15.457031 19.078125 15.519531 19.140625 15.582031 C 19.292969 15.730469 19.441406 15.882812 19.59375 16.03125 C 19.644531 15.988281 19.699219 15.941406 19.75 15.898438 C 19.777344 15.875 19.808594 15.847656 19.835938 15.824219 C 19.957031 15.71875 20.074219 15.605469 20.1875 15.492188 C 20.230469 15.449219 20.273438 15.40625 20.316406 15.363281 C 20.570312 15.089844 20.699219 14.839844 20.734375 14.46875 C 20.703125 14.117188 20.601562 13.839844 20.34375 13.59375 C 19.554688 13.070312 18.980469 13.410156 18.375 14.015625 Z M 16.796875 15.578125 C 16.742188 15.628906 16.742188 15.628906 16.6875 15.679688 C 16.644531 15.71875 16.605469 15.757812 16.5625 15.796875 C 16.5 15.855469 16.5 15.855469 16.433594 15.917969 C 16.039062 16.292969 15.648438 16.667969 15.257812 17.046875 C 14.996094 17.300781 14.734375 17.554688 14.46875 17.804688 C 12.855469 19.25 12.855469 19.25 12.230469 21.257812 C 12.226562 21.40625 12.230469 21.554688 12.234375 21.703125 C 12.234375 21.734375 12.234375 21.765625 12.234375 21.796875 C 12.40625 21.78125 12.578125 21.765625 12.75 21.75 C 12.804688 21.746094 12.855469 21.742188 12.910156 21.734375 C 13.945312 21.632812 14.527344 21.320312 15.238281 20.550781 C 15.359375 20.425781 15.480469 20.304688 15.597656 20.183594 C 15.824219 19.953125 16.046875 19.71875 16.269531 19.484375 C 16.523438 19.21875 16.78125 18.957031 17.039062 18.691406 C 17.566406 18.152344 18.089844 17.609375 18.609375 17.0625 C 18.398438 16.8125 18.398438 16.8125 18.175781 16.578125 C 18.148438 16.550781 18.125 16.523438 18.097656 16.496094 C 18.070312 16.46875 18.042969 16.441406 18.015625 16.414062 C 17.988281 16.386719 17.957031 16.359375 17.929688 16.328125 C 17.867188 16.269531 17.808594 16.207031 17.75 16.148438 C 17.65625 16.058594 17.566406 15.964844 17.472656 15.871094 C 17.414062 15.8125 17.355469 15.753906 17.296875 15.699219 C 17.269531 15.667969 17.242188 15.640625 17.214844 15.613281 C 17.007812 15.394531 17.007812 15.394531 16.796875 15.578125 Z M 16.796875 15.578125 "/>
<path style=" stroke:none;fill-rule:nonzero;fill:rgb(0%,0%,0%);fill-opacity:1;" d="M 6.933594 8.695312 C 6.996094 8.695312 6.996094 8.695312 7.058594 8.695312 C 7.199219 8.691406 7.335938 8.695312 7.476562 8.695312 C 7.574219 8.695312 7.675781 8.695312 7.773438 8.695312 C 8.046875 8.691406 8.316406 8.691406 8.585938 8.695312 C 8.871094 8.695312 9.152344 8.695312 9.4375 8.691406 C 9.914062 8.691406 10.390625 8.695312 10.863281 8.695312 C 11.414062 8.695312 11.964844 8.695312 12.515625 8.695312 C 12.988281 8.691406 13.460938 8.691406 13.929688 8.695312 C 14.214844 8.695312 14.496094 8.695312 14.777344 8.691406 C 15.042969 8.691406 15.308594 8.691406 15.574219 8.695312 C 15.671875 8.695312 15.769531 8.695312 15.863281 8.695312 C 15.996094 8.695312 16.132812 8.695312 16.265625 8.695312 C 16.300781 8.695312 16.339844 8.695312 16.378906 8.695312 C 16.644531 8.699219 16.796875 8.757812 17.015625 8.90625 C 17.164062 9.078125 17.21875 9.269531 17.207031 9.496094 C 17.167969 9.722656 17.058594 9.890625 16.875 10.03125 C 16.640625 10.128906 16.433594 10.136719 16.183594 10.136719 C 16.140625 10.136719 16.101562 10.136719 16.058594 10.136719 C 15.921875 10.136719 15.785156 10.136719 15.652344 10.136719 C 15.550781 10.136719 15.453125 10.136719 15.355469 10.136719 C 15.089844 10.140625 14.824219 10.140625 14.558594 10.140625 C 14.339844 10.140625 14.117188 10.140625 13.894531 10.140625 C 13.371094 10.140625 12.847656 10.140625 12.324219 10.140625 C 11.785156 10.140625 11.246094 10.140625 10.707031 10.140625 C 10.242188 10.140625 9.777344 10.140625 9.316406 10.140625 C 9.039062 10.140625 8.761719 10.140625 8.484375 10.144531 C 8.222656 10.144531 7.964844 10.144531 7.703125 10.144531 C 7.609375 10.140625 7.511719 10.144531 7.417969 10.144531 C 7.285156 10.144531 7.15625 10.144531 7.027344 10.140625 C 6.96875 10.144531 6.96875 10.144531 6.910156 10.144531 C 6.667969 10.140625 6.496094 10.097656 6.28125 9.984375 C 6.070312 9.757812 6.03125 9.609375 6.035156 9.304688 C 6.058594 9.074219 6.179688 8.949219 6.355469 8.804688 C 6.558594 8.695312 6.707031 8.691406 6.933594 8.695312 Z M 6.933594 8.695312 "/>
<path style=" stroke:none;fill-rule:nonzero;fill:rgb(0%,0%,0%);fill-opacity:1;" d="M 6.917969 4.914062 C 6.960938 4.914062 7 4.914062 7.042969 4.914062 C 7.183594 4.914062 7.324219 4.914062 7.464844 4.914062 C 7.566406 4.914062 7.664062 4.914062 7.765625 4.914062 C 8.039062 4.910156 8.3125 4.910156 8.585938 4.910156 C 8.753906 4.910156 8.925781 4.910156 9.09375 4.910156 C 9.628906 4.910156 10.160156 4.910156 10.691406 4.90625 C 11.308594 4.90625 11.921875 4.90625 12.539062 4.90625 C 13.015625 4.902344 13.488281 4.902344 13.964844 4.902344 C 14.25 4.902344 14.53125 4.902344 14.816406 4.902344 C 15.082031 4.898438 15.351562 4.898438 15.617188 4.898438 C 15.714844 4.898438 15.8125 4.898438 15.910156 4.898438 C 16.046875 4.898438 16.179688 4.898438 16.3125 4.898438 C 16.351562 4.898438 16.390625 4.898438 16.429688 4.898438 C 16.722656 4.902344 16.886719 4.988281 17.101562 5.1875 C 17.222656 5.421875 17.222656 5.648438 17.152344 5.898438 C 17.042969 6.082031 16.925781 6.1875 16.734375 6.28125 C 16.601562 6.285156 16.46875 6.289062 16.335938 6.289062 C 16.273438 6.289062 16.273438 6.289062 16.207031 6.289062 C 16.066406 6.289062 15.925781 6.289062 15.785156 6.289062 C 15.683594 6.289062 15.585938 6.289062 15.484375 6.289062 C 15.210938 6.292969 14.933594 6.292969 14.660156 6.292969 C 14.488281 6.292969 14.320312 6.292969 14.148438 6.292969 C 13.613281 6.292969 13.078125 6.292969 12.542969 6.296875 C 11.921875 6.296875 11.304688 6.296875 10.6875 6.296875 C 10.207031 6.300781 9.730469 6.300781 9.253906 6.300781 C 8.96875 6.300781 8.683594 6.300781 8.398438 6.300781 C 8.128906 6.304688 7.859375 6.304688 7.589844 6.304688 C 7.492188 6.304688 7.394531 6.304688 7.296875 6.304688 C 7.160156 6.304688 7.027344 6.304688 6.890625 6.304688 C 6.832031 6.304688 6.832031 6.304688 6.773438 6.304688 C 6.523438 6.304688 6.382812 6.257812 6.1875 6.09375 C 6.03125 5.871094 6.011719 5.65625 6.046875 5.390625 C 6.125 5.214844 6.230469 5.09375 6.375 4.96875 C 6.558594 4.90625 6.730469 4.914062 6.917969 4.914062 Z M 6.917969 4.914062 "/>
<path style=" stroke:none;fill-rule:nonzero;fill:rgb(0%,0%,0%);fill-opacity:1;" d="M 6.777344 12.507812 C 6.820312 12.507812 6.863281 12.507812 6.910156 12.507812 C 6.957031 12.507812 7.007812 12.507812 7.054688 12.507812 C 7.132812 12.507812 7.132812 12.507812 7.210938 12.507812 C 7.378906 12.507812 7.546875 12.507812 7.714844 12.507812 C 7.832031 12.503906 7.949219 12.503906 8.066406 12.503906 C 8.277344 12.503906 8.492188 12.503906 8.707031 12.503906 C 8.988281 12.503906 9.273438 12.503906 9.554688 12.503906 C 9.859375 12.5 10.164062 12.5 10.46875 12.5 C 10.582031 12.5 10.699219 12.5 10.816406 12.5 C 10.976562 12.5 11.140625 12.5 11.300781 12.5 C 11.371094 12.5 11.371094 12.5 11.445312 12.496094 C 11.695312 12.5 11.878906 12.511719 12.09375 12.65625 C 12.300781 12.886719 12.34375 13.027344 12.339844 13.332031 C 12.316406 13.550781 12.203125 13.679688 12.042969 13.820312 C 11.894531 13.910156 11.769531 13.929688 11.597656 13.929688 C 11.53125 13.929688 11.53125 13.929688 11.464844 13.929688 C 11.417969 13.929688 11.367188 13.929688 11.320312 13.929688 C 11.242188 13.929688 11.242188 13.929688 11.164062 13.929688 C 10.996094 13.929688 10.828125 13.929688 10.660156 13.929688 C 10.542969 13.933594 10.425781 13.933594 10.308594 13.933594 C 10.097656 13.933594 9.882812 13.933594 9.667969 13.933594 C 9.386719 13.933594 9.101562 13.933594 8.820312 13.933594 C 8.515625 13.9375 8.210938 13.9375 7.90625 13.9375 C 7.792969 13.9375 7.675781 13.9375 7.558594 13.9375 C 7.398438 13.9375 7.234375 13.9375 7.074219 13.9375 C 7.003906 13.9375 7.003906 13.9375 6.929688 13.941406 C 6.679688 13.9375 6.496094 13.925781 6.28125 13.78125 C 6.074219 13.550781 6.03125 13.410156 6.035156 13.105469 C 6.058594 12.886719 6.171875 12.757812 6.332031 12.617188 C 6.480469 12.527344 6.605469 12.507812 6.777344 12.507812 Z M 6.777344 12.507812 "/>
</g>
</svg>
