<svg xmlns="http://www.w3.org/2000/svg" xmlns:xlink="http://www.w3.org/1999/xlink" viewBox="0 0 1080 1080" width="1080" height="1080" preserveAspectRatio="xMidYMid meet" style="width: 100%; height: 100%; transform: translate3d(0px, 0px, 0px); content-visibility: visible;"><defs><clipPath id="__lottie_element_184"><rect width="1080" height="1080" x="0" y="0"></rect></clipPath></defs><g clip-path="url(#__lottie_element_184)"><g transform="matrix(0.9862746596336365,0.16511301696300507,-0.16511301696300507,0.9862746596336365,151.1800079345703,128.2803955078125)" opacity="1" style="display: block;"><g opacity="1" transform="matrix(1,0,0,1,464.10101318359375,491.7980041503906)"><path fill="rgb(0,0,0)" fill-opacity="1" d=" M211.14999389648438,154.63999938964844 C184.447998046875,185.45599365234375 178.01400756835938,194.28199768066406 152.05999755859375,216.19700622558594 C134.10899353027344,231.30599975585938 107.48300170898438,230.03399658203125 91.02799987792969,213.20399475097656 C-32.685001373291016,86.6500015258789 -90.12799835205078,26.290000915527344 -213.9149932861328,-100.33899688720703 C-223.11599731445312,-109.76300048828125 -226.40699768066406,-123.75 -221.39599609375,-135.94200134277344 C-219.5260009765625,-140.35499572753906 -217.5800018310547,-144.76800537109375 -215.33799743652344,-148.8820037841797 C-208.68099975585938,-150.30299377441406 -202.0989990234375,-153.2949981689453 -196.48899841308594,-156.80999755859375 C-174.4980010986328,-170.4980010986328 -157.968994140625,-192.48800659179688 -150.0399932861328,-217.1699981689453 C-148.5449981689453,-217.69400024414062 -147.0500030517578,-218.36700439453125 -145.62899780273438,-219.11500549316406 C-141.44000244140625,-221.35899353027344 -137.0260009765625,-223.4530029296875 -132.53799438476562,-225.4720001220703 C-119.44999694824219,-231.30599975585938 -104.11699676513672,-228.61399841308594 -94.09400177001953,-218.36700439453125 C29.094999313354492,-92.33699798583984 86.16400146484375,-32.42399978637695 209.3520050048828,93.75700378417969 C225.73399353027344,110.51000213623047 226.4080047607422,136.98800659179688 211.14999389648438,154.63999938964844z"></path><path stroke-linecap="round" stroke-linejoin="round" fill-opacity="0" stroke="rgb(0,0,0)" stroke-opacity="1" stroke-width="18" d=" M211.14999389648438,154.63999938964844 C184.447998046875,185.45599365234375 178.01400756835938,194.28199768066406 152.05999755859375,216.19700622558594 C134.10899353027344,231.30599975585938 107.48300170898438,230.03399658203125 91.02799987792969,213.20399475097656 C-32.685001373291016,86.6500015258789 -90.12799835205078,26.290000915527344 -213.9149932861328,-100.33899688720703 C-223.11599731445312,-109.76300048828125 -226.40699768066406,-123.75 -221.39599609375,-135.94200134277344 C-219.5260009765625,-140.35499572753906 -217.5800018310547,-144.76800537109375 -215.33799743652344,-148.8820037841797 C-208.68099975585938,-150.30299377441406 -202.0989990234375,-153.2949981689453 -196.48899841308594,-156.80999755859375 C-174.4980010986328,-170.4980010986328 -157.968994140625,-192.48800659179688 -150.0399932861328,-217.1699981689453 C-148.5449981689453,-217.69400024414062 -147.0500030517578,-218.36700439453125 -145.62899780273438,-219.11500549316406 C-141.44000244140625,-221.35899353027344 -137.0260009765625,-223.4530029296875 -132.53799438476562,-225.4720001220703 C-119.44999694824219,-231.30599975585938 -104.11699676513672,-228.61399841308594 -94.09400177001953,-218.36700439453125 C29.094999313354492,-92.33699798583984 86.16400146484375,-32.42399978637695 209.3520050048828,93.75700378417969 C225.73399353027344,110.51000213623047 226.4080047607422,136.98800659179688 211.14999389648438,154.63999938964844z"></path></g><g opacity="1" transform="matrix(1,0,0,1,467.7929992675781,465.03900146484375)"><path fill="rgb(255,255,255)" fill-opacity="1" d=" M211.1490020751953,154.63999938964844 C184.44700622558594,185.4550018310547 178.01400756835938,194.28199768066406 152.05999755859375,216.19700622558594 C134.10899353027344,231.30599975585938 107.48200225830078,230.03399658203125 91.0270004272461,213.20399475097656 C-32.68600082397461,86.6510009765625 -90.12899780273438,26.288999557495117 -213.91600036621094,-100.33899688720703 C-223.11599731445312,-109.76300048828125 -226.40699768066406,-123.75 -221.39599609375,-135.9429931640625 C-219.5260009765625,-140.35499572753906 -217.58099365234375,-144.76800537109375 -215.33799743652344,-148.8820037841797 C-208.68099975585938,-150.30299377441406 -202.0989990234375,-153.29600524902344 -196.48899841308594,-156.80999755859375 C-174.49899291992188,-170.4980010986328 -157.968994140625,-192.48800659179688 -150.04100036621094,-217.17100524902344 C-148.5449981689453,-217.69400024414062 -147.0489959716797,-218.36700439453125 -145.6280059814453,-219.11500549316406 C-141.43899536132812,-221.36000061035156 -137.0260009765625,-223.4530029296875 -132.53900146484375,-225.4720001220703 C-119.44999694824219,-231.30599975585938 -104.11699676513672,-228.61399841308594 -94.09400177001953,-218.36700439453125 C29.094999313354492,-92.33699798583984 86.16400146484375,-32.42399978637695 209.35299682617188,93.75599670410156 C225.73399353027344,110.51100158691406 226.40699768066406,136.98800659179688 211.1490020751953,154.63999938964844z"></path><path stroke-linecap="round" stroke-linejoin="round" fill-opacity="0" stroke="rgb(0,0,0)" stroke-opacity="1" stroke-width="18" d=" M211.1490020751953,154.63999938964844 C184.44700622558594,185.4550018310547 178.01400756835938,194.28199768066406 152.05999755859375,216.19700622558594 C134.10899353027344,231.30599975585938 107.48200225830078,230.03399658203125 91.0270004272461,213.20399475097656 C-32.68600082397461,86.6510009765625 -90.12899780273438,26.288999557495117 -213.91600036621094,-100.33899688720703 C-223.11599731445312,-109.76300048828125 -226.40699768066406,-123.75 -221.39599609375,-135.9429931640625 C-219.5260009765625,-140.35499572753906 -217.58099365234375,-144.76800537109375 -215.33799743652344,-148.8820037841797 C-208.68099975585938,-150.30299377441406 -202.0989990234375,-153.29600524902344 -196.48899841308594,-156.80999755859375 C-174.49899291992188,-170.4980010986328 -157.968994140625,-192.48800659179688 -150.04100036621094,-217.17100524902344 C-148.5449981689453,-217.69400024414062 -147.0489959716797,-218.36700439453125 -145.6280059814453,-219.11500549316406 C-141.43899536132812,-221.36000061035156 -137.0260009765625,-223.4530029296875 -132.53900146484375,-225.4720001220703 C-119.44999694824219,-231.30599975585938 -104.11699676513672,-228.61399841308594 -94.09400177001953,-218.36700439453125 C29.094999313354492,-92.33699798583984 86.16400146484375,-32.42399978637695 209.35299682617188,93.75599670410156 C225.73399353027344,110.51100158691406 226.40699768066406,136.98800659179688 211.1490020751953,154.63999938964844z"></path></g><g opacity="1" transform="matrix(1,0,0,1,200.06300354003906,199.94200134277344)"><path fill="rgb(0,0,0)" fill-opacity="1" d=" M117.68199920654297,47.874000549316406 C109.7239990234375,72.56800079345703 93.2229995727539,94.56900024414062 71.22100067138672,108.26100158691406 C65.60399627685547,111.77200317382812 59.04999923706055,114.81500244140625 52.380001068115234,116.21900177001953 C52.61399841308594,115.51699829101562 52.96500015258789,114.93199920654297 53.316001892089844,114.2300033569336 C60.571998596191406,100.4209976196289 57.76300048828125,83.68499755859375 46.64500045776367,72.91799926757812 C-19.125,10.074000358581543 -51.9119987487793,-19.670000076293945 -117.68199920654297,-82.39800262451172 C-117.68199920654297,-82.39800262451172 -83.86000061035156,-116.21900177001953 -83.86000061035156,-116.21900177001953 C-17.5049991607666,-53.02299880981445 15.515000343322754,-22.81100082397461 81.87100219726562,40.50199890136719 C91.58399963378906,49.630001068115234 105.51000213623047,52.4379997253418 117.68199920654297,47.874000549316406z"></path><path stroke-linecap="round" stroke-linejoin="round" fill-opacity="0" stroke="rgb(0,0,0)" stroke-opacity="1" stroke-width="18" d=" M117.68199920654297,47.874000549316406 C109.7239990234375,72.56800079345703 93.2229995727539,94.56900024414062 71.22100067138672,108.26100158691406 C65.60399627685547,111.77200317382812 59.04999923706055,114.81500244140625 52.380001068115234,116.21900177001953 C52.61399841308594,115.51699829101562 52.96500015258789,114.93199920654297 53.316001892089844,114.2300033569336 C60.571998596191406,100.4209976196289 57.76300048828125,83.68499755859375 46.64500045776367,72.91799926757812 C-19.125,10.074000358581543 -51.9119987487793,-19.670000076293945 -117.68199920654297,-82.39800262451172 C-117.68199920654297,-82.39800262451172 -83.86000061035156,-116.21900177001953 -83.86000061035156,-116.21900177001953 C-17.5049991607666,-53.02299880981445 15.515000343322754,-22.81100082397461 81.87100219726562,40.50199890136719 C91.58399963378906,49.630001068115234 105.51000213623047,52.4379997253418 117.68199920654297,47.874000549316406z"></path></g><g opacity="1" transform="matrix(1,0,0,1,86.54199981689453,86.90299987792969)"><path fill="rgb(255,255,255)" fill-opacity="1" d=" M34.944000244140625,-33.29399871826172 C35.0260009765625,-33.19900131225586 35.106998443603516,-33.104000091552734 35.18899917602539,-33.00899887084961 C41.54199981689453,-25.660999298095703 41.119998931884766,-14.637999534606934 34.25199890136719,-7.769999980926514 C34.25199890136719,-7.769999980926514 -7.796000003814697,34.277000427246094 -7.796000003814697,34.277000427246094 C-15.420999526977539,41.902000427246094 -27.913000106811523,41.4370002746582 -34.95600128173828,33.27199935913086 C-35.03799819946289,33.176998138427734 -35.119998931884766,33.082000732421875 -35.20100021362305,32.98699951171875 C-41.542999267578125,25.635000228881836 -41.13399887084961,14.630000114440918 -34.268001556396484,7.763999938964844 C-34.268001556396484,7.763999938964844 7.78000020980835,-34.28300094604492 7.78000020980835,-34.28300094604492 C15.401000022888184,-41.90299987792969 27.893999099731445,-41.448001861572266 34.944000244140625,-33.29399871826172z"></path><path stroke-linecap="round" stroke-linejoin="round" fill-opacity="0" stroke="rgb(0,0,0)" stroke-opacity="1" stroke-width="18" d=" M34.944000244140625,-33.29399871826172 C35.0260009765625,-33.19900131225586 35.106998443603516,-33.104000091552734 35.18899917602539,-33.00899887084961 C41.54199981689453,-25.660999298095703 41.119998931884766,-14.637999534606934 34.25199890136719,-7.769999980926514 C34.25199890136719,-7.769999980926514 -7.796000003814697,34.277000427246094 -7.796000003814697,34.277000427246094 C-15.420999526977539,41.902000427246094 -27.913000106811523,41.4370002746582 -34.95600128173828,33.27199935913086 C-35.03799819946289,33.176998138427734 -35.119998931884766,33.082000732421875 -35.20100021362305,32.98699951171875 C-41.542999267578125,25.635000228881836 -41.13399887084961,14.630000114440918 -34.268001556396484,7.763999938964844 C-34.268001556396484,7.763999938964844 7.78000020980835,-34.28300094604492 7.78000020980835,-34.28300094604492 C15.401000022888184,-41.90299987792969 27.893999099731445,-41.448001861572266 34.944000244140625,-33.29399871826172z"></path></g><g opacity="1" transform="matrix(1,0,0,1,416.5270080566406,468.04901123046875)"><path stroke-linecap="round" stroke-linejoin="round" fill-opacity="0" stroke="rgb(0,0,0)" stroke-opacity="1" stroke-width="18" d=" M-32.10300064086914,-31.329999923706055 C-10.701000213623047,-10.442999839782715 10.701000213623047,10.442000389099121 32.10300064086914,31.329999923706055"></path></g><g opacity="1" transform="matrix(1,0,0,1,482.40899658203125,538.4520263671875)"><path stroke-linecap="round" stroke-linejoin="round" fill-opacity="0" stroke="rgb(0,0,0)" stroke-opacity="1" stroke-width="18" d=" M-4.454999923706055,-2.9549999237060547 C-1.4850000143051147,-0.984000027179718 1.4850000143051147,0.9860000014305115 4.454999923706055,2.9549999237060547"></path></g></g><g transform="matrix(1,0,0,1,680.2490234375,362.6349792480469)" opacity="1" style="display: block;"><g opacity="1" transform="matrix(1,0,0,1,143.1439971923828,144.1269989013672)"><path fill="rgb(255,255,255)" fill-opacity="1" d=" M29.62299919128418,-90.93699645996094 C52.516998291015625,-81.82599639892578 71.9219970703125,-63.95399856567383 82.28700256347656,-41.60100173950195 C98.14399719238281,-7.408999919891357 90.76799774169922,36.20100021362305 64.54900360107422,63.277000427246094 C38.32899856567383,90.35299682617188 -5.020999908447266,99.1259994506836 -39.70500183105469,84.37799835205078 C-74.38899993896484,69.62999725341797 -98.14399719238281,32.323001861572266 -96.83300018310547,-5.343999862670898 C-95.99099731445312,-29.513999938964844 -84.85199737548828,-52.8129997253418 -67.63200378417969,-69.62000274658203 C-53.66999816894531,-83.24700164794922 -38.319000244140625,-96.05799865722656 -18.41200065612793,-97.74700164794922 C-2.138000011444092,-99.12699890136719 14.420000076293945,-96.98799896240234 29.62299919128418,-90.93699645996094z"></path><path stroke-linecap="round" stroke-linejoin="round" fill-opacity="0" stroke="rgb(0,0,0)" stroke-opacity="1" stroke-width="18" d=" M29.62299919128418,-90.93699645996094 C52.516998291015625,-81.82599639892578 71.9219970703125,-63.95399856567383 82.28700256347656,-41.60100173950195 C98.14399719238281,-7.408999919891357 90.76799774169922,36.20100021362305 64.54900360107422,63.277000427246094 C38.32899856567383,90.35299682617188 -5.020999908447266,99.1259994506836 -39.70500183105469,84.37799835205078 C-74.38899993896484,69.62999725341797 -98.14399719238281,32.323001861572266 -96.83300018310547,-5.343999862670898 C-95.99099731445312,-29.513999938964844 -84.85199737548828,-52.8129997253418 -67.63200378417969,-69.62000274658203 C-53.66999816894531,-83.24700164794922 -38.319000244140625,-96.05799865722656 -18.41200065612793,-97.74700164794922 C-2.138000011444092,-99.12699890136719 14.420000076293945,-96.98799896240234 29.62299919128418,-90.93699645996094z"></path></g><g opacity="1" transform="matrix(1,0,0,1,52.21799850463867,164.29600524902344)"><path stroke-linecap="round" stroke-linejoin="round" fill-opacity="0" stroke="rgb(0,0,0)" stroke-opacity="1" stroke-width="9" d=" M-0.9300000071525574,-0.08799999952316284 C-0.9300000071525574,-0.08799999952316284 -0.9010000228881836,-0.08799999952316284 -0.9010000228881836,-0.08799999952316284 C-0.29100000858306885,-0.026000000536441803 0.3190000057220459,0.03400000184774399 0.9300000071525574,0.08799999952316284"></path></g><g opacity="1" transform="matrix(1,0,0,1,137.73399353027344,127.05000305175781)"><path stroke-linecap="round" stroke-linejoin="round" fill-opacity="0" stroke-dasharray=" 3.849 23.092" stroke-dashoffset="0" stroke="rgb(0,0,0)" stroke-opacity="1" stroke-width="9" d=" M-61.51499938964844,37.64799880981445 C-42.52000045776367,36.47800064086914 -23.732999801635742,31.802000045776367 -6.434999942779541,23.81399917602539 C20.31599998474121,11.463000297546387 43.361000061035156,-8.810999870300293 59.055999755859375,-33.7239990234375 C59.96799850463867,-35.16699981689453 60.7760009765625,-36.446998596191406 61.51499938964844,-37.64799880981445"></path></g><g opacity="1" transform="matrix(1,0,0,1,204.99400329589844,78.3280029296875)"><path stroke-linecap="round" stroke-linejoin="round" fill-opacity="0" stroke="rgb(0,0,0)" stroke-opacity="1" stroke-width="9" d=" M-0.36399999260902405,0.8610000014305115 C-0.12600000202655792,0.31200000643730164 0.11599999666213989,-0.25999999046325684 0.36399999260902405,-0.8610000014305115"></path></g><g opacity="1" transform="matrix(1,0,0,1,95.31500244140625,218.21499633789062)"><path stroke-linecap="round" stroke-linejoin="round" fill-opacity="0" stroke="rgb(0,0,0)" stroke-opacity="1" stroke-width="9" d=" M-0.9330000281333923,-0.0430000014603138 C-0.9330000281333923,-0.0430000014603138 -0.906000018119812,-0.0430000014603138 -0.906000018119812,-0.0430000014603138 C-0.2919999957084656,-0.009999999776482582 0.3199999928474426,0.01899999938905239 0.9330000281333923,0.0430000014603138"></path></g><g opacity="1" transform="matrix(1,0,0,1,169.40199279785156,185.99899291992188)"><path stroke-linecap="round" stroke-linejoin="round" fill-opacity="0" stroke-dasharray=" 3.821 22.925" stroke-dashoffset="0" stroke="rgb(0,0,0)" stroke-opacity="1" stroke-width="9" d=" M-50.270999908447266,31.31599998474121 C-35.83599853515625,29.545000076293945 -21.667999267578125,25.565000534057617 -8.461000442504883,19.46299934387207 C15.343999862670898,8.470000267028809 35.944000244140625,-9.37600040435791 50.270999908447266,-31.31599998474121"></path></g><g opacity="1" transform="matrix(1,0,0,1,225.9409942626953,143.9810028076172)"><path stroke-linecap="round" stroke-linejoin="round" fill-opacity="0" stroke="rgb(0,0,0)" stroke-opacity="1" stroke-width="9" d=" M-0.4269999861717224,0.8320000171661377 C-0.13699999451637268,0.2800000011920929 0.14800000190734863,-0.2750000059604645 0.4269999861717224,-0.8320000171661377"></path></g><g opacity="1" transform="matrix(1,0,0,1,147.37100219726562,152.08999633789062)"><path stroke-linecap="round" stroke-linejoin="round" fill-opacity="0" stroke="rgb(0,0,0)" stroke-opacity="1" stroke-width="9" d=" M-75.16200256347656,42.03300094604492 C-75.16200256347656,42.03300094604492 -75.13200378417969,42.03300094604492 -75.13200378417969,42.03300094604492 C-49.22600173950195,43.415000915527344 -22.940000534057617,38.452999114990234 0.6430000066757202,27.555999755859375 C28.52899932861328,14.680999755859375 52.553001403808594,-6.453000068664551 68.91400146484375,-32.42399978637695 C71.14399719238281,-35.972999572753906 73.27799987792969,-39.64699935913086 75.16200256347656,-43.415000915527344"></path></g></g></g></svg>